<svg xmlns="http://www.w3.org/2000/svg" viewBox="0 0 501.13 350"><defs><style>.cls-1,.cls-3{fill:#de1f26;}.cls-2{fill:#1a1a1a;}.cls-2,.cls-3,.cls-4{fill-rule:evenodd;}.cls-4{fill:#fff;}.cls-5{fill:none;}</style></defs><title>bloodrequest</title><g id="Layer_2" data-name="Layer 2"><g id="Layer_1-2" data-name="Layer 1"><path class="cls-1" d="M44.12,227.16a4.66,4.66,0,0,1,9.31,0v45.53h97.38V166.87a4.69,4.69,0,0,1,4.75-4.56h18.81a4.66,4.66,0,1,1,0,9.31H160.13V277.43a4.65,4.65,0,0,1-4.57,4.57H48.69a4.65,4.65,0,0,1-4.57-4.57Z"/><path class="cls-2" d="M58.88,222.06v-3h3.17a3.29,3.29,0,0,0,3.16-3.33,3.19,3.19,0,0,0-3.16-3.34H58.88v-2.11H76.11A21.39,21.39,0,0,0,97.56,189V113.79A21.38,21.38,0,0,0,76.11,92.52H21.44A21.37,21.37,0,0,0,0,113.79V189a21.39,21.39,0,0,0,21.44,21.27H38.67v2.11h-3a3.23,3.23,0,0,0-3.34,3.34,3.33,3.33,0,0,0,3.34,3.33h3v3A3.3,3.3,0,0,0,42,225.22H55.54a3.19,3.19,0,0,0,3.34-3.16ZM35.5,215H62.23a.75.75,0,0,1,.7.7h0a.75.75,0,0,1-.7.7H35.5a.8.8,0,0,1-.87-.7h0a.8.8,0,0,1,.87-.7ZM6.68,189V113.79A14.74,14.74,0,0,1,21.44,99H76.11a14.75,14.75,0,0,1,14.77,14.77V189a14.75,14.75,0,0,1-14.77,14.77H21.44A14.74,14.74,0,0,1,6.68,189Zm38.67,21.27h6.86v2.11H45.35Zm0,10.9v-2.12h6.86v2.12Z"/><path class="cls-3" d="M7.56,148.41v45c0,4.93,6.5,9.14,14.41,9.14H75.59c7.9,0,14.41-4.21,14.41-9.14v-45Z"/><path class="cls-2" d="M48.86,78.46a9,9,0,1,1-9.14,9,9,9,0,0,1,9.14-9Zm0,3.86a5.1,5.1,0,1,1-5.09,5.1,5.1,5.1,0,0,1,5.09-5.1Z"/><path class="cls-1" d="M447.7,227.16a4.66,4.66,0,0,1,9.31,0v50.27a4.65,4.65,0,0,1-4.57,4.57H345.74a4.69,4.69,0,0,1-4.74-4.57V171.62H326.77a4.66,4.66,0,1,1,0-9.31h19a4.65,4.65,0,0,1,4.58,4.56V272.69H447.7Z"/><path class="cls-2" d="M442.25,222.06v-3h-3.16a3.29,3.29,0,0,1-3.17-3.33,3.19,3.19,0,0,1,3.17-3.34h3.16v-2.11H425A21.39,21.39,0,0,1,403.58,189V113.79A21.37,21.37,0,0,1,425,92.52h54.67a21.37,21.37,0,0,1,21.44,21.27V189a21.38,21.38,0,0,1-21.44,21.27H462.46v2.11h3a3.23,3.23,0,0,1,3.34,3.34,3.33,3.33,0,0,1-3.34,3.33h-3v3a3.3,3.3,0,0,1-3.34,3.16H445.59a3.19,3.19,0,0,1-3.34-3.16Zm23.38-7H438.91a.75.75,0,0,0-.7.7h0a.75.75,0,0,0,.7.7h26.72a.8.8,0,0,0,.87-.7h0a.8.8,0,0,0-.87-.7Zm28.82-26V113.79A14.74,14.74,0,0,0,479.69,99H425a14.75,14.75,0,0,0-14.77,14.77V189A14.75,14.75,0,0,0,425,203.79h54.67A14.74,14.74,0,0,0,494.45,189Zm-38.67,21.27h-6.86v2.11h6.86Zm0,10.9v-2.12h-6.86v2.12Z"/><path class="cls-3" d="M493.57,148.41v45c0,4.93-6.5,9.14-14.41,9.14H425.55c-7.91,0-14.42-4.21-14.42-9.14v-45Z"/><path class="cls-2" d="M452.27,78.46a9,9,0,1,0,9.14,9,9,9,0,0,0-9.14-9Zm0,3.86a5.1,5.1,0,1,0,5.09,5.1,5.1,5.1,0,0,0-5.09-5.1Z"/><path class="cls-3" d="M249.6,92a50.79,50.79,0,0,1,31.46-11.07c29.71,0,52.21,25.13,52.21,54.14a71.91,71.91,0,0,1-3.52,22,75.21,75.21,0,0,1-3.87,9.85A106.48,106.48,0,0,1,318,180.75c-14.59,21.45-41.13,42.9-64.15,54.67l-4.22,2.11-4.22-2.11c-23-11.77-49.57-33.22-64.15-54.67A104.62,104.62,0,0,1,173.31,167a75.44,75.44,0,0,1-3.86-9.83,72.86,72.86,0,0,1-3.52-22.15c0-29,22.5-54.14,52.2-54.14A50.8,50.8,0,0,1,249.6,92Z"/><path class="cls-4" d="M175.6,171.44l38.67-1.58a4,4,0,0,0,3.51-2.12l4.58-9.66,7.55,39a3.79,3.79,0,0,0,3.87,3.16h0a3.65,3.65,0,0,0,3.69-3.33l6.5-50.45,5.45,33.22a3.75,3.75,0,0,0,3.35,3.17,3.8,3.8,0,0,0,3.86-2.47l5.8-13.71,6.5,18.81a3.55,3.55,0,0,0,3.34,2.64,3.8,3.8,0,0,0,3.7-1.94l8.61-16.34h39.9c.52-1.05,1-2.12,1.4-3l2.12-4.75H282.29a4.24,4.24,0,0,0-3.51,2.11l-5.45,10.38-6.86-19.86a3.74,3.74,0,0,0-3.51-2.64,4.12,4.12,0,0,0-3.7,2.27l-4.74,11.26-7.38-44.29a3.6,3.6,0,0,0-3.52-3.17h-.35a3.75,3.75,0,0,0-3.69,3.17l-6.5,51.32-5.27-27.6a4.17,4.17,0,0,0-3.35-3.16,3.77,3.77,0,0,0-3.86,2.29l-8.79,17.92-40.43.19a38.63,38.63,0,0,0,1.93,4.73c.71,1.42,1.41,3,2.29,4.4Z"/><rect class="cls-5" x="0.57" width="500" height="350"/></g></g></svg>