<svg xmlns="http://www.w3.org/2000/svg" viewBox="0 0 585.18 464.07"><defs><style>.cls-1,.cls-2{fill:#d4d4d4;}.cls-1,.cls-13,.cls-14,.cls-3,.cls-7,.cls-8,.cls-9{fill-rule:evenodd;}.cls-3,.cls-6{fill:#f65058;}.cls-16,.cls-4,.cls-8{fill:#fff;}.cls-13,.cls-5{fill:#eee;}.cls-7{fill:#f9f9f9;}.cls-11,.cls-9{fill:#00559c;}.cls-10{fill:#fbfbfb;}.cls-12,.cls-14{fill:#fefefe;}.cls-15{fill:none;stroke:#000;stroke-miterlimit:10;stroke-width:2px;}.cls-16{font-size:12.38px;font-family:Calibri-Bold, Calibri;font-weight:700;}.cls-17{letter-spacing:-0.01em;}</style></defs><title>Asset 2</title><g id="Layer_2" data-name="Layer 2"><g id="Objects"><polygon class="cls-1" points="173.41 428.39 201.78 426.04 195.21 424.44 166.84 426.78 173.41 428.39"/><path class="cls-1" d="M198.51,425,159,415.66l-.57-.24-23.14-8.92c-4.12-1.58-14.67-2.66-23.65-2.39l-2.27.07c-9,.27-13.13,1.8-9,3.39l23.09,8.89a10.88,10.88,0,0,0,3.45,1.25l41.79,9.93Z"/><path class="cls-1" d="M124.29,429.93h0c11.41-.2,24.21,1.26,28.35,3.24l45.88,22c4.14,2-1.75,3.76-13.16,4h0c-11.42.2-24.22-1.26-28.35-3.24l-45.89-22C107,431.91,112.87,430.13,124.29,429.93Z"/><path class="cls-2" d="M107.82,457.33l1.6.26a106.14,106.14,0,0,0,13.77,1h.16a64.27,64.27,0,0,0,11.76-.75c2.68-.51,3.88-1.25,3-2.08L114,433.7h0c-.8-.7-3-1.36-6.1-1.9V430.4c.84.1,1.66.22,2.45.33,5.38.8,9.37,1.87,10.69,3l0,0h0l24.13,22.09c1.26,1.16-.4,2.17-4.12,2.89a88.89,88.89,0,0,1-16.29,1h-.26a151.78,151.78,0,0,1-16.65-1.09ZM92.29,430.48a64.34,64.34,0,0,0-11.76.75c-2.68.51-3.88,1.25-3,2.08l24.12,22.09h0c.8.7,3,1.36,6.1,1.9v1.37c-.84-.1-1.66-.21-2.44-.33-5.38-.8-9.38-1.87-10.7-3l0,0h0L70.51,433.23c-1.26-1.15.4-2.17,4.11-2.88a88.72,88.72,0,0,1,16.29-1h.26a151.78,151.78,0,0,1,16.65,1.09v1.37c-.51-.09-1-.18-1.6-.26a106,106,0,0,0-13.76-1h-.17Z"/><path class="cls-1" d="M91.67,429.89h0c-12-.13-19.8,1.4-17.63,3.38l24.12,22.09c2.17,2,13.86,3.72,25.81,3.85h0c11.95.13,19.81-1.39,17.64-3.38l-24.13-22.09C115.31,431.75,103.62,430,91.67,429.89Z"/><path class="cls-2" d="M91.63,403.67h23.49a122.62,122.62,0,0,1,15.66,1c4.55.61,8.09,1.46,9.5,2.39l35,23.13c1.41.93.44,1.78-2.25,2.39a63.15,63.15,0,0,1-12.65,1H91.63v-1.18h67a41,41,0,0,0,8.24-.65c1.77-.4,2.4-.95,1.48-1.56l-35-23.13c-.92-.6-3.23-1.16-6.2-1.56a79.6,79.6,0,0,0-10.21-.65H91.63Zm-68.78,0H91.63v1.17h-67a41,41,0,0,0-8.24.65c-1.77.4-2.4,1-1.48,1.56l35,23.13c.92.61,3.22,1.16,6.2,1.56a79.6,79.6,0,0,0,10.21.65H91.63v1.18H68.14a122.41,122.41,0,0,1-15.66-1c-4.56-.61-8.09-1.46-9.5-2.39L8,407.05c-1.42-.93-.45-1.78,2.25-2.39A63.19,63.19,0,0,1,22.85,403.67Z"/><path class="cls-1" d="M11,404.26H128.77c2.09,0,6.38,1.7,9.53,3.79l32,21.14c3.16,2.08,4,3.79,2,3.79H54.49c-2.09,0-6.38-1.71-9.54-3.79l-32-21.14C9.78,406,8.9,404.26,11,404.26Z"/><polygon class="cls-1" points="78.92 405.59 113.4 432.98 130.89 432.98 145.36 432.98 90.61 405.44 78.92 405.59"/><polygon class="cls-1" points="133.58 428.62 92.98 408.41 86.44 408.48 112.99 428.73 127.81 431.29 133.58 428.62"/><path class="cls-1" d="M41.85,403.43l32.48,5.89,10.22-3.45,32.16,2.47-1.49-4.67S42.52,403.87,41.85,403.43Z"/><path class="cls-1" d="M59.58,417.56h0c-.66,1.35.14,2.52,1.76,2.6l101.78,5.36a4.66,4.66,0,0,0,4.13-2.29h0c.66-1.35-.14-2.52-1.76-2.6L63.71,415.27A4.62,4.62,0,0,0,59.58,417.56Z"/><polygon class="cls-1" points="135.32 418.74 132.94 424.33 122.26 423.78 124.64 418.19 135.32 418.74"/><path class="cls-2" d="M63.86,413.82l1.86.63,58.9,3c2,.11,3.48.44,3.34.75v0L125.49,424c-.13.31-1.83.47-3.81.37l-57.82-3v-1.14l54.71,2.8,2-4.66-56.7-2.91Zm-52.17-10,2-.08a124.68,124.68,0,0,1,15.84.45,60.66,60.66,0,0,1,12.28,2.14l22.07,7.46v1.68l-.6,0h0a12.9,12.9,0,0,1-2.92-.42l-24.87-8.41a40.42,40.42,0,0,0-8.18-1.43,81.86,81.86,0,0,0-10.39-.29l-2,.07h-.42a22,22,0,0,0-6.67,1c-1.06.47-.94,1.05.65,1.62l.07,0,.13,0h0l28.44,9.7a37,37,0,0,0,6.74,1.53c2.6.36,5.76.62,9.69.82l10.3.53v1.14l-10.75-.55c-5.11-.27-9.35-.62-13-1.13a50.23,50.23,0,0,1-9.27-2.07L2.35,408h0l-.12,0-.11,0c-2.46-.89-2.67-1.78-1-2.5s5.18-1.29,10.16-1.5h.48Z"/><path class="cls-1" d="M13.13,404.43l2.16-.09c8.51-.34,18.85.64,23.34,2.16l24.88,8.41L124.38,418l-2.47,5.79L53.33,420.3c-9-.47-14.8-1.21-19.36-2.77l-28.46-9.7C1.05,406.3,4.61,404.77,13.13,404.43Z"/><path class="cls-1" d="M88.79,406c3.56.69,4.76,1.32,3.93,2l-6.74.06c-3.66-.47-5.31-1.22-4.13-2Z"/><path class="cls-1" d="M55.12,387.54c27.42,0,55.34,3.76,62.36,8.4s-9.51,8.39-36.93,8.39-55.34-3.76-62.36-8.39S27.7,387.54,55.12,387.54Z"/><polygon class="cls-1" points="163.69 419.19 177.99 425 187.8 424.73 173.51 418.92 163.69 419.19"/><path class="cls-1" d="M253.12,428.87l-20.21,2.05-9.72-2.11a27.22,27.22,0,0,0-7.09-.35l-4.84.5v1.3l4.42-.45a26.7,26.7,0,0,1,7,.35l5.67,1.23-17.11,1.74v14.32l1.53.33a72.36,72.36,0,0,0,18.84.92l76.77-7.82c5.46-.56,5.91-1.88,1-2.95L272,429.79A71.93,71.93,0,0,0,253.12,428.87Zm-41.86.09-24,2.45c-2.06.21-2.23.71-.38,1.11l9.72,2.11-20.2,2.06c-5.46.55-5.92,1.88-1,2.95l35.92,7.81V433.13l-10.16,1-5.67-1.24c-1.83-.39-1.66-.89.38-1.1l15.45-1.57Z"/><path class="cls-1" d="M145.92,416.4l-3.41.28c-5.92.49,4.11,4.54,22.29,9h0c18.18,4.46,37.89,7.72,43.81,7.23l3.41-.28c5.92-.49-4.11-4.54-22.29-9h0C171.55,419.17,151.84,415.92,145.92,416.4Z"/><polygon class="cls-1" points="221.87 418.55 219.48 424.14 208.8 423.6 211.19 418 221.87 418.55"/><path class="cls-1" d="M239.06,420h0c3.52,1.4-1.4,2.78-10.93,3.06l-64,1.92c-9.54.28-20.22-.63-23.74-2h0c-3.52-1.4,1.4-2.78,10.94-3.07l64-1.91C224.86,417.7,235.54,418.61,239.06,420Z"/><path class="cls-1" d="M310.15,429.67h0c-11.81,0-19.1,1.6-16.17,3.59l32.54,22.1c2.94,2,15,3.64,26.76,3.66h0c11.8,0,19.1-1.6,16.17-3.59l-32.55-22.1C334,431.34,322,429.69,310.15,429.67Z"/><path class="cls-1" d="M338.35,423.6h0c11-.36,24.31.95,29.32,2.91L440,454.84c5,2,.22,3.86-10.83,4.22h0c-11,.36-24.31-.95-29.32-2.91l-72.34-28.33C322.52,425.85,327.31,424,338.35,423.6Z"/><path class="cls-2" d="M254.57,422.11c1.82-.1,3.39-.23,4.61-.4,1.92-.28,3-.68,2.78-1.3l-3.44-9.86c-.24-.7-1.54-1.4-3.87-2l-.08,0v0l.69-.72-.69.09v-.81q3.26.44,5.59,1l.14,0c3.26.79,5.06,1.73,5.39,2.65l3.44,9.86c.33,1-1.41,1.6-4.52,2-2.59.37-6.07.59-10,.73Zm-8-14.59-2.4-.14c-.94-.06-1.92-.1-2.92-.13a82.55,82.55,0,0,0-8.42.17c-2.14.18-3.66.48-4,.86a.23.23,0,0,0,0,.27l4.33,8.62c.13.26-.83.46-2.26.49l-10.64.31v-1.24l5.54-.17-4.12-8.21a.44.44,0,0,1,.06-.49c.56-.7,3.1-1.21,6.68-1.51a115,115,0,0,1,12.23-.26c1.43,0,2.89.11,4.35.2l2.41.14c2.68.16,5.08.39,7.19.66v.81c-.88.16-.93.42,0,.66l0,0v0h0a49,49,0,0,0-8-1Zm-26.3,15.65,29.94-.88c1.58-.05,3.06-.1,4.4-.18v1.29l-1.5.05-32.84,1Zm0-5.2-41.75,1.24,12.12,4.84,29.63-.88v1.25l-30,.89a15.61,15.61,0,0,1-4.72-.49l-15-6c-.8-.32,0-.62,1.83-.68l47.92-1.41Z"/><path class="cls-1" d="M247,407l-2.41-.15c-9.48-.57-20.1.08-19.32,1.62l4.32,8.62-55.79,1.65,15,6,62.85-1.86c8.29-.25,14.47-.78,13.92-2.35l-3.44-9.86C261.57,409.12,256.44,407.54,247,407Z"/><path class="cls-2" d="M325,403.77,307.8,404v-1.2l14.81-.22a124.5,124.5,0,0,1,15.76.78c4.78.56,8.69,1.37,10.57,2.3l46.64,23c1.87.92,1.38,1.8-.92,2.47a51,51,0,0,1-11.78,1.19L307.8,433.5v-1.2l72.74-1.09a33.13,33.13,0,0,0,7.68-.78c1.49-.43,1.81-1,.57-1.61l-46.64-23a24.75,24.75,0,0,0-6.88-1.5A81,81,0,0,0,325,403.77ZM307.8,404l-72.74,1.09a33,33,0,0,0-7.68.78c-1.5.43-1.81,1-.58,1.61l46.64,23a24.84,24.84,0,0,0,6.88,1.5,81,81,0,0,0,10.32.51l17.16-.25v1.2l-14.81.22a124.56,124.56,0,0,1-15.77-.78c-4.78-.56-8.69-1.37-10.57-2.3L220,407.6c-1.87-.93-1.38-1.8.92-2.47a51,51,0,0,1,11.78-1.19l75.09-1.12Z"/><path class="cls-1" d="M336,403l-114.36,1.71c-2.14,0-.45,1.75,3.76,3.83L268,429.6c4.21,2.08,9.4,3.75,11.54,3.72l114.36-1.7c2.14,0,.45-1.76-3.75-3.84l-42.64-21.06C343.34,404.64,338.15,403,336,403Z"/><polygon class="cls-1" points="274.7 405.29 336.74 432.47 321.08 433.4 305.6 432.93 262.76 405.31 274.7 405.29"/><polygon class="cls-1" points="301.84 428.51 270.84 408.24 277.44 408.21 322.32 428.33 316.8 431.03 301.84 428.51"/><path class="cls-1" d="M303.24,402.64l-11.05,6.21-22-3.21-22.71,2.87-14.86-4.57S304.13,403.08,303.24,402.64Z"/><path class="cls-1" d="M266.44,405.81c-1.07.72-.05,1.35,3.18,2l6.78,0c1.91-.51.9-1.26-3.08-2Z"/><path class="cls-1" d="M235.39,387.35c-26.71.4-40.78,4.47-31.43,9.09s38.59,8,65.3,7.64,40.79-4.47,31.44-9.09S262.11,387,235.39,387.35Z"/><path class="cls-1" d="M450.86,425.82l5.19-.51a27,27,0,0,1,7.08.37l9.56,2.13,20.47-2a71.87,71.87,0,0,1,18.83,1L548.8,435c4.82,1.08,4.24,2.4-1.3,2.94l-77.81,7.59a72.33,72.33,0,0,1-18.83-1v-14.6l17.22-1.69L462.51,427a27,27,0,0,0-7-.36l-4.63.45Zm-35.51,7.58,20.48-2-9.56-2.13c-1.81-.4-1.59-.9.49-1.1l24.1-2.35v1.28l-15.51,1.52c-2.06.2-2.28.69-.48,1.09l5.57,1.24,10.42-1v14.6h0l-36.81-8.2C409.23,435.26,409.82,433.94,415.35,433.4Z"/><path class="cls-1" d="M379.27,413.82h0c6.11-.73,27.06,1.83,46.57,5.69l5.74,1.14c19.51,3.86,30.47,7.62,24.37,8.35h0c-6.11.73-27.06-1.84-46.57-5.7l-5.74-1.14C384.13,418.3,373.17,414.55,379.27,413.82Z"/><polygon class="cls-1" points="419.83 425.8 445.35 422.82 437.81 421.31 412.29 424.28 419.83 425.8"/><path class="cls-2" d="M409.43,424.76l-34.83-7.11V416l37.48,7.65,22.32-2.52-43.88-9c-.77-.15-1.58-.29-2.41-.41s-1.8-.24-2.81-.34h0l-.63-.08L374.6,410v-1.34l13.52,1.88c1.32.13,2.63.29,3.9.47s2.56.41,3.65.63l46.39,9.47c1.38.28,1.34.64-.08.81L414.5,425A19.53,19.53,0,0,1,409.43,424.76Zm-34.83-7.11L366,415.89l-.21,0-.79-.11-47-6.53c-5-.69-8.36-1.6-9.67-2.5s-.62-1.79,2.43-2.47L312,404h0l.1,0h0a68.52,68.52,0,0,1,13.13-1,124,124,0,0,1,16.08,1h0l.15,0h0l33.09,4.6V410l-36.86-5.12h0l-.14,0a81.65,81.65,0,0,0-10.61-.68,44.72,44.72,0,0,0-8.78.66h-.09l-1.28.29c-2,.45-2.5,1-1.62,1.64s3.12,1.21,6.49,1.68l47,6.53.52.07.33,0c.42.05.81.11,1.15.17l3.85.79Z"/><path class="cls-3" d="M287.92,287.06,268.11,297.4l-5.54-10.61A4.15,4.15,0,0,0,257,285l-8.56,4.47v5.68l6.47-3.37a4.09,4.09,0,0,1,5.52,1.73l3.23,6.19-15.22,7.94v76.8l71-37.06a11,11,0,0,0,4.66-14.82l-21.35-40.88A11,11,0,0,0,287.92,287.06Zm-39.49,2.44-19.77,10.32a4.16,4.16,0,0,0-1.75,5.58L232.45,316l-19.81,10.34A11,11,0,0,0,208,341.17l21.34,40.88a11,11,0,0,0,14.82,4.66l4.28-2.24v-76.8l-11.52,6-3.23-6.19a4.11,4.11,0,0,1,1.73-5.52l13-6.8Z"/><path class="cls-3" d="M207.15,211.74h0a15.31,15.31,0,0,0-8,20.07l29.39,68a15.32,15.32,0,0,0,20.08,8h0a15.31,15.31,0,0,0,8-20.07l-29.39-68A15.31,15.31,0,0,0,207.15,211.74Z"/><rect class="cls-4" x="214.9" y="264.9" width="34.8" height="10.37" transform="translate(-88.34 114.84) rotate(-23.47)"/><path class="cls-3" d="M248.57,262l-25.28-55.49c0-.47-.11-.95-.2-1.43l-9.64-52.72a17.45,17.45,0,0,0-20-14.14l-2.39.41a17.33,17.33,0,0,0-14.14,20l9.62,52.59a17.23,17.23,0,0,0,1.55,7.41l26.75,58.72Z"/><rect class="cls-4" x="254.01" y="233.34" width="34.8" height="10.37" transform="translate(-39.88 421.98) rotate(-71.82)"/><path class="cls-3" d="M167,290.89h0a21.45,21.45,0,0,1,23.44,19.17l12.59,130a21.49,21.49,0,0,1-19.17,23.44h0a21.45,21.45,0,0,1-23.44-19.17l-12.59-130A21.5,21.5,0,0,1,167,290.89Z"/><path class="cls-5" d="M149.53,332.43l1.37-19.24V313a17.55,17.55,0,0,0-1.72-8.71,21.63,21.63,0,0,1,4.16-6.6,24.51,24.51,0,0,1,4.49,15.7v.26l-4.3,60.16Z"/><path class="cls-3" d="M134.39,290.68h0a21.52,21.52,0,0,0-22.75,20l-9.33,130.61a21.43,21.43,0,0,0,20,22.76h0A21.52,21.52,0,0,0,145,444l9.33-130.61A21.42,21.42,0,0,0,134.39,290.68Z"/><path class="cls-4" d="M151.42,135.59h46.14a20.09,20.09,0,0,1,20,20V292.37a20.09,20.09,0,0,1-20,20H151.42v-7h46.14a13.13,13.13,0,0,0,13.07-13.06V155.62a13.13,13.13,0,0,0-13.07-13.06H151.42Zm-46.13,0h46.13v7H105.29a13.11,13.11,0,0,0-13.07,13.06V292.37a13.11,13.11,0,0,0,13.07,13.06h46.13v7H105.29a20.09,20.09,0,0,1-20-20V155.62a20.09,20.09,0,0,1,20-20Z"/><rect class="cls-6" x="88.74" y="139.08" width="125.37" height="169.84" rx="16.55"/><polygon class="cls-7" points="158.43 146.98 151.45 308.92 168.94 308.92 183.41 308.92 170.36 146.08 158.43 146.98"/><path class="cls-3" d="M171.15,215.48l-4.38-52.31-2.91.17-1.8,52.45,4.79,6.61Z"/><path class="cls-8" d="M124.65,134.18,148.2,169l15.45-20.42,28.42,14.6,5.58-27.62S124.65,136.78,124.65,134.18Z"/><path class="cls-9" d="M296.75,232.23h0a15.31,15.31,0,0,1-12.51,17.6l-73,12.34a15.3,15.3,0,0,1-17.6-12.51h0a15.31,15.31,0,0,1,12.51-17.6l73-12.35A15.31,15.31,0,0,1,296.75,232.23Z"/><path class="cls-3" d="M121,217.75h0a15.31,15.31,0,0,0,9.58,19.35l70.15,23.74a15.32,15.32,0,0,0,19.36-9.58h0a15.3,15.3,0,0,0-9.57-19.35l-70.16-23.74A15.32,15.32,0,0,0,121,217.75Z"/><rect class="cls-4" x="167.19" y="234.43" width="34.8" height="10.37" transform="translate(-100.65 340.25) rotate(-71.83)"/><path class="cls-10" d="M132.67,199.65l53.48,17.6a3.48,3.48,0,0,1,2.21,4.39l-.06.16-11.17,34a3.46,3.46,0,0,1-4.37,2.23l-40.09-13.18v-7.32l38.94,12.81,9.06-27.58-48-15.79Zm-38.82-63,2.1-.47a20,20,0,0,1,15.16,2.67,20.84,20.84,0,0,1,9,12.66l11.67,47.83.85.28V207l-4.84-1.6h0a3.46,3.46,0,0,1-2.29-2.48L113.4,153.17a13.84,13.84,0,0,0-6-8.42A13.11,13.11,0,0,0,97.45,143l-2.09.47-.18,0-.26.06h0a13.49,13.49,0,0,0-8.17,5.84A13,13,0,0,0,84.94,159a.83.83,0,0,0,0,.15l0,.26h0l13.75,57.34a19.09,19.09,0,0,0,4.43,9,19.76,19.76,0,0,0,8.45,4.85l21,6.91v7.32l-23.16-7.62a26.4,26.4,0,0,1-11.33-6.68c-2.9-3.05-4.89-7-6.14-12.2L78.28,161v0h0l-.05-.26a2,2,0,0,1,0-.24,19.74,19.74,0,0,1,2.75-14.79,20.39,20.39,0,0,1,12.43-8.87h0l.26-.06Z"/><path class="cls-3" d="M94.41,140.11l2.29-.51a17,17,0,0,1,20.07,12.76l12.14,49.72,56.15,18.47-11.23,34.19-63.25-20.8c-8.34-2.75-13-7.17-15.17-16.38L81.65,160.18A16.77,16.77,0,0,1,94.41,140.11Z"/><path class="cls-3" d="M167.72,149.29c2.52,4.07,2.76,7.77.89,11.86l-6.84.37c-2.94-2.8-3.45-7.23-1.05-12Z"/><circle class="cls-6" cx="161.98" cy="89.88" r="49.65"/><path class="cls-9" d="M353.19,289.39h0a21.46,21.46,0,0,0-21.6,21.22l-.92,130.68a21.49,21.49,0,0,0,21.22,21.6h0a21.46,21.46,0,0,0,21.6-21.22L374.41,311A21.47,21.47,0,0,0,353.19,289.39Z"/><path class="cls-9" d="M390.59,253.48h0a21.42,21.42,0,0,1,24.92,17.2l29.43,167.54a21.53,21.53,0,0,1-17.21,24.92h0a21.43,21.43,0,0,1-24.92-17.2L373.39,278.4A21.53,21.53,0,0,1,390.59,253.48Z"/><rect class="cls-11" x="225.3" y="226.37" width="10.37" height="34.8" transform="translate(-35.59 39.43) rotate(-9.08)"/><path class="cls-5" d="M330.17,178.16l.37-1.88a20.64,20.64,0,0,0-.37-10.17v-3l1.24-3a3.49,3.49,0,0,0-1.24.93v-6.61a18.54,18.54,0,0,1,5.73,7.27,1.14,1.14,0,0,1,.1.19,26.7,26.7,0,0,1,1.36,15.71l-7.19,36.5Zm-7-19.76-2.19-.85a13.87,13.87,0,0,0-2.73-.75,15.53,15.53,0,0,0-8.67,1,9.58,9.58,0,0,0-5.27,5.09,8,8,0,0,0-.43,1.57l-8.73,51a3.47,3.47,0,0,1-3,2.86l-7.93,1.33v-7l4.48-.75L297,163.3a14.33,14.33,0,0,1,.81-2.9,16.39,16.39,0,0,1,9-9,22.5,22.5,0,0,1,12.62-1.5,21.16,21.16,0,0,1,4.06,1.13l2.19.85a19.29,19.29,0,0,1,4.54,2.51v6.61a3.46,3.46,0,0,0-.6,3.49l.6-1.44v3q-.24-.72-.54-1.41l-.06-.16a11.54,11.54,0,0,0-6.44-6.14Zm-38.94,90.7v7l21.36-3.57c4.79-.8,9.17-2.11,12.71-4.58a18.23,18.23,0,0,0,7.61-12.08l4.3-21.8v-36L319,234.58a11.57,11.57,0,0,1-4.75,7.7c-2.57,1.8-6,2.79-9.89,3.44Zm0-29.45-46.8,7.83,4.77,28.65,42-7v7l-44.31,7.41a3.47,3.47,0,0,1-4-2.85L230,225.2a3.49,3.49,0,0,1,2.86-4l51.37-8.59Z"/><path class="cls-9" d="M324.38,155.16l-2.19-.85c-8.62-3.35-20.21.46-21.77,9.57l-8.74,51-58.29,9.76,5.92,35.5,65.67-11c8.65-1.45,15.64-4.6,17.47-13.89L334,176.94C335.74,167.87,333,158.52,324.38,155.16Z"/><path class="cls-12" d="M407.23,136.19l-39,3.36v-7l38.38-3.31a20.09,20.09,0,0,1,21.66,18.25l11.75,136.24a20.11,20.11,0,0,1-18.24,21.66L368.28,310v-7l53-4.57a13.08,13.08,0,0,0,11.88-14.15L421.39,148.08a13.1,13.1,0,0,0-14.16-11.89Zm-39,3.36-53,4.57a13.1,13.1,0,0,0-11.89,14.16l11.75,136.24a13.08,13.08,0,0,0,14.16,11.88L368.28,303v7l-38.38,3.31a20.1,20.1,0,0,1-21.66-18.24L296.49,158.85a20.1,20.1,0,0,1,18.24-21.66l53.55-4.62Z"/><path class="cls-9" d="M407,132.73,315,140.66A16.58,16.58,0,0,0,300,158.56L311.71,294.8a16.6,16.6,0,0,0,17.9,15.07l91.93-7.93A16.6,16.6,0,0,0,436.61,284L424.86,147.79A16.6,16.6,0,0,0,407,132.73Z"/><polygon class="cls-13" points="354.68 145.17 375.56 305.9 358.48 311.45 343.72 308.65 342.72 145.29 354.68 145.17"/><path class="cls-9" d="M347.29,235.29l-.18-73.23,4.06-.12,8.8,72.68-5.87,9.77Z"/><path class="cls-14" d="M387.24,129.51l-20.47,36.76-17.14-19-27.07,17-7.93-27S387.46,132.11,387.24,129.51Z"/><path class="cls-9" d="M345.63,148.27c-2.16,4.27-2.09,8,.13,11.89l6.84-.22c2.69-3,2.82-7.5,0-12.08Z"/><path class="cls-9" d="M342.54,39.1a49.65,49.65,0,1,0,53.73,45.2A49.64,49.64,0,0,0,342.54,39.1Z"/><path class="cls-9" d="M495.31,268.8l10.39-5.22a4.88,4.88,0,0,1,6.53,2.16l6.34,12.59,23.5-11.81a13,13,0,0,1,17.35,5.74l24.39,48.51a13,13,0,0,1-5.74,17.35l-82.76,41.61V290l18-9-3.69-7.34a4.84,4.84,0,0,0-6.47-2.14l-7.81,3.93Zm-42.55,42.62,23.5-11.82L469.93,287a4.88,4.88,0,0,1,2.16-6.53l23.22-11.68v6.64L480,283.13a4.84,4.84,0,0,0-2.14,6.47l3.69,7.34L495.31,290v89.71L488.75,383a13,13,0,0,1-17.35-5.74L447,328.77A13,13,0,0,1,452.76,311.42Z"/><path class="cls-9" d="M446.33,195.62h0a15.32,15.32,0,0,1,20.95,5.26l38,63.57A15.32,15.32,0,0,1,500,285.4h0a15.33,15.33,0,0,1-20.95-5.27l-38-63.57A15.31,15.31,0,0,1,446.33,195.62Z"/><rect class="cls-4" x="463.74" y="247.99" width="34.8" height="10.37" transform="translate(-61.98 277.94) rotate(-30.36)"/><path class="cls-12" d="M459.92,260.32,441.7,228.46v-14l22.53,39.4,26.15-15-30.31-53a13.08,13.08,0,0,0-4.08-4.46h0a3.11,3.11,0,0,1-.52-.44L441.7,166.66v-10l18.53,19.27a21.2,21.2,0,0,1,5.88,6.52l32,56a3.47,3.47,0,0,1-1.3,4.74l-32.19,18.41A3.46,3.46,0,0,1,459.92,260.32ZM441.7,228.46l-11.79-20.61-.17-.16c-.21-.2-.42-.4-.63-.62L392,168.45a21.05,21.05,0,0,1-5.88-14.8,20.64,20.64,0,0,1,6.17-14.59l1.73-1.7h0l.13-.13h0a20.82,20.82,0,0,1,14.62-5.81,20.49,20.49,0,0,1,14.52,6.09v0h0l.13.13h0l18.28,19v10l-23.28-24.2h0l-.11-.11a13.55,13.55,0,0,0-9.59-4,13.94,13.94,0,0,0-9.77,3.88h0l-.12.12L397.12,144a13.74,13.74,0,0,0-4.11,9.71,14.08,14.08,0,0,0,4,9.92l37.15,38.63.4.4.27.25a3.42,3.42,0,0,1,.89,1l6,10.51Z"/><path class="cls-9" d="M462.94,258.6l-30.27-52.94a12.44,12.44,0,0,1-1.06-1L394.47,166a17.45,17.45,0,0,1,.21-24.51l1.73-1.69a17.32,17.32,0,0,1,24.51.22L458,178.58a17.19,17.19,0,0,1,5.11,5.59l32,56Z"/><path class="cls-6" d="M461.37,3.37a32.4,32.4,0,0,0-32.23,32.57,34.2,34.2,0,0,0,.26,4.2L408.13,54.05l25.49-1.53a32.17,32.17,0,0,0,60-16.58A32.39,32.39,0,0,0,461.37,3.37Z"/><path class="cls-15" d="M461.6,1c-17.66,0-32,14.58-32,32.57a32.44,32.44,0,0,0,.27,4.2l-21.11,13.9,25.3-1.52a31.87,31.87,0,0,0,27.52,16c17.67,0,32-14.58,32-32.56S479.27,1,461.6,1Z"/><text class="cls-16" transform="translate(440.87 37.81)">machhu</text><path class="cls-11" d="M48.12,7.45A32.4,32.4,0,0,1,80.35,40a34.32,34.32,0,0,1-.26,4.2l21.27,13.9L75.87,56.6A32.18,32.18,0,0,1,15.89,40,32.4,32.4,0,0,1,48.12,7.45Z"/><path class="cls-15" d="M47.89,5.08c17.66,0,32,14.58,32,32.56a32.33,32.33,0,0,1-.27,4.2l21.11,13.91-25.3-1.53a31.85,31.85,0,0,1-27.52,16c-17.67,0-32-14.58-32-32.57S30.22,5.08,47.89,5.08Z"/><text class="cls-16" transform="translate(32.62 41.89)">Clie<tspan class="cls-17" x="18.87" y="0">n</tspan><tspan x="25.4" y="0">t</tspan></text></g></g></svg>