<svg xmlns="http://www.w3.org/2000/svg" xmlns:xlink="http://www.w3.org/1999/xlink" viewBox="0 0 294.3 227.44"><defs><style>.cls-1{fill:none;}.cls-2{fill:#f65058;}.cls-3{fill:#00559c;}.cls-4{fill:#24126a;}.cls-5{fill:url(#Áåçûìÿííûé_ãðàäèåíò_37);}.cls-6{fill:url(#Áåçûìÿííûé_ãðàäèåíò_37-2);}.cls-7{fill:url(#Áåçûìÿííûé_ãðàäèåíò_37-3);}.cls-8{fill:url(#Áåçûìÿííûé_ãðàäèåíò_37-4);}.cls-9{fill:url(#Áåçûìÿííûé_ãðàäèåíò_37-5);}.cls-10{fill:url(#Áåçûìÿííûé_ãðàäèåíò_37-6);}.cls-11{fill:url(#Áåçûìÿííûé_ãðàäèåíò_37-7);}.cls-12{fill:url(#Áåçûìÿííûé_ãðàäèåíò_37-8);}.cls-13{fill:url(#Áåçûìÿííûé_ãðàäèåíò_37-9);}.cls-14{fill:url(#Áåçûìÿííûé_ãðàäèåíò_37-10);}.cls-15{fill:#515151;}.cls-16{fill:url(#Áåçûìÿííûé_ãðàäèåíò_100);}.cls-17,.cls-34{fill:#2d2d2d;}.cls-18{fill:#160a5b;}.cls-19{fill:#fcd1c5;}.cls-20{fill:#f0f6ff;}.cls-21{fill:#c4ccd6;}.cls-22{fill:#606060;}.cls-23{fill:#e2b1a6;}.cls-24{fill:#aa8383;}.cls-25{fill:#936d6d;}.cls-26{fill:#263649;}.cls-27{clip-path:url(#clip-path);}.cls-28{fill:#334659;}.cls-29{fill:url(#Áåçûìÿííûé_ãðàäèåíò_37-11);}.cls-30{opacity:0.5;fill:url(#Áåçûìÿííûé_ãðàäèåíò_15);}.cls-31{fill:url(#Áåçûìÿííûé_ãðàäèåíò_37-12);}.cls-32{fill:#fff;}.cls-33{fill:#180d5b;opacity:0.3;}.cls-34{opacity:0.63;}.cls-35{fill:url(#Áåçûìÿííûé_ãðàäèåíò_24);}.cls-36{fill:url(#Áåçûìÿííûé_ãðàäèåíò_2);}.cls-37{fill:#adb1f2;}.cls-38{fill:#9198db;}.cls-39{fill:url(#Áåçûìÿííûé_ãðàäèåíò_2-2);}.cls-40{opacity:0.6;}</style><linearGradient id="Áåçûìÿííûé_ãðàäèåíò_37" x1="184.41" y1="145.03" x2="191.29" y2="145.03" gradientTransform="matrix(-1, 0, 0, 1, 294.3, 0)" gradientUnits="userSpaceOnUse"><stop offset="0" stop-color="#e9e9fd"/><stop offset="0.36" stop-color="#d3d2f9"/><stop offset="0.71" stop-color="#c5c4f7"/><stop offset="1" stop-color="#c0bff6"/></linearGradient><linearGradient id="Áåçûìÿííûé_ãðàäèåíò_37-2" x1="205.67" y1="121.8" x2="212.55" y2="121.8" xlink:href="#Áåçûìÿííûé_ãðàäèåíò_37"/><linearGradient id="Áåçûìÿííûé_ãðàäèåíò_37-3" x1="225.35" y1="134.69" x2="163.05" y2="149.9" xlink:href="#Áåçûìÿííûé_ãðàäèåíò_37"/><linearGradient id="Áåçûìÿííûé_ãðàäèåíò_37-4" x1="225.82" y1="129.13" x2="294.79" y2="129.13" xlink:href="#Áåçûìÿííûé_ãðàäèåíò_37"/><linearGradient id="Áåçûìÿííûé_ãðàäèåíò_37-5" x1="218.04" y1="127.64" x2="201.92" y2="112.06" xlink:href="#Áåçûìÿííûé_ãðàäèåíò_37"/><linearGradient id="Áåçûìÿííûé_ãðàäèåíò_37-6" x1="226.66" y1="143.22" x2="286.54" y2="143.22" xlink:href="#Áåçûìÿííûé_ãðàäèåíò_37"/><linearGradient id="Áåçûìÿííûé_ãðàäèåíò_37-7" x1="218.28" y1="149.96" x2="229.56" y2="149.96" xlink:href="#Áåçûìÿííûé_ãðàäèåíò_37"/><linearGradient id="Áåçûìÿííûé_ãðàäèåíò_37-8" x1="221.93" y1="138.75" x2="300.86" y2="138.75" xlink:href="#Áåçûìÿííûé_ãðàäèåíò_37"/><linearGradient id="Áåçûìÿííûé_ãðàäèåíò_37-9" x1="224.31" y1="118.36" x2="229.83" y2="118.36" xlink:href="#Áåçûìÿííûé_ãðàäèåíò_37"/><linearGradient id="Áåçûìÿííûé_ãðàäèåíò_37-10" x1="182.53" y1="68.6" x2="212.4" y2="68.6" xlink:href="#Áåçûìÿííûé_ãðàäèåíò_37"/><linearGradient id="Áåçûìÿííûé_ãðàäèåíò_100" x1="247.63" y1="19.52" x2="219.28" y2="92.48" gradientTransform="matrix(-1, 0, 0, 1, 294.3, 0)" gradientUnits="userSpaceOnUse"><stop offset="0.35" stop-color="#bcbeff"/><stop offset="0.44" stop-color="#b5b8fc"/><stop offset="0.57" stop-color="#a3a7f5"/><stop offset="0.7" stop-color="#898feb"/><stop offset="0.86" stop-color="#6069db"/><stop offset="0.89" stop-color="#5761d7"/></linearGradient><clipPath id="clip-path"><path class="cls-1" d="M59.72,105.12l.58-.34c2.14-1.24,1.87-3.4-.6-4.82L42.26,89.89c-2.47-1.43-6.21-1.58-8.36-.35l-.58.34c-2.14,1.23-1.87,3.39.6,4.82l17.44,10.07C53.83,106.2,57.58,106.35,59.72,105.12Z"/></clipPath><linearGradient id="Áåçûìÿííûé_ãðàäèåíò_37-11" x1="232.56" y1="97.33" x2="262.43" y2="97.33" xlink:href="#Áåçûìÿííûé_ãðàäèåíò_37"/><linearGradient id="Áåçûìÿííûé_ãðàäèåíò_15" x1="77.77" y1="104.27" x2="281.22" y2="104.27" gradientTransform="matrix(-1, 0, 0, 1, 294.3, 0)" gradientUnits="userSpaceOnUse"><stop offset="0" stop-color="#42e8e0"/><stop offset="0.15" stop-color="#43e3e0"/><stop offset="0.33" stop-color="#45d5df"/><stop offset="0.52" stop-color="#49bddd"/><stop offset="0.72" stop-color="#4e9cdb"/><stop offset="0.93" stop-color="#5472d8"/><stop offset="1" stop-color="#5761d7"/></linearGradient><linearGradient id="Áåçûìÿííûé_ãðàäèåíò_37-12" x1="77.77" y1="99.16" x2="281.22" y2="99.16" xlink:href="#Áåçûìÿííûé_ãðàäèåíò_37"/><linearGradient id="Áåçûìÿííûé_ãðàäèåíò_24" x1="143.34" y1="100.95" x2="228.23" y2="100.95" gradientTransform="translate(-63.75)" gradientUnits="userSpaceOnUse"><stop offset="0" stop-color="#5761d7"/><stop offset="0.18" stop-color="#5c66d9"/><stop offset="0.39" stop-color="#6a73df"/><stop offset="0.61" stop-color="#8289e8"/><stop offset="0.85" stop-color="#a3a7f5"/><stop offset="1" stop-color="#bcbeff"/></linearGradient><linearGradient id="Áåçûìÿííûé_ãðàäèåíò_2" x1="171.86" y1="98.12" x2="256.8" y2="98.12" gradientTransform="translate(-63.75)" gradientUnits="userSpaceOnUse"><stop offset="0" stop-color="#c0bff6"/><stop offset="0.29" stop-color="#c5c4f7"/><stop offset="0.64" stop-color="#d3d2f9"/><stop offset="1" stop-color="#e9e9fd"/></linearGradient><linearGradient id="Áåçûìÿííûé_ãðàäèåíò_2-2" x1="166.35" y1="91.58" x2="188.09" y2="91.58" xlink:href="#Áåçûìÿííûé_ãðàäèåíò_2"/></defs><title>digital</title><g id="Layer_2" data-name="Layer 2"><g id="Ñëîé_1" data-name="Ñëîé 1"><path class="cls-2" d="M73.82,197.79,2.1,156.16a4.23,4.23,0,0,1,0-7.31L133.25,73.16l.1-.06L210.65,118a4.22,4.22,0,0,1,0,7.3L85,197.81a11.13,11.13,0,0,1-11.16,0Zm136.61-72.87a3.8,3.8,0,0,0,0-6.58L133.35,73.58l-131,75.63a3.8,3.8,0,0,0,0,6.58L74,197.43a10.73,10.73,0,0,0,10.74,0Z"/><path class="cls-3" d="M70,163.68a3.44,3.44,0,1,0,3.44-3.44A3.44,3.44,0,0,0,70,163.68Z"/><path class="cls-4" d="M36.11,125.25a3.44,3.44,0,1,0,3.44-3.44A3.44,3.44,0,0,0,36.11,125.25Z"/><path class="cls-3" d="M28.71,151.51a3.44,3.44,0,1,0,3.44-3.44A3.44,3.44,0,0,0,28.71,151.51Z"/><path class="cls-5" d="M103,145a3.44,3.44,0,1,0,3.44-3.44A3.44,3.44,0,0,0,103,145Z"/><path class="cls-6" d="M81.76,121.8a3.44,3.44,0,1,0,3.44-3.44A3.44,3.44,0,0,0,81.76,121.8Z"/><path class="cls-7" d="M68.53,134.53l37.82,7.29a3.4,3.4,0,0,1,.46.07l0-.25,1.81-.46v2.14h0a1.15,1.15,0,0,1,0,.26c-.23.84-1.59,1.41-3,1.28L67.7,137.57Z"/><path class="cls-8" d="M36.87,121.56l1.15,1a4.29,4.29,0,0,1,3.54.27l26.93,11.72-3.77,2.18L37.79,125a1.5,1.5,0,0,1-.91-1.27h0Z"/><path class="cls-9" d="M82.65,119a3.77,3.77,0,0,1,3.58-.68h0a3.54,3.54,0,0,1,.43.16,1.66,1.66,0,0,1,.24-.3,5,5,0,0,1,.79-.57v2.14h0a1.07,1.07,0,0,1-.28.65L70,136.21l-4.75-1.4Z"/><path class="cls-10" d="M29.66,147.88l.64.22.37.76a3,3,0,0,1,.45-.16l34.11-13.86,2.42,2.74L33.54,151.44a3.83,3.83,0,0,1-3.59-.67h0a1,1,0,0,1-.27-.72h0Z"/><path class="cls-11" d="M70,136.24l5.6,24L76,160v2.21h0c-.08.71-1,1.31-2.24,1.43-1.45.13-2.82-.44-3-1.28l-6-25.66Z"/><path class="cls-12" d="M30,148.63a3.77,3.77,0,0,0,3.59.67l31.64-12.85,5.55,23.79c.23.84,1.6,1.41,3,1.28s2.45-.92,2.22-1.76L70.44,136l35.07,6.76c1.46.13,2.82-.44,3-1.28s-.76-1.63-2.21-1.76l-35.07-6.76L87.4,118.21c.66-.76.14-1.69-1.17-2.07h0a3.75,3.75,0,0,0-3.58.67L66.52,131.53l-25-10.87a4.25,4.25,0,0,0-3.78-.16l-.26.16c-1,.56-.85,1.53.27,2.18l25,10.86L31.12,146.56C29.81,146.94,29.29,147.87,30,148.63Zm37.11-15.42,1.16.34-.2.74-1.29.11-.59-.66Z"/><path class="cls-13" d="M67.24,135.71h0A2.76,2.76,0,0,0,70,133V101H64.48V133A2.76,2.76,0,0,0,67.24,135.71Z"/><path class="cls-3" d="M81.91,63.07h0a2.58,2.58,0,0,1,1.43-1.92l.58-.33c2.15-1.24,5.89-1.08,8.36.34l17.44,10.07a3.49,3.49,0,0,1,2,2.64h0v3h0a2.49,2.49,0,0,1-1.44,2.1l-.58.33c-2.14,1.24-5.89,1.08-8.36-.34L84,68.94a3.58,3.58,0,0,1-2-2.56h0Z"/><path class="cls-14" d="M109.75,76.39l.58-.33c2.14-1.24,1.87-3.4-.6-4.83L92.29,61.16c-2.47-1.42-6.21-1.58-8.36-.34l-.58.33c-2.14,1.24-1.87,3.4.6,4.83L101.39,76C103.86,77.47,107.61,77.63,109.75,76.39Z"/><path class="cls-15" d="M72.83,90.44l36.52,21.06c1.81,1,3.28-.06,3.28-2.47h0a7.83,7.83,0,0,0-3.28-6.26L67.52,78.63v1.65C67.52,84.2,69.9,88.74,72.83,90.44Z"/><path class="cls-16" d="M70.14.44h0a4.74,4.74,0,0,1,4.69.44l1.09.63c4,2.33,7.31,8.58,7.31,14V87.71l-9.7-5.61v2.3l11.64,9.48,26.44,17.73-37.16,21L53.08,116.17,40.91,105.78,33.33,21.25Z"/><path class="cls-17" d="M97.36,119.66a4.52,4.52,0,0,0-1-4.57c-2-2-12.23-6.27-13-6.74S79,105.17,79,105.17l-1.13-2.52s20.86,2,21.14,2.35,9.76,8.84,9.48,9.21S102,116.1,102,116.1l-1.21,1.65Z"/><path class="cls-3" d="M37.83,21.78l1.09.63c4,2.33,7.32,8.59,7.32,14V108.6l26.12,15.07a7.86,7.86,0,0,1,3.28,6.26h0c0,2.42-1.47,3.53-3.28,2.48L35.84,111.35c-2.94-1.7-5.32-6.25-5.32-10.16V27.31C30.52,21.93,33.8,19.45,37.83,21.78Z"/><path class="cls-3" d="M107.25,135.31s5.38,3.45,7.2,5.48,5.42,6.2,3.94,8.19-6.49,3.09-11.88-1.87-3.85-5.25-8.43-7.7-5.85-5.13-5.3-6.66,2.82-4.23,4.06-3.65S107.25,135.31,107.25,135.31Z"/><path class="cls-3" d="M81.08,149.81A55.65,55.65,0,0,0,84,155.47c1,1.41,5.83,9.54,3.31,11.41s-7.3,1.35-11.08-2.75S71.62,155,70.68,153.4s-3.25-6-2.15-8.54,1.35-3,1.35-3Z"/><path class="cls-4" d="M100.62,89.27s16,15.78,18.6,23.7a8.78,8.78,0,0,1-2,7.64c-3.09,3.36-9.65,14.33-9.65,14.33s-4.9,5.92-11.22,1.19c0,0-2.87-4.57-1.11-7.61s6.44-12.74,6.44-12.74-10.26-7.06-15.32-8.84a69.43,69.43,0,0,1-7.76-3.16,24.12,24.12,0,0,0,4.63,9.43c3.7,4.66,9.9,12.15,7.83,17.36a43.6,43.6,0,0,1-5.2,9.81c-1.94,3-3.77,9.26-5.42,9.91s-9.3,1.4-10.54-3.58,2.6-14.66,4.34-17.93c0,0-20.68-23.86-22.65-26.48S94.22,85.23,100.62,89.27Z"/><path class="cls-18" d="M95.26,128.52c1.76-3,6.44-12.74,6.44-12.74s-10.26-7.06-15.32-8.84a69.43,69.43,0,0,1-7.76-3.16,52.22,52.22,0,0,1-5.51-10.53c11.66-3.42,24.32-6,27.51-4C99.49,92.07,93.54,92,93.54,92s-2.22,5.41-3.69,6.1-5-.07-5-.07a13.22,13.22,0,0,0,3.08,2.71c2.52,1.81,18.25,14.7,18.25,14.7s-.89.51-5.08,8.08-4.73,12.57-4.73,12.57S93.5,131.56,95.26,128.52Z"/><path class="cls-18" d="M59.92,97.64c9.24-.88,20-1,17.58,3.9a15.51,15.51,0,0,1-12.37,8.6c.05,3,12.73,17.64,12.73,17.64l-3,5.74c-3,5.75-2.59,16.22-2.59,16.22a4.63,4.63,0,0,1-2.4-3c-1.24-5,2.6-14.66,4.34-17.93,0,0-20.68-23.86-22.65-26.48C51,101.53,54.53,99.71,59.92,97.64Z"/><path class="cls-2" d="M116.78,47.22l-2.46-1.91S101.07,38,96.65,35.57A30.1,30.1,0,0,1,90,30.12,9.26,9.26,0,0,0,83.4,27.3l-23.22-.11a51.41,51.41,0,0,1-3.62,5.19c-.67.62-7,5.9-11.49,10.25A19.64,19.64,0,0,0,39.8,51.4C37.21,60.52,37.25,78.9,36.86,92a39.77,39.77,0,0,0,5.58,1.47c4,.85,3.46.31,3.46.31s5.93,13.33,14,14.62S78.74,106,80.67,93.35c0,0,15.67-2.35,19.92-4.1a.65.65,0,0,0,.28-1C99,85.75,91.9,76,91.23,69.65c-.78-7.34-.54-18,0-20.92,0,0,11.82,4.45,15.59,5.24,0,0,14.39,15.82,20.4,20.12,0,0-2.06-3.24,2.08-5.44Z"/><path class="cls-4" d="M42.44,93.51c-.61-.12-1.15-.25-1.64-.36l.83-1.64,21.8-2.31,12.74.66L80.55,94a21,21,0,0,1-1,3.74s-5.41.78-7.92.24-21.9,2.32-21.94,2.33a45,45,0,0,1-3.73-6.47C45.94,94,45.7,94.21,42.44,93.51Z"/><path class="cls-19" d="M71.86,85.9a.2.2,0,0,1,.18-.14c1,0,7.86-.23,10.44-1.12a12.52,12.52,0,0,1,5.9-.62c.16.16,4.81,2.13,5.08,2.94s.7,3.18.08,4.09a12.72,12.72,0,0,0-.91,1.52l-.48.05a15.07,15.07,0,0,1-1,1.67,2.65,2.65,0,0,0-.38.62c-.3.64-.81,1.68-1,1.71a11.18,11.18,0,0,1-2.11.22c-.3-.08-.57-1-.45-1.39a.16.16,0,0,0-.13-.23,20,20,0,0,0-4.95-.11c-3,.28-7.32-1.71-7.71-1.89h-.06l-4.27-.39a.19.19,0,0,1-.17-.25Z"/><path class="cls-20" d="M77,40.86S80.65,54.27,76.8,68c0,0-14-26.1-15.51-30.34s-2.07-7.24-.65-8.76S74.7,35.28,74.7,35.28Z"/><path class="cls-21" d="M73.41,61.88s-2.67-8.15-2.2-10.79a31.36,31.36,0,0,1,1.12-4.51l-2.4-2.22-1.06,2.2S63.58,42.68,63.23,42a43.29,43.29,0,0,0,5.6,3.36,4,4,0,0,1,1.47-1.4c.84-.35,2.92,2.5,2.92,2.5l.39,5L75.7,62.9,75,64.62Z"/><path class="cls-22" d="M75.75,41s.5,5.27.07,5.64a3.47,3.47,0,0,1-2.83,0,20,20,0,0,1-2.69-2.72S72.66,39.73,75.75,41Z"/><path class="cls-22" d="M72.89,45.69a15.08,15.08,0,0,0-.06,8.71,72.44,72.44,0,0,1,1.89,9.75L76.8,68a40.3,40.3,0,0,0,1.74-15.28,13.87,13.87,0,0,0-3-6.49Z"/><path class="cls-19" d="M83.55,19.49s.64,3.26.41,3.87-1.06,1-.86,2.31A23.79,23.79,0,0,1,82.19,32s.28,1.35-.1,1.77-.87.41-1.23,1-.48,3.92-1.81,5a4.92,4.92,0,0,1-4,1.09A6.5,6.5,0,0,1,73.28,40l-2,.83S60.87,37.9,61.19,30.59v-.78a8.11,8.11,0,0,1-1-1.71c-.22-.68-1.94-3.71-1.07-5,0,0-4-15.91,8.4-16.87S81.89,14,83.55,19.49Z"/><path class="cls-23" d="M61.19,30.59V30.5a2.31,2.31,0,0,1,1.43-.44c1.42.25,1.1-2.7,1.1-2.7a28.41,28.41,0,0,1,1,4.31c.72,3.77,8.57,8.34,8.57,8.34l-2,.83S60.87,37.9,61.19,30.59Z"/><path class="cls-24" d="M83.49,12.58c1.22,2.58,1.8,5.68-.75,7.76,0,0-2.13.59-6.19-1.3a9.51,9.51,0,0,0-7-.21,1.65,1.65,0,0,0-1.12,1.62l.06,2.26a1.44,1.44,0,0,1-.88,1.36l-1.88.8-.38,2.21a1.06,1.06,0,0,1-1.4.82l-.48-.17s-.28-4.9-4.32-4.66c0,0-3.28-7.08.08-13.55s12.55-6,14.51-5.28A12.8,12.8,0,0,1,77.47,6,15.72,15.72,0,0,1,83.49,12.58Z"/><path class="cls-4" d="M50.4,62.51s1.88,13.88,2.66,17.8l6.08,3.21-10.8-.66Z"/><path class="cls-25" d="M59.18,23.07a18.22,18.22,0,0,1-1.37-5.67,14.67,14.67,0,0,0,10.65,3.05l.06,2.26a1.44,1.44,0,0,1-.88,1.36l-1.88.8-.38,2.21a1.06,1.06,0,0,1-1.4.82l-.48-.17S63.22,22.83,59.18,23.07Z"/><path class="cls-4" d="M56.49,35.27s3.22,11.06,3.89,13.19L63,48.19l-.47,3.5,14,18.39L61,52.3l.62-3.12-2.35.25Z"/><path class="cls-26" d="M70.19,95.39s-32.73-1.07-33.57-1.66-1-9-.9-13.9c.05-3.42,0-16.82,2.93-26.21-2.29,8-1.08,36.09,0,37.52S70.78,93.4,70.78,93.4h0C70.45,94.57,70.19,95.39,70.19,95.39Z"/><path class="cls-19" d="M134.51,69.21s.12.82,1.54,1.63,5.07,2.61,5.66,3.12A35.55,35.55,0,0,1,145,77.09c.08.3.87,2.92.86,3.07s-.26,1.37-.26,1.37l.81,3.85s1,1.5-.08,1.91a1.41,1.41,0,0,1-1.77-.93,18.69,18.69,0,0,1-2.93-1.76c-1.24-1-6.21-5-7-4.71s-.07,1.67.34,1.92,3,2.82,1.93,4.61-1.82-1-2.55-1.58S132,82,131,81.75s-2.72-3.87-2.95-5.48a6.24,6.24,0,0,0-1.79-3.17c-.41-.52.89-4.52.89-4.52l4.92-1.53,1.72,1.12Z"/><g class="cls-27"><path class="cls-28" d="M41.07,48.1c1-1.62,1.5-.42,2.88.92a21.39,21.39,0,0,1,5.41,8.16c2.2,6.45,1.41,22.57.67,24.88,0,0,20.5,3.36,21.92,3.3s-1.76,10-1.76,10-32.73-1.07-33.57-1.66-1-9-.9-13.9C35.78,75.65,35.71,56.57,41.07,48.1Z"/><path class="cls-26" d="M70.19,95.39s-32.73-1.07-33.57-1.66-1-9-.9-13.9c.05-3.42,0-16.82,2.93-26.21-2.29,8-1.08,36.09,0,37.52S70.78,93.4,70.78,93.4h0C70.45,94.57,70.19,95.39,70.19,95.39Z"/></g><path class="cls-29" d="M59.72,105.12l.58-.34c2.14-1.24,1.87-3.4-.6-4.82L42.26,89.89c-2.47-1.43-6.21-1.58-8.36-.35l-.58.34c-2.14,1.23-1.87,3.39.6,4.82l17.44,10.07C53.83,106.2,57.58,106.35,59.72,105.12Z"/><polygon class="cls-30" points="70.39 162.99 216.54 78.63 159.24 45.55 13.09 129.91 70.39 162.99"/><polygon class="cls-3" points="216.54 73.52 216.54 78.63 70.39 162.99 13.09 129.91 13.09 124.8 70.39 157.88 216.54 73.52"/><polygon class="cls-31" points="70.39 157.88 216.54 73.52 159.24 40.44 13.09 124.8 70.39 157.88"/><polygon class="cls-32" points="70.39 157.36 216.08 73.26 216.54 73.52 70.39 157.88 13.09 124.8 13.54 124.53 70.39 157.36"/><path class="cls-33" d="M87.78,96.24s-4.1,1.46-7.23.94-18.21-.82-18.21-.82L64.71,95,70,91.31l13.11.89L88.15,94Z"/><path class="cls-19" d="M71.86,85.9a.2.2,0,0,1,.18-.14c1,0,7.86-.23,10.44-1.12a12.52,12.52,0,0,1,5.9-.62c.16.16,4.81,2.13,5.08,2.94s.7,3.18.08,4.09a12.72,12.72,0,0,0-.91,1.52l-.48.05a15.07,15.07,0,0,1-1,1.67,2.65,2.65,0,0,0-.38.62c-.3.64-.81,1.68-1,1.71a11.18,11.18,0,0,1-2.11.22c-.3-.08-.57-1-.45-1.39a.16.16,0,0,0-.13-.23,20,20,0,0,0-4.95-.11c-3,.28-7.32-1.71-7.71-1.89h-.06l-4.27-.39a.19.19,0,0,1-.17-.25Z"/><path class="cls-2" d="M41.07,48.1c1-1.62,1.5-.42,2.88.92a21.39,21.39,0,0,1,5.41,8.16c2.2,6.45,1.41,22.57.67,24.88,0,0,20.5,3.36,21.92,3.3s-1.76,10-1.76,10-32.73-1.07-33.57-1.66-1-9-.9-13.9C35.78,75.65,35.71,56.57,41.07,48.1Z"/><path class="cls-4" d="M70.19,95.39s-32.73-1.07-33.57-1.66-1-9-.9-13.9c.05-3.42,0-16.82,2.93-26.21-2.29,8-1.08,36.09,0,37.52S70.78,93.4,70.78,93.4h0C70.45,94.57,70.19,95.39,70.19,95.39Z"/><path class="cls-33" d="M128.86,78.63s-11.7-9.14-13.37-10a11.32,11.32,0,0,1-2.38-1.55L117,64.79l6.62,2.72L132,75.78l12.84,9.11V87s-10.6-4.55-11.78-5.32S128.86,78.63,128.86,78.63Z"/><path class="cls-34" d="M135.84,86.91a23.72,23.72,0,0,0-4.1-3c-1.61-.74-4.17-2.72-4.48-4.23s-3-4.85-3-4.85l4.26,2.46,6.18,3.57,10.28,6a1.76,1.76,0,0,1-1.93.28c-1.3-.44-3.74-2-4.88-2.14s-3-.49-3-.49Z"/><path class="cls-19" d="M134.51,69.21s.12.82,1.54,1.63,5.07,2.61,5.66,3.12A35.55,35.55,0,0,1,145,77.09c.08.3.87,2.92.86,3.07s-.26,1.37-.26,1.37l.81,3.85s1,1.5-.08,1.91a1.41,1.41,0,0,1-1.77-.93,18.69,18.69,0,0,1-2.93-1.76c-1.24-1-6.21-5-7-4.71s-.07,1.67.34,1.92,3,2.82,1.93,4.61-1.82-1-2.55-1.58S132,82,131,81.75s-2.72-3.87-2.95-5.48a6.24,6.24,0,0,0-1.79-3.17c-.41-.52.89-4.52.89-4.52l4.92-1.53,1.72,1.12Z"/><path class="cls-2" d="M90.11,42.21a64.4,64.4,0,0,0-1.07-13,10,10,0,0,1,1,.87,30.1,30.1,0,0,0,6.63,5.45c4.42,2.38,17.67,9.74,17.67,9.74l2.46,1.91c7.78,6.1,16.46,19.36,17.73,22-.61-.81-2.18-2.15-5.17-.56-4.14,2.2-2.17,5.5-2.17,5.5-6-4.3-20.31-20.18-20.31-20.18-3.53-.74-14.13-4.69-15.45-5.19A17.47,17.47,0,0,1,90.11,42.21Z"/><path class="cls-35" d="M164.48,92.17l-2.84,1.48L133.17,77.21a2.08,2.08,0,0,0-1.86.08L82.2,105.64c-.47-.26-2.61-1.29-2.61-1.29l1,2.71h0a.6.6,0,0,0,.29.33l30,17.31a2.08,2.08,0,0,0,1.86-.08L163,95.6a.85.85,0,0,0,.42-.45h0Z"/><path class="cls-36" d="M164,92.63l-51.5,29.74a2.12,2.12,0,0,1-1.91.08L79.9,104.7c-.49-.28-.43-.77.13-1.1l51.51-29.73a2.1,2.1,0,0,1,1.9-.08l30.74,17.74C164.67,91.82,164.6,92.31,164,92.63Z"/><path class="cls-32" d="M164,92.34l-51.5,29.73a2.12,2.12,0,0,1-1.91.08L79.9,104.41a.62.62,0,0,1-.3-.33.5.5,0,0,0,.3.62l30.73,17.75a2.12,2.12,0,0,0,1.91-.08L164,92.63c.38-.21.53-.51.44-.76A1,1,0,0,1,164,92.34Z"/><path class="cls-37" d="M97.22,108.74,140,84a.91.91,0,0,1,.93,0l15.24,8.82a.33.33,0,0,1,0,.57l-42.78,24.69a.89.89,0,0,1-.92,0l-15.27-8.8A.34.34,0,0,1,97.22,108.74Z"/><path class="cls-38" d="M97.22,109.31l.16.09L140,84.77a1,1,0,0,1,.93,0L156,93.5l.16-.08a.33.33,0,0,0,0-.57L141,84a.91.91,0,0,0-.93,0l-42.8,24.71A.34.34,0,0,0,97.22,109.31Z"/><polygon class="cls-3" points="142.1 86.26 102.67 109.02 100.72 108.24 140.44 85.31 142.1 86.26"/><polygon class="cls-3" points="146.15 88.6 111.28 108.73 109.63 107.78 144.5 87.65 146.15 88.6"/><polygon class="cls-3" points="148.79 90.13 107.73 113.83 106.08 112.88 147.14 89.17 148.79 90.13"/><polygon class="cls-3" points="151.43 91.65 110.37 115.35 108.72 114.4 149.78 90.69 151.43 91.65"/><polygon class="cls-3" points="154.07 93.17 113.01 116.88 111.36 115.92 152.41 92.22 154.07 93.17"/><polygon class="cls-3" points="102.67 109.02 101.02 109.98 99.37 109.02 101.02 108.07 102.67 109.02"/><polygon class="cls-3" points="113.28 107.58 105.07 112.32 103.42 111.36 111.69 106.59 113.28 107.58"/><path class="cls-39" d="M112.46,97.66,124,91a.5.5,0,0,0,0-.94l-7.89-4.56a1.8,1.8,0,0,0-1.63,0l-11.54,6.67a.5.5,0,0,0,0,.94l7.89,4.55A1.8,1.8,0,0,0,112.46,97.66Z"/><path class="cls-38" d="M102.94,92.55l11.54-6.66a1.8,1.8,0,0,1,1.63,0L124,90.44a.78.78,0,0,1,.29.28c.12-.22,0-.48-.29-.66l-7.89-4.56a1.8,1.8,0,0,0-1.63,0l-11.54,6.67c-.31.18-.41.43-.29.66A.78.78,0,0,1,102.94,92.55Z"/><path class="cls-3" d="M164.54,93.19l-52,30.05c-.4.23-.74.09-.81-.32L105.13,84a1.45,1.45,0,0,1,.67-1.32l52-30c.41-.23.75-.1.82.32l6.56,38.93A1.44,1.44,0,0,1,164.54,93.19Z"/><g class="cls-40"><polygon class="cls-2" points="169.38 166.24 176.32 162.23 174.81 161.36 167.87 165.37 169.38 166.24"/><polygon class="cls-2" points="163.46 169.66 166.93 167.66 165.42 166.78 161.95 168.79 163.46 169.66"/><polygon class="cls-2" points="170.88 169.47 173.84 167.77 172.33 166.89 169.37 168.6 170.88 169.47"/><polygon class="cls-2" points="165.93 172.33 169.4 170.33 167.89 169.46 164.42 171.46 165.93 172.33"/><polygon class="cls-2" points="163.75 177.69 177.39 169.81 175.88 168.94 162.24 176.81 163.75 177.69"/><polygon class="cls-2" points="202.67 193.27 216.31 185.4 214.8 184.52 201.16 192.4 202.67 193.27"/><polygon class="cls-2" points="197.43 196.3 200.9 194.3 199.38 193.42 195.91 195.43 197.43 196.3"/><polygon class="cls-2" points="177.98 173.57 180.94 171.86 179.43 170.99 176.47 172.7 177.98 173.57"/><polygon class="cls-2" points="173.03 176.43 176.5 174.43 174.98 173.55 171.51 175.56 173.03 176.43"/><polygon class="cls-2" points="176.99 178.24 184.49 173.91 182.97 173.04 175.48 177.37 176.99 178.24"/><polygon class="cls-2" points="171.97 181.14 175.44 179.13 173.93 178.26 170.46 180.26 171.97 181.14"/><polygon class="cls-2" points="166.93 184.05 170.4 182.05 168.88 181.17 165.41 183.18 166.93 184.05"/><polygon class="cls-2" points="158.78 188.75 165.35 184.96 163.84 184.09 157.27 187.88 158.78 188.75"/><polygon class="cls-2" points="169.82 190.58 173.29 188.57 171.77 187.7 168.3 189.7 169.82 190.58"/><polygon class="cls-2" points="161.68 195.28 168.24 191.49 166.73 190.61 160.16 194.4 161.68 195.28"/><polygon class="cls-2" points="188.11 180.01 191.58 178.01 190.07 177.14 186.6 179.14 188.11 180.01"/><polygon class="cls-2" points="183.07 182.93 186.54 180.92 185.03 180.05 181.56 182.05 183.07 182.93"/><polygon class="cls-2" points="174.93 187.63 181.49 183.84 179.98 182.96 173.41 186.75 174.93 187.63"/><polygon class="cls-2" points="161.34 191.37 164.81 189.37 163.3 188.5 159.83 190.5 161.34 191.37"/><polygon class="cls-2" points="156.3 194.28 159.77 192.28 158.25 191.41 154.78 193.41 156.3 194.28"/><polygon class="cls-2" points="148.16 198.99 154.72 195.19 153.21 194.32 146.64 198.11 148.16 198.99"/><polygon class="cls-2" points="192 199.43 195.47 197.43 193.95 196.56 190.48 198.56 192 199.43"/><polygon class="cls-2" points="183.85 204.13 190.42 200.34 188.91 199.47 182.34 203.26 183.85 204.13"/><polygon class="cls-2" points="195.21 184.11 198.68 182.11 197.17 181.23 193.7 183.24 195.21 184.11"/><polygon class="cls-2" points="187.07 188.81 193.64 185.02 192.12 184.15 185.56 187.94 187.07 188.81"/><polygon class="cls-2" points="191.13 204.03 194.6 202.03 193.09 201.15 189.62 203.16 191.13 204.03"/><polygon class="cls-2" points="182.99 208.73 189.56 204.94 188.05 204.06 181.48 207.86 182.99 208.73"/><polygon class="cls-2" points="153.38 183.68 156.85 181.67 155.33 180.8 151.86 182.8 153.38 183.68"/><polygon class="cls-2" points="158.62 180.65 162.09 178.65 160.58 177.77 157.11 179.78 158.62 180.65"/><polygon class="cls-2" points="145.24 188.38 151.8 184.59 150.29 183.71 143.72 187.5 145.24 188.38"/><polygon class="cls-2" points="184.9 177.77 188.03 175.96 186.52 175.09 183.39 176.9 184.9 177.77"/><polygon class="cls-2" points="175.62 183.13 183.23 178.74 181.72 177.86 174.11 182.26 175.62 183.13"/><polygon class="cls-2" points="166.33 188.49 173.94 184.1 172.43 183.22 164.82 187.62 166.33 188.49"/><polygon class="cls-2" points="140.41 191.16 143.54 189.35 142.03 188.48 138.9 190.29 140.41 191.16"/><polygon class="cls-2" points="131.13 196.52 138.74 192.13 137.22 191.26 129.61 195.65 131.13 196.52"/><polygon class="cls-2" points="121.84 201.88 129.45 197.49 127.94 196.62 120.33 201.01 121.84 201.88"/><polygon class="cls-2" points="187.45 184.49 195.06 180.1 193.55 179.22 185.94 183.62 187.45 184.49"/><polygon class="cls-2" points="183.44 186.81 185.78 185.46 184.27 184.58 181.93 185.93 183.44 186.81"/><polygon class="cls-2" points="179.42 189.13 181.76 187.78 180.25 186.91 177.91 188.25 179.42 189.13"/><polygon class="cls-2" points="171.99 193.42 177.74 190.1 176.22 189.23 170.47 192.55 171.99 193.42"/><polygon class="cls-2" points="170.43 194.32 176.18 191 174.66 190.13 168.91 193.45 170.43 194.32"/><polygon class="cls-2" points="154.9 190.99 157.24 189.64 155.73 188.77 153.39 190.12 154.9 190.99"/><polygon class="cls-2" points="147.47 195.28 153.22 191.96 151.71 191.09 145.96 194.41 147.47 195.28"/><polygon class="cls-2" points="145.91 196.19 151.66 192.87 150.14 191.99 144.39 195.31 145.91 196.19"/><polygon class="cls-2" points="203.62 200.92 211.12 196.59 209.6 195.72 202.1 200.05 203.62 200.92"/><polygon class="cls-2" points="198.6 203.82 202.07 201.81 200.56 200.94 197.09 202.94 198.6 203.82"/><polygon class="cls-2" points="193.56 206.73 197.03 204.73 195.51 203.85 192.04 205.86 193.56 206.73"/><polygon class="cls-2" points="185.41 211.43 191.98 207.64 190.47 206.76 183.9 210.56 185.41 211.43"/><polygon class="cls-2" points="180.21 214.44 183.68 212.43 182.16 211.56 178.69 213.56 180.21 214.44"/><polygon class="cls-2" points="172.06 219.14 178.63 215.35 177.12 214.47 170.55 218.26 172.06 219.14"/><polygon class="cls-2" points="202.88 209.54 206.34 207.54 204.83 206.67 201.36 208.67 202.88 209.54"/><polygon class="cls-2" points="194.73 214.24 201.3 210.45 199.79 209.58 193.22 213.37 194.73 214.24"/><polygon class="cls-2" points="221 199.08 224.47 197.07 222.96 196.2 219.49 198.21 221 199.08"/><polygon class="cls-2" points="215.96 201.99 219.43 199.99 217.91 199.11 214.44 201.12 215.96 201.99"/><polygon class="cls-2" points="207.81 206.69 214.38 202.9 212.87 202.03 206.3 205.82 207.81 206.69"/><polygon class="cls-2" points="211.53 200.45 214.66 198.64 213.15 197.77 210.02 199.57 211.53 200.45"/><polygon class="cls-2" points="202.25 205.81 209.86 201.41 208.34 200.54 200.74 204.93 202.25 205.81"/><polygon class="cls-2" points="192.96 211.17 200.57 206.78 199.06 205.9 191.45 210.29 192.96 211.17"/><polygon class="cls-2" points="226.48 200.01 234.09 195.62 232.58 194.75 224.97 199.14 226.48 200.01"/><polygon class="cls-2" points="222.47 202.33 224.81 200.98 223.29 200.11 220.96 201.46 222.47 202.33"/><polygon class="cls-2" points="218.45 204.65 220.79 203.3 219.27 202.43 216.94 203.78 218.45 204.65"/><polygon class="cls-2" points="211.01 208.94 216.76 205.62 215.25 204.75 209.5 208.07 211.01 208.94"/><polygon class="cls-2" points="209.45 209.84 215.2 206.52 213.69 205.65 207.94 208.97 209.45 209.84"/><polygon class="cls-2" points="211.38 192.34 213.72 190.99 212.21 190.12 209.87 191.47 211.38 192.34"/><polygon class="cls-2" points="203.95 196.63 209.7 193.31 208.19 192.44 202.44 195.76 203.95 196.63"/><polygon class="cls-2" points="196.35 201.02 202.1 197.7 200.59 196.82 194.84 200.14 196.35 201.02"/><polygon class="cls-2" points="172.92 222.74 176.4 220.74 174.88 219.86 171.41 221.87 172.92 222.74"/><polygon class="cls-2" points="164.78 227.44 171.35 223.65 169.84 222.77 163.27 226.56 164.78 227.44"/><polygon class="cls-2" points="185.74 215.34 191.49 212.02 189.97 211.15 184.22 214.47 185.74 215.34"/><polygon class="cls-2" points="178.14 219.72 183.89 216.41 182.38 215.53 176.63 218.85 178.14 219.72"/><polygon class="cls-2" points="205.86 182.06 208.19 180.71 206.68 179.84 204.34 181.19 205.86 182.06"/><polygon class="cls-2" points="198.42 186.35 204.17 183.03 202.66 182.16 196.91 185.48 198.42 186.35"/><polygon class="cls-2" points="190.83 190.74 196.58 187.42 195.07 186.54 189.31 189.86 190.83 190.74"/></g><path class="cls-2" d="M281.53,173.2l-18-10.38a2.45,2.45,0,0,1-1.44-2,1.82,1.82,0,0,1,1-1.55l6-3.49a6.34,6.34,0,0,1,5.68.22l18,10.39a2.45,2.45,0,0,1,1.44,2,1.82,1.82,0,0,1-1.05,1.55l-6,3.49a5.1,5.1,0,0,1-2.48.57A6.55,6.55,0,0,1,281.53,173.2Zm-12.13-17-6,3.49a1.45,1.45,0,0,0-.85,1.19,2.08,2.08,0,0,0,1.24,1.61l18,10.38a5.87,5.87,0,0,0,5.26.23l6-3.49a1.43,1.43,0,0,0,.85-1.19,2.08,2.08,0,0,0-1.24-1.61l-18-10.38a6.09,6.09,0,0,0-3-.75A4.64,4.64,0,0,0,269.4,156.17Z"/><path class="cls-2" d="M249.06,192l-18-10.39a2.44,2.44,0,0,1-1.44-2,1.82,1.82,0,0,1,1.05-1.55l20.16-11.65a6.32,6.32,0,0,1,5.68.23l18,10.39a2.44,2.44,0,0,1,1.44,2,1.82,1.82,0,0,1-1.05,1.55l-20.16,11.65a5.08,5.08,0,0,1-2.48.57A6.58,6.58,0,0,1,249.06,192Zm2-25.19-20.16,11.65a1.43,1.43,0,0,0-.84,1.19,2.07,2.07,0,0,0,1.23,1.6l18,10.39a5.87,5.87,0,0,0,5.26.23l20.16-11.65a1.42,1.42,0,0,0,.85-1.19,2.07,2.07,0,0,0-1.24-1.6l-18-10.39a6.2,6.2,0,0,0-3-.75A4.76,4.76,0,0,0,251.05,166.76Z"/><path class="cls-2" d="M219.11,174.65l-37.43-21.6a2.59,2.59,0,0,1-1.51-2.06,1.91,1.91,0,0,1,1.1-1.62l38.25-22.09a6.62,6.62,0,0,1,6,.24l37.42,21.61a2.55,2.55,0,0,1,1.52,2.06,1.92,1.92,0,0,1-1.1,1.62l-38.25,22.08a5.35,5.35,0,0,1-2.61.6A6.77,6.77,0,0,1,219.11,174.65Zm44-22.2a1.54,1.54,0,0,0,.89-1.26,2.19,2.19,0,0,0-1.3-1.7l-37.43-21.61a6.18,6.18,0,0,0-5.54-.24l-38.25,22.09a1.51,1.51,0,0,0-.89,1.26,2.18,2.18,0,0,0,1.3,1.7l37.43,21.6a6.18,6.18,0,0,0,5.54.24Z"/></g></g></svg>