<?xml version="1.0" encoding="utf-8"?>
<!-- Generator: Adobe Illustrator 23.0.6, SVG Export Plug-In . SVG Version: 6.00 Build 0)  -->
<svg version="1.1" id="Layer_1" xmlns="http://www.w3.org/2000/svg" xmlns:xlink="http://www.w3.org/1999/xlink" x="0px" y="0px"
	 viewBox="0 0 358 288.1" style="enable-background:new 0 0 358 288.1;" xml:space="preserve">
<style type="text/css">
	.st0{fill:#718CFF;}
	.st1{fill:#FFFFFF;}
</style>
<path class="st0" d="M216.4,12.9c-74.9,0-139.5,60.8-139.5,135.7c0,3,0.1,6.1,0.3,9.1L0,218.4l95.6-2.5
	c23.1,41.9,65.7,72.2,117,72.2c75,0,139.5-58.8,139.5-133.8S291.5,12.9,216.4,12.9z"/>
<path d="M220.3,2.8c-37.6,0.1-73.5,15.4-99.7,42.4c-12.9,13.3-22.9,29.1-29.4,46.5c-6.3,17.3-8.8,35.9-7.2,54.2l0,0v0.2
	c0,0.9-0.4,1.7-1.1,2.3L5.6,209.2l0,0L3.7,204l95.6-4.1h0.2c1.6,0,3.1,0.9,3.8,2.3c11,20.7,27.1,38.2,46.7,51.1
	c19.7,12.8,42.6,19.8,66.1,20.1c35.7,0.2,70.1-13.1,96.3-37.3c8.6-8,16.2-17.2,22.4-27.2c12.6-20.1,19.3-43.4,19.1-67.1
	c-0.1-11.8-1.6-23.6-4.7-35.1c-1.5-5.7-3.4-11.3-5.6-16.8c-2.2-5.5-4.8-10.8-7.7-16c-5.9-10.4-12.9-20.1-21-28.8
	c-8.1-8.6-17.3-16.2-27.3-22.5C267.5,9.8,244.1,2.9,220.3,2.8L220.3,2.8z M220.3,0c24.4,0,48.3,6.9,69,19.9
	c10.3,6.4,19.8,14.1,28.2,22.9c8.4,8.8,15.6,18.6,21.6,29.2c3,5.3,5.7,10.8,8,16.4s4.2,11.4,5.8,17.3c3.2,11.7,4.9,23.9,5.1,36
	c0.3,24.6-6.3,48.7-19.2,69.7c-6.4,10.5-14.1,20-22.9,28.5c-27,25.5-62.7,39.8-99.8,40c-24.8,0.1-49.2-6.8-70.2-20
	c-21-13.3-38.3-31.6-50.4-53.2l4,2.3l0,0l-95.7,0.9l0,0c-1.6,0-2.9-1.3-2.9-2.8c0-0.9,0.4-1.7,1.1-2.3l0,0L79.3,144l-1.1,2.5l0,0
	c-0.3-4.8-0.3-9.6,0-14.3c0.2-4.8,0.7-9.5,1.5-14.2c1.5-9.4,4.1-18.6,7.6-27.5c7-17.7,17.6-33.8,31-47.2
	c13.4-13.5,29.2-24.2,46.7-31.7C182.5,3.8,201.3,0,220.3,0z"/>
<path class="st1" d="M177.2,139.1v20.7h-10.1v-19.2c0.3-3-1.9-5.8-4.9-6.1c-0.3,0-0.6,0-0.9,0c-3.7,0-6.3,2.1-6.3,6.9v18.4h-10.1
	v-47.2H155v16.6c2.4-2.8,5.9-4.3,9.6-4.1C171.4,125.2,177.2,130,177.2,139.1z"/>
<path class="st1" d="M199.9,151.7c2.4,0.1,4.8-0.9,6.5-2.6l8.1,4.6c-3.4,4.6-8.9,7.3-14.7,6.9c-11.5,0-18.7-7.7-18.7-17.8
	c-0.3-9.5,7.2-17.5,16.7-17.8c0.4,0,0.8,0,1.2,0c9.8,0,17.1,7.7,17.1,17.8c0,1.4-0.1,2.7-0.4,4h-24
	C193.1,150.5,196.2,151.7,199.9,151.7z M206.1,139.4c-1.4-4-5.7-6.1-9.8-4.7c-2.2,0.8-4,2.5-4.7,4.7H206.1z"/>
<path class="st1" d="M220.1,110.6h10v49.2H220L220.1,110.6z"/>
<path class="st1" d="M235,110.6h10.1v49.2H235V110.6z"/>
<path class="st1" d="M249,142.9c0-9.9,7.9-17.9,17.8-17.9s17.9,7.9,17.9,17.8s-7.9,17.9-17.8,17.9c0,0,0,0-0.1,0
	c-9.7,0.1-17.7-7.7-17.9-17.4C249,143.2,249,143,249,142.9z M274.6,142.9c-0.2-4.2-3.7-7.5-8-7.4c-4.2,0.2-7.5,3.7-7.4,8
	c0.2,4.1,3.5,7.4,7.7,7.4c4.2,0.1,7.6-3.3,7.7-7.4C274.6,143.3,274.6,143.1,274.6,142.9z"/>
<path class="st1" d="M286.5,154.6c0-3.4,2.8-6.2,6.2-6.2c3.4,0,6.2,2.8,6.2,6.2s-2.8,6.2-6.2,6.2l0,0
	C289.2,160.7,286.5,158,286.5,154.6z"/>
</svg>
