<svg xmlns="http://www.w3.org/2000/svg" viewBox="0 0 502.17 349.86"><defs><style>.cls-1{opacity:0.35;}.cls-2{fill:#00559c;}.cls-3{fill:#263238;}.cls-4{fill:#fff;}.cls-5{fill:#107400;}.cls-6{fill:#f65058;}</style></defs><title>homecare_3</title><g id="Layer_2" data-name="Layer 2"><g id="Floor"><g class="cls-1"><path class="cls-2" d="M472.1,129.25S399,43.48,287.31,14.28s-128.1,66.34-159.85,104S37.89,151.76,9.55,198s2.84,127.74,141.71,148.42S281.64,287.4,367.8,302,553.16,238.13,472.1,129.25Z"/></g><path class="cls-3" d="M183.12,343.59a.5.5,0,0,1-.5-.51V2.27a.5.5,0,0,1,1,0V343.08A.5.5,0,0,1,183.12,343.59Z"/><rect class="cls-3" x="301.66" y="28.74" width="95.18" height="140.59"/><path class="cls-3" d="M396.84,169.83H301.66a.51.51,0,0,1-.5-.5V28.74a.5.5,0,0,1,.5-.5h95.18a.5.5,0,0,1,.51.5V169.33A.51.51,0,0,1,396.84,169.83Zm-94.67-1h94.17V29.24H302.17Z"/><rect class="cls-4" x="306.2" y="35.01" width="86.11" height="128.04"/><path class="cls-3" d="M392.31,163.56H306.2a.5.5,0,0,1-.5-.5V35a.5.5,0,0,1,.5-.5h86.11a.5.5,0,0,1,.5.5V163.06A.5.5,0,0,1,392.31,163.56Zm-85.61-1h85.11v-127H306.7Z"/><path class="cls-3" d="M337.09,78.12a.49.49,0,0,1-.36-.84L358,54.49a.51.51,0,0,1,.74.69L337.46,78A.49.49,0,0,1,337.09,78.12Z"/><path class="cls-3" d="M360.45,53.06a.51.51,0,0,1-.37-.85l9-9.62a.51.51,0,0,1,.74.69l-9,9.62A.52.52,0,0,1,360.45,53.06Z"/><path class="cls-3" d="M331.19,76.35a.49.49,0,0,1-.36-.84l12.74-13.67a.5.5,0,0,1,.71,0,.5.5,0,0,1,0,.71L331.56,76.19A.49.49,0,0,1,331.19,76.35Z"/><path class="cls-3" d="M337.09,156.62a.51.51,0,0,1-.34-.14.5.5,0,0,1,0-.71l3.77-4.05a.5.5,0,0,1,.71,0,.51.51,0,0,1,0,.71l-3.78,4.05A.49.49,0,0,1,337.09,156.62Z"/><path class="cls-3" d="M343,150.29a.51.51,0,0,1-.37-.85l26.43-28.35a.5.5,0,0,1,.71,0,.5.5,0,0,1,0,.71l-26.43,28.36A.49.49,0,0,1,343,150.29Z"/><path class="cls-3" d="M331.19,154.85a.51.51,0,0,1-.34-.14.5.5,0,0,1,0-.71l12.74-13.67a.51.51,0,0,1,.71,0,.5.5,0,0,1,0,.71l-12.74,13.68A.52.52,0,0,1,331.19,154.85Z"/><path class="cls-3" d="M352.41,104.28a2.88,2.88,0,1,0-2.88,3.08A3,3,0,0,0,352.41,104.28Z"/><path class="cls-3" d="M349.53,107.86a3.59,3.59,0,1,1,3.38-3.58A3.48,3.48,0,0,1,349.53,107.86Zm0-6.16a2.59,2.59,0,1,0,2.38,2.58A2.48,2.48,0,0,0,349.53,101.7Z"/><rect class="cls-3" x="306.2" y="103.84" width="86.11" height="5.67"/><path class="cls-3" d="M392.31,110H306.2a.5.5,0,0,1-.5-.51v-5.66a.5.5,0,0,1,.5-.5h86.11a.5.5,0,0,1,.5.5v5.66A.5.5,0,0,1,392.31,110Zm-85.61-1h85.11v-4.66H306.7Z"/><rect class="cls-3" x="299.43" y="20.33" width="100.22" height="12.02"/><path class="cls-3" d="M399.64,32.85H299.43a.51.51,0,0,1-.51-.51v-12a.5.5,0,0,1,.51-.5H399.64a.5.5,0,0,1,.5.5v12A.5.5,0,0,1,399.64,32.85Zm-99.71-1h99.21v-11H299.93Z"/><rect class="cls-3" x="299.43" y="165.12" width="100.22" height="12.02"/><path class="cls-3" d="M399.64,177.64H299.43a.5.5,0,0,1-.51-.5v-12a.51.51,0,0,1,.51-.5H399.64a.5.5,0,0,1,.5.5v12A.5.5,0,0,1,399.64,177.64Zm-99.71-1h99.21v-11H299.93Z"/><rect class="cls-4" x="263.59" y="3.51" width="171.32" height="3.6"/><path class="cls-3" d="M434.91,7.61H263.59a.5.5,0,0,1-.5-.5V3.51a.51.51,0,0,1,.5-.51H434.91a.51.51,0,0,1,.51.51v3.6A.5.5,0,0,1,434.91,7.61Zm-170.81-1H434.41V4H264.1Z"/><rect class="cls-4" x="269.75" y="0.5" width="9.52" height="189.85" rx="4.49"/><path class="cls-3" d="M274.76,190.86h-.5a5,5,0,0,1-5-5V5a5,5,0,0,1,5-5h.5a5,5,0,0,1,5,5V185.85A5,5,0,0,1,274.76,190.86ZM274.26,1a4,4,0,0,0-4,4V185.85a4,4,0,0,0,4,4h.5a4,4,0,0,0,4-4V5a4,4,0,0,0-4-4Z"/><rect class="cls-4" x="278.71" y="0.5" width="9.52" height="189.85" rx="4.49"/><path class="cls-3" d="M283.72,190.86h-.5a5,5,0,0,1-5-5V5a5,5,0,0,1,5-5h.5a5,5,0,0,1,5,5V185.85A5,5,0,0,1,283.72,190.86ZM283.22,1a4,4,0,0,0-4,4V185.85a4,4,0,0,0,4,4h.5a4,4,0,0,0,4-4V5a4,4,0,0,0-4-4Z"/><rect class="cls-4" x="287.67" y="0.5" width="9.52" height="189.85" rx="4.49"/><path class="cls-3" d="M292.68,190.86h-.5a5,5,0,0,1-5-5V5a5,5,0,0,1,5-5h.5a5,5,0,0,1,5,5V185.85A5,5,0,0,1,292.68,190.86ZM292.18,1a4,4,0,0,0-4,4V185.85a4,4,0,0,0,4,4h.5a4,4,0,0,0,4-4V5a4,4,0,0,0-4-4Z"/><rect class="cls-4" x="296.63" y="0.5" width="9.52" height="189.85" rx="4.49"/><path class="cls-3" d="M301.64,190.86h-.51a5,5,0,0,1-5-5V5a5,5,0,0,1,5-5h.51a5,5,0,0,1,5,5V185.85A5,5,0,0,1,301.64,190.86ZM301.13,1a4,4,0,0,0-4,4V185.85a4,4,0,0,0,4,4h.51a4,4,0,0,0,4-4V5a4,4,0,0,0-4-4Z"/><rect class="cls-4" x="392.92" y="0.5" width="9.52" height="189.85" rx="4.49"/><path class="cls-3" d="M397.93,190.86h-.5a5,5,0,0,1-5-5V5a5,5,0,0,1,5-5h.5a5,5,0,0,1,5,5V185.85A5,5,0,0,1,397.93,190.86ZM397.43,1a4,4,0,0,0-4,4V185.85a4,4,0,0,0,4,4h.5a4,4,0,0,0,4-4V5a4,4,0,0,0-4-4Z"/><rect class="cls-4" x="401.88" y="0.5" width="9.52" height="189.85" rx="4.49"/><path class="cls-3" d="M406.89,190.86h-.5a5,5,0,0,1-5-5V5a5,5,0,0,1,5-5h.5a5,5,0,0,1,5,5V185.85A5,5,0,0,1,406.89,190.86ZM406.39,1a4,4,0,0,0-4,4V185.85a4,4,0,0,0,4,4h.5a4,4,0,0,0,4-4V5a4,4,0,0,0-4-4Z"/><rect class="cls-4" x="410.84" y="0.5" width="9.52" height="189.85" rx="4.49"/><path class="cls-3" d="M415.85,190.86h-.5a5,5,0,0,1-5-5V5a5,5,0,0,1,5-5h.5a5,5,0,0,1,5,5V185.85A5,5,0,0,1,415.85,190.86ZM415.35,1a4,4,0,0,0-4,4V185.85a4,4,0,0,0,4,4h.5a4,4,0,0,0,4-4V5a4,4,0,0,0-4-4Z"/><rect class="cls-4" x="419.8" y="0.5" width="9.52" height="189.85" rx="4.49"/><path class="cls-3" d="M424.81,190.86h-.51a5,5,0,0,1-5-5V5a5,5,0,0,1,5-5h.51a5,5,0,0,1,5,5V185.85A5,5,0,0,1,424.81,190.86ZM424.3,1a4,4,0,0,0-4,4V185.85a4,4,0,0,0,4,4h.51a4,4,0,0,0,4-4V5a4,4,0,0,0-4-4Z"/><path class="cls-3" d="M94.47,62.22H61.34a.5.5,0,0,1-.5-.51V16a.5.5,0,0,1,.5-.5H94.47a.5.5,0,0,1,.5.5V61.71A.5.5,0,0,1,94.47,62.22Zm-32.63-1H94V16.51H61.84Z"/><path class="cls-3" d="M92.33,59.26H63.48a.5.5,0,0,1-.5-.5V19a.5.5,0,0,1,.5-.5H92.33a.5.5,0,0,1,.5.5V58.76A.5.5,0,0,1,92.33,59.26ZM64,58.26H91.83V19.46H64Z"/><path class="cls-3" d="M82.56,45.79H73.25a.5.5,0,0,1-.5-.51V32.43a.5.5,0,0,1,.5-.5h9.31a.5.5,0,0,1,.5.5V45.28A.5.5,0,0,1,82.56,45.79Zm-8.81-1h8.31V32.94H73.75Z"/><path class="cls-3" d="M136.85,96.38H103.72a.5.5,0,0,1-.5-.5V50.17a.5.5,0,0,1,.5-.5h33.13a.5.5,0,0,1,.5.5V95.88A.5.5,0,0,1,136.85,96.38Zm-32.63-1h32.13V50.67H104.22Z"/><path class="cls-3" d="M134.71,93.43H105.86a.5.5,0,0,1-.5-.5V53.12a.5.5,0,0,1,.5-.5h28.85a.5.5,0,0,1,.5.5V92.93A.5.5,0,0,1,134.71,93.43Zm-28.35-1h27.85V53.62H106.36Z"/><path class="cls-3" d="M124.94,80h-9.31a.5.5,0,0,1-.5-.5V66.6a.5.5,0,0,1,.5-.5h9.31a.5.5,0,0,1,.51.5V79.45A.5.5,0,0,1,124.94,80Zm-8.81-1h8.31V67.1h-8.31Z"/><path class="cls-3" d="M94.47,96.11H61.34a.5.5,0,0,1-.5-.5V68.91a.5.5,0,0,1,.5-.5H94.47a.5.5,0,0,1,.5.5v26.7A.5.5,0,0,1,94.47,96.11Zm-32.63-1H94V69.41H61.84Z"/><path class="cls-3" d="M92.33,94.39H63.48a.5.5,0,0,1-.5-.5V70.63a.5.5,0,0,1,.5-.5H92.33a.5.5,0,0,1,.5.5V93.89A.5.5,0,0,1,92.33,94.39ZM64,93.38H91.83V71.13H64Z"/><path class="cls-3" d="M82.56,86.51H73.25a.5.5,0,0,1-.5-.5v-7.5a.5.5,0,0,1,.5-.51h9.31a.5.5,0,0,1,.5.51V86A.5.5,0,0,1,82.56,86.51Zm-8.81-1h8.31V79H73.75Z"/><polygon class="cls-4" points="231 154.05 211.09 164.11 213.49 176.99 233.42 172.69 231 154.05"/><path class="cls-3" d="M213.49,177.49a.6.6,0,0,1-.28-.08.52.52,0,0,1-.21-.33l-2.41-12.88a.5.5,0,0,1,.27-.54l19.91-10.06a.53.53,0,0,1,.46,0,.52.52,0,0,1,.26.38l2.43,18.65a.52.52,0,0,1-.39.56l-19.93,4.29Zm-1.84-13.11,2.24,12,19-4.09-2.27-17.49Z"/><path class="cls-4" d="M213.49,177s3-11.8,1.26-12.49a8,8,0,0,0-3.67-.39S212.49,175.79,213.49,177Z"/><path class="cls-3" d="M213.49,177.49a.48.48,0,0,1-.38-.18c-1-1.25-2.29-11.17-2.52-13.14a.5.5,0,0,1,.42-.56,8.45,8.45,0,0,1,3.92.42c1.92.74.23,8.52-1,13.08a.5.5,0,0,1-.38.37Zm-1.84-12.93c.45,3.65,1.17,8.39,1.75,10.73,1.26-5.31,1.8-9.88,1.17-10.32A7.19,7.19,0,0,0,211.65,164.56Z"/><path class="cls-4" d="M203.69,179.36a46,46,0,0,0,5.44-3.24c.87-.85,2.59-5.44,2.59-5.44s3.32.16,3-1.21-5.22-3.54-8.38-1.5-5,11-5,11S201.29,180.74,203.69,179.36Z"/><path class="cls-3" d="M202.2,180.39a1.34,1.34,0,0,1-.72-.19,1.46,1.46,0,0,1-.62-1.26c.09-.45,1.94-9.25,5.24-11.39,2.1-1.36,4.86-1,6.74-.23,1.35.57,2.25,1.33,2.4,2.05a1.11,1.11,0,0,1-.25,1c-.61.72-2.14.81-2.91.81h0c-.43,1.14-1.77,4.5-2.58,5.29a43.42,43.42,0,0,1-5.55,3.32A3.61,3.61,0,0,1,202.2,180.39Zm-.35-1.33s0,.22.16.29.4.17,1.42-.42h0a42.43,42.43,0,0,0,5.33-3.16c.57-.56,1.82-3.52,2.47-5.25a.5.5,0,0,1,.49-.33,4.36,4.36,0,0,0,2.49-.45s.05-.07,0-.16c0-.26-.65-.84-1.8-1.32-1.65-.68-4-1-5.82.14-2.94,1.91-4.77,10.59-4.79,10.68Z"/><path class="cls-4" d="M191.32,177.39l14.48-14.25s1.45-3.07,2-4,3.22-1.74,5-3,2.44-3.32,3.35-3.22.91.74.77,2.22-2,3.36-2.38,3.62,4,.78,5.82.67a31.7,31.7,0,0,0,4.47-.76s3.24-4.47,3.85-3-2.71,9.15-3.59,10.64-5.89,2.55-8.93,3a45.32,45.32,0,0,1-7.29.16l-6.67,12.35Z"/><path class="cls-3" d="M202.25,182.3a.58.58,0,0,1-.18,0l-10.94-4.41a.5.5,0,0,1-.3-.37A.48.48,0,0,1,191,177l14.42-14.18c.24-.51,1.46-3.1,2-4a6.56,6.56,0,0,1,2.71-1.8,19.5,19.5,0,0,0,2.48-1.35,8.1,8.1,0,0,0,1.87-1.95c.57-.77,1.06-1.43,1.83-1.35,1.45.16,1.33,1.42,1.21,2.76a6.69,6.69,0,0,1-1.92,3.38,26.82,26.82,0,0,0,4.83.37,32.41,32.41,0,0,0,4.21-.7c.86-1.17,2.71-3.49,3.86-3.36a.89.89,0,0,1,.74.6c.75,1.79-3,10-3.62,11.09-1.14,2-7.4,3-9.3,3.21a45,45,0,0,1-7.06.18L202.7,182A.51.51,0,0,1,202.25,182.3Zm-10-5.09,9.81,3.95,6.45-12a.49.49,0,0,1,.47-.26,45.4,45.4,0,0,0,7.19-.16c3.65-.5,7.89-1.56,8.57-2.72,1.08-1.84,4-9.09,3.56-10.2-.36,0-1.78,1.46-3,3.12a.53.53,0,0,1-.29.19,32.1,32.1,0,0,1-4.56.78c-.06,0-6,0-6.35-1a.58.58,0,0,1,.23-.62c.31-.2,2-2,2.15-3.25.15-1.62,0-1.63-.32-1.67h0c-.19,0-.6.55-.91.95a8.87,8.87,0,0,1-2.1,2.18,20.06,20.06,0,0,1-2.61,1.42,7,7,0,0,0-2.29,1.41c-.53.9-2,3.93-2,4a.56.56,0,0,1-.1.15Z"/><path class="cls-4" d="M209.62,166.38l5.13-1.88c1.25-.46,7.79-.6,7.79-.6s4-7.38,4.2-6.31-1.59,6.64-2,7.69A2.43,2.43,0,0,1,223,167"/><path class="cls-3" d="M223,167.48a.5.5,0,0,1-.49-.38.51.51,0,0,1,.37-.61,1.91,1.91,0,0,0,1.38-1.38,59.21,59.21,0,0,0,1.84-6.33c-.8,1.17-2.09,3.37-3.16,5.36a.5.5,0,0,1-.43.26,48.68,48.68,0,0,0-7.62.57l-5.14,1.89-.34-1,5.13-1.88c1.17-.44,6.26-.59,7.66-.63,3.55-6.55,4.14-6.47,4.49-6.41a.61.61,0,0,1,.51.5c.28,1.37-2,7.89-2,8a2.91,2.91,0,0,1-2.09,2Z"/><path class="cls-5" d="M462.8,202.36h0a.06.06,0,0,0,0-.08.07.07,0,0,0-.09,0,94.76,94.76,0,0,0-4.38,14.75,145.61,145.61,0,0,0-2.42,15.29l-.34,3.87c-.06.64-.12,1.29-.16,1.93l-.1,1.94c0,1.29-.13,2.59-.16,3.88l0,3.88,0,1.95c0,.64.07,1.29.11,1.93.09,1.29.17,2.59.28,3.87.23,2.58.59,5.14,1,7.69a.06.06,0,0,0,.06.06.06.06,0,0,0,.06-.07h0c0-1.29-.05-2.58-.08-3.87s-.14-2.56-.12-3.85,0-2.57,0-3.86l0-1.92,0-1.93V244l.1-3.84,0-1.93c0-.64.07-1.28.1-1.92l.22-3.84a144.29,144.29,0,0,1,2-15.25A93.83,93.83,0,0,1,462.8,202.36Z"/><path class="cls-5" d="M463.31,222.48a.06.06,0,0,0-.12,0,98.7,98.7,0,0,0-2.55,9.77,96.63,96.63,0,0,0-1.51,10c-.32,3.37-.67,6.74-.71,10.12a88.37,88.37,0,0,0,.34,10.16.06.06,0,0,0,.05.06s.07,0,.07-.06c.37-3.37.59-6.74.81-10.1s.25-6.73.45-10.09a96.37,96.37,0,0,1,1.12-10A100.28,100.28,0,0,1,463.31,222.48Z"/><path class="cls-5" d="M473.71,229.56a.07.07,0,0,0-.09,0,32.89,32.89,0,0,0-6.95,6.5A30.57,30.57,0,0,0,464,240.1l-.56,1.13-.43,1.18a10.27,10.27,0,0,0-.38,1.19c-.12.4-.24.8-.34,1.2a51.36,51.36,0,0,0-1.44,9.84,60.72,60.72,0,0,0,.34,9.91s0,.06.06.06a.06.06,0,0,0,.07-.06l.79-9.81a94.36,94.36,0,0,1,1.16-9.68c.08-.39.19-.78.28-1.17s.19-.78.32-1.15l.37-1.14.48-1.07a30.66,30.66,0,0,1,2.49-4.06,32.48,32.48,0,0,1,6.53-6.81h0A.07.07,0,0,0,473.71,229.56Z"/><path class="cls-5" d="M468.68,242.17a10.56,10.56,0,0,0-3.16,4.08,24.88,24.88,0,0,0-1.77,5,11.69,11.69,0,0,0-.31,1.3l-.29,1.3a23.63,23.63,0,0,0-.31,2.65c0,.89,0,1.78,0,2.67a26.63,26.63,0,0,0,.33,2.65s0,.05.05.05a.07.07,0,0,0,.08-.05,24.46,24.46,0,0,0,.43-2.61c.13-.86.26-1.72.35-2.58s.23-1.71.29-2.57.17-1.72.34-2.56a24.67,24.67,0,0,1,1.36-5,11,11,0,0,1,2.65-4.26h0a.06.06,0,0,0,0-.09A.05.05,0,0,0,468.68,242.17Z"/><path class="cls-5" d="M454.1,252c-.34-4.36-1-8.67-1.65-13s-1.33-8.61-2.07-12.9-1.55-8.56-2.41-12.82a.06.06,0,0,0-.08-.05s-.05,0-.05.07c.7,4.3,1.33,8.6,1.92,12.91s1.18,8.62,1.69,12.94.88,8.65,1.39,13l1.48,13s0,.06.06.06a.06.06,0,0,0,.07-.06c0-1.09.05-2.19.07-3.28s0-2.19-.06-3.28C454.42,256.35,454.25,254.17,454.1,252Z"/><path class="cls-5" d="M451.66,251.93c-.21-1.72-.51-3.44-.82-5.15l-.57-2.54c-.18-.85-.36-1.7-.59-2.53a76.44,76.44,0,0,0-3.1-9.91l-.49-1.2-.54-1.17c-.34-.79-.76-1.54-1.16-2.3a18.82,18.82,0,0,0-2.92-4.17.06.06,0,0,0-.09,0,.07.07,0,0,0,0,.1h0a19.34,19.34,0,0,1,2.68,4.27c.36.77.73,1.53,1,2.33l.48,1.19.42,1.21a74.2,74.2,0,0,1,2.7,9.9c.37,1.68.62,3.39.92,5.08l.38,2.55c.14.85.31,1.69.42,2.55.25,1.7.55,3.4.82,5.1s.54,3.42.87,5.12a.09.09,0,0,0,.07.06.07.07,0,0,0,.06-.07c0-1.74,0-3.48-.11-5.22S451.83,253.66,451.66,251.93Z"/><path class="cls-5" d="M448.3,252.15c-.75-2.28-1.62-4.52-2.57-6.71a61.2,61.2,0,0,0-3.23-6.36.06.06,0,0,0-.08,0,.08.08,0,0,0,0,.09,61.88,61.88,0,0,1,2.76,6.56c.83,2.23,1.57,4.49,2.19,6.78s1.09,4.64,1.66,6.94,1.08,4.63,1.74,7a.06.06,0,0,0,.06.05.07.07,0,0,0,.07-.07,37.34,37.34,0,0,0-.63-7.24A47.78,47.78,0,0,0,448.3,252.15Z"/><path class="cls-5" d="M448.17,259.77a16.5,16.5,0,0,0-1.79-4,16.22,16.22,0,0,0-2.6-3.47,11.73,11.73,0,0,0-1.66-1.34,6.62,6.62,0,0,0-1.87-.91.07.07,0,0,0,0,.13h0a9.39,9.39,0,0,1,3.12,2.6,15.62,15.62,0,0,1,2.16,3.52c.62,1.25.94,2.63,1.47,3.92.24.66.48,1.33.75,2a18.77,18.77,0,0,0,.81,2h0a.07.07,0,0,0,.05,0,.07.07,0,0,0,.07-.07,16.48,16.48,0,0,0-.08-2.22C448.47,261.22,448.33,260.49,448.17,259.77Z"/><path class="cls-5" d="M448.42,219.53a11.92,11.92,0,0,1-8.19-9.33c-1.53-7.69,3.41-4.39-1-16.47s-3.41-14.82-1.88-18.3,2.39-2.38,3.75,2.2,6.31,11.71,8.19,25.07S448.42,219.53,448.42,219.53Z"/><path class="cls-5" d="M461.55,206.54s-4.44-1.65-4.61-10.61,3.24-7.14,3.75-18.3,1.2-19,3.07-19.22,6.83,5.49,8.53,17.93-2.22,20.68-5.63,24.34S461.55,206.54,461.55,206.54Z"/><path class="cls-5" d="M446,230.33s-1-6.59-3.07-9.7-6.48-5.85-9.38-11.89-6.14-9-6-.37,3.75,13,8.19,15.92S446,230.33,446,230.33Z"/><path class="cls-5" d="M444.15,241.68A65.88,65.88,0,0,0,434.09,227c-6-6.23-10.74-9.34-9-6.23s3.75,2.93,6.65,8.42,2.05,9.52,6.14,12.63S444.15,241.68,444.15,241.68Z"/><path class="cls-5" d="M443.64,252.47c-.17-.54-.34-4.57-6.14-7.87s-11.25-2-10.57-.36,4.26,4.39,7.84,6A33.8,33.8,0,0,0,443.64,252.47Z"/><path class="cls-5" d="M461.21,230.7s-2.56-3.48-1.2-10.8,4.44-5.49,7.85-9.33,2.73-4.4,6.14-8.42,6.48-6.22,7.84-4.58-.68,6.77-2.73,9.7-5.28,4.39-6.82,8-.85,9.52-4.77,12.27S461.21,230.7,461.21,230.7Z"/><path class="cls-5" d="M469.73,232.71s6.14-7.5,10.58-13,6.14-9.7,6.31-6,1.53,6.59-2.05,11.34S469.73,232.71,469.73,232.71Z"/><path class="cls-5" d="M466.49,244.79s-.17-2.93,9.55-9.7,13.82-8.05,12.79-5.31-5.28,5.49-9.89,10.43S466.49,244.79,466.49,244.79Z"/><path class="cls-5" d="M448.82,218.75s-2.28-13.13-4.67-22.46-3.92-15-3.92-15"/><path class="cls-3" d="M448.82,219.26a.5.5,0,0,1-.49-.42c0-.13-2.31-13.22-4.66-22.42s-3.91-14.95-3.92-15a.5.5,0,1,1,1-.27c0,.06,1.57,5.79,3.93,15s4.65,22.37,4.68,22.5a.51.51,0,0,1-.41.58Z"/><path class="cls-5" d="M461.15,206.68s4.15-14.23,5.51-22.83-.17-15-.85-18.85"/><path class="cls-3" d="M461.15,207.18l-.14,0a.51.51,0,0,1-.34-.62c0-.14,4.15-14.3,5.5-22.77a48.13,48.13,0,0,0-.62-17.43c-.09-.45-.16-.86-.23-1.25a.5.5,0,0,1,.4-.59.52.52,0,0,1,.59.41c.06.39.14.8.23,1.24a49.08,49.08,0,0,1,.62,17.78c-1.35,8.53-5.48,22.75-5.52,22.89A.51.51,0,0,1,461.15,207.18Z"/><path class="cls-5" d="M445.49,230.06a69.45,69.45,0,0,0-6.28-9.61c-3.75-4.76-6.65-7.32-8.36-11.9"/><path class="cls-3" d="M445.49,230.56a.5.5,0,0,1-.44-.27,69.83,69.83,0,0,0-6.24-9.53c-1-1.22-1.84-2.27-2.7-3.29-2.48-2.94-4.43-5.26-5.73-8.74a.5.5,0,1,1,.94-.35c1.24,3.32,3.14,5.58,5.56,8.44.86,1,1.75,2.09,2.72,3.32a71.27,71.27,0,0,1,6.34,9.68.51.51,0,0,1-.22.68A.46.46,0,0,1,445.49,230.56Z"/><path class="cls-5" d="M461.21,230.7s1.36-8.79,4.6-13.36,9.72-11.72,12.28-16.29"/><path class="cls-3" d="M461.21,231.2h-.08a.51.51,0,0,1-.42-.57c.06-.36,1.42-9,4.69-13.57,1.27-1.79,3-3.93,4.83-6.2a85.45,85.45,0,0,0,7.42-10,.51.51,0,0,1,.88.5A87.56,87.56,0,0,1,471,211.48c-1.82,2.26-3.54,4.39-4.79,6.15-3.14,4.42-4.5,13.06-4.52,13.14A.5.5,0,0,1,461.21,231.2Z"/><path class="cls-5" d="M443.24,252.27s-5.74-4-9.83-6.2"/><path class="cls-3" d="M443.24,252.78a.52.52,0,0,1-.29-.09c-.06,0-5.76-4-9.78-6.18a.5.5,0,1,1,.48-.88c4.07,2.18,9.82,6.19,9.88,6.23a.5.5,0,0,1,.12.7A.5.5,0,0,1,443.24,252.78Z"/><path class="cls-3" d="M476.1,289.16c-.38-11.1-11.88-18.51-11.88-18.51H446.59s-11.49,7.41-11.88,18.51,13,51.82,13,51.82h15.33S476.48,300.27,476.1,289.16Z"/><path class="cls-3" d="M463.07,341.49H447.74a.49.49,0,0,1-.47-.35c-.55-1.66-13.44-40.93-13.06-52,.39-11.23,11.63-18.6,12.11-18.91a.53.53,0,0,1,.27-.08h17.63a.53.53,0,0,1,.27.08c.48.31,11.72,7.68,12.11,18.91h0c.38,11.07-12.51,50.34-13.06,52A.49.49,0,0,1,463.07,341.49Zm-15-1H462.7c1.3-4,13.25-41,12.9-51.3h0c-.35-10.12-10.32-17.2-11.54-18H446.75c-1.22.82-11.19,7.91-11.54,18C434.86,299.53,446.81,336.5,448.11,340.48Z"/><polygon class="cls-3" points="466.49 259.73 444 259.73 446.59 270.65 463.89 270.65 466.49 259.73"/><path class="cls-3" d="M463.89,271.16h-17.3a.49.49,0,0,1-.48-.39l-2.6-10.92a.54.54,0,0,1,.09-.43.53.53,0,0,1,.4-.19h22.49a.49.49,0,0,1,.39.19.48.48,0,0,1,.09.43l-2.59,10.92A.5.5,0,0,1,463.89,271.16Zm-16.9-1h16.5l2.36-9.91H444.63Z"/><path class="cls-4" d="M246.83,317.2s-2.5,4.39-4.55,7.32-9.54,8.05-11.14,9-8.86,3.42-8.63,4.64,0,3.9,1.59,4.39,25.68,0,25.68,0h16.14s.91-6.59.45-9.76S263,322.32,263,322.32Z"/><path class="cls-3" d="M231.74,343.29a63.62,63.62,0,0,1-7.79-.24c-1.56-.48-1.72-2.42-1.83-3.84a9.43,9.43,0,0,0-.11-.94c-.2-1.1,1.78-2.07,6-3.87a27.94,27.94,0,0,0,2.83-1.29c1.7-1,9.05-6.11,11-8.88s4.5-7.23,4.52-7.28a.52.52,0,0,1,.59-.23l16.14,5.12a.52.52,0,0,1,.31.29c.12.31,3,7.41,3.44,10.61s-.42,9.62-.45,9.9a.51.51,0,0,1-.5.43H249.78C248.21,343.1,238.77,343.29,231.74,343.29Zm15.32-25.49c-.64,1.11-2.67,4.57-4.37,7-2.05,2.94-9.47,8.05-11.28,9.16a28.43,28.43,0,0,1-3,1.36c-1.82.77-5.21,2.2-5.44,2.83a5.89,5.89,0,0,1,.12,1c.1,1.19.22,2.68,1.13,3,1.11.34,15.87.17,25.52,0h15.71c.19-1.5.77-6.58.4-9.18-.4-2.77-2.8-8.91-3.29-10.15Z"/><path class="cls-4" d="M266.25,339.64H222.66c.11,1.22.35,2.59,1.44,2.93,1.59.48,25.68,0,25.68,0h16.14S266.09,341.31,266.25,339.64Z"/><path class="cls-3" d="M231.73,343.29a63.52,63.52,0,0,1-7.78-.24c-1.52-.47-1.7-2.42-1.79-3.36a.52.52,0,0,1,.13-.39.51.51,0,0,1,.37-.16h43.59a.51.51,0,0,1,.37.16.52.52,0,0,1,.13.39c-.16,1.68-.33,2.95-.33,2.95a.51.51,0,0,1-.5.43H249.78C248.21,343.1,238.77,343.29,231.73,343.29Zm-8.51-3.15c.13.94.37,1.75,1,1.95,1.11.34,15.87.17,25.52,0h15.71c0-.41.13-1.09.22-1.92Z"/><path class="cls-4" d="M233,210.13s5.23,32.68,7,42,7.27,62.19,7.27,62.19l-2.5,1.47.68,3.9a39.81,39.81,0,0,0,8,3.41c3.18.74,10.91,1.71,10.91,1.71l2.95-3.17s2.73-8.78.91-23.41-5-56.83-4.54-63.66.22-17.81.22-17.81S238.65,212.57,233,210.13Z"/><path class="cls-3" d="M264.33,325.26h-.06c-.32,0-7.79-1-11-1.72a39.73,39.73,0,0,1-8.09-3.46.5.5,0,0,1-.25-.35l-.68-3.91a.5.5,0,0,1,.24-.52l2.22-1.3c-.46-4.44-5.51-53.06-7.23-61.82-1.8-9.17-7-41.64-7.05-42a.49.49,0,0,1,.69-.54c5.56,2.38,30.54,6.51,30.8,6.55a.51.51,0,0,1,.42.48c0,.11.22,11.08-.23,17.85s2.67,48.53,4.54,63.57c1.81,14.57-.81,23.26-.93,23.62a.45.45,0,0,1-.11.19l-2.95,3.17A.49.49,0,0,1,264.33,325.26Zm-18.41-5.94a38.51,38.51,0,0,0,7.61,3.25c2.8.64,9.25,1.49,10.61,1.66l2.69-2.89c.3-1,2.54-9.61.86-23.1-1.87-15.07-5-57-4.54-63.75.39-6,.27-15.28.23-17.35-3.25-.54-23.31-3.93-29.78-6.23.84,5.24,5.27,32.76,6.9,41.07,1.8,9.19,7.23,61.71,7.28,62.24a.5.5,0,0,1-.24.49l-2.2,1.28Z"/><path class="cls-4" d="M265.24,320.59s-4.09,7.81-6.37,9.51-12.27,6.59-12.27,8.54.45,4.15,1.59,4.39,30.68,0,30.68,0,6.6,1,9.1-2.19-.91-15.37-.91-15.37Z"/><path class="cls-3" d="M281.16,343.68a18.55,18.55,0,0,1-2.36-.15c-2.95,0-29.56.24-30.71,0-1.47-.31-2-2.73-2-4.88,0-1.52,3.44-3.62,8.69-6.64,1.66-1,3.1-1.78,3.78-2.3,2.16-1.62,6.18-9.26,6.22-9.34a.51.51,0,0,1,.56-.26L287.17,325a.5.5,0,0,1,.37.35c.14.51,3.45,12.48.82,15.82C286.68,343.27,283.41,343.68,281.16,343.68Zm-2.29-1.15c.14,0,6.41.9,8.7-2,1.87-2.36,0-11.09-.92-14.63l-21.15-4.72c-.83,1.55-4.24,7.77-6.33,9.33-.73.55-2.19,1.4-3.88,2.37-2.66,1.53-8.19,4.72-8.19,5.77,0,2.08.52,3.75,1.2,3.9C249.23,342.71,267.1,342.63,278.87,342.53Z"/><path class="cls-4" d="M288,340.84c0-.08.11-.16.16-.25H246.76c.22,1.25.67,2.28,1.43,2.44,1.14.24,30.68,0,30.68,0S285.47,344,288,340.84Z"/><path class="cls-3" d="M281.16,343.68a18.55,18.55,0,0,1-2.36-.15c-2.95,0-29.56.24-30.71,0-.9-.19-1.53-1.17-1.82-2.84a.5.5,0,0,1,.49-.59h41.37a.51.51,0,0,1,.44.26.52.52,0,0,1,0,.51,3.39,3.39,0,0,1-.2.28h0C286.68,343.27,283.41,343.68,281.16,343.68Zm-2.29-1.15c.13,0,5.54.78,8.15-1.44H247.39c.22.83.55,1.37.91,1.45C249.23,342.71,267.1,342.63,278.87,342.53Z"/><path class="cls-4" d="M255.92,214.5s1.82,30.24,4.32,43.41S265,313.27,265,313.27s-1.59,2.69-1.59,3.42.91,6.58.91,6.58,5.45,2.2,10.45,3.91A82.55,82.55,0,0,0,288,329.86s.22-4.15.45-8.78-1.59-8.05-1.36-9.27,1.59-44.88,0-54.39-1.82-9-1.82-12.68,2.27-36.1,2.27-36.1S267.74,216.93,255.92,214.5Z"/><path class="cls-3" d="M288,330.36h-.06a80.52,80.52,0,0,1-13.29-2.71c-4.95-1.69-10.42-3.89-10.48-3.91a.52.52,0,0,1-.31-.39c-.09-.6-.91-5.91-.91-6.66a12.22,12.22,0,0,1,1.58-3.54c-.15-2.79-2.37-42.55-4.76-55.15-2.47-13.05-4.3-43.17-4.32-43.47a.49.49,0,0,1,.17-.41A.49.49,0,0,1,256,214c11.54,2.38,31.1-5.74,31.3-5.82a.49.49,0,0,1,.48,0,.5.5,0,0,1,.21.45c0,.32-2.27,32.46-2.27,36.06a25.14,25.14,0,0,0,.66,6c.27,1.46.64,3.49,1.15,6.55,1.58,9.47.3,53,0,54.56A7.17,7.17,0,0,0,288,314a22.18,22.18,0,0,1,1,7.13c-.23,4.64-.45,8.79-.45,8.79a.48.48,0,0,1-.18.35A.49.49,0,0,1,288,330.36Zm-23.19-7.45c1.15.46,5.86,2.32,10.17,3.79a78.07,78.07,0,0,0,12.54,2.59c.07-1.26.25-4.6.43-8.24a21.43,21.43,0,0,0-.94-6.82,6.7,6.7,0,0,1-.42-2.51c.29-1.73,1.56-44.88,0-54.22-.51-3.05-.88-5.07-1.15-6.53a26.13,26.13,0,0,1-.67-6.23c0-3.36,1.86-30.19,2.21-35.33-3.7,1.48-19.79,7.53-30.49,5.7.28,4.45,2,30.78,4.27,42.71,2.48,13.05,4.76,55,4.78,55.43a.45.45,0,0,1-.07.28,14.05,14.05,0,0,0-1.52,3.16C263.92,317.18,264.42,320.58,264.78,322.91Z"/><path class="cls-4" d="M251.88,73.63s-19.5,18.84-19.95,21-4.26,116-4.26,116S247.11,218,264.12,218a61.45,61.45,0,0,0,29.16-7.33S297.84,94.76,296,90.36,276.31,72,272.11,70.82,256.35,71.41,251.88,73.63Z"/><path class="cls-3" d="M264.12,218.46c-16.9,0-36.43-7.29-36.62-7.36a.5.5,0,0,1-.33-.49c.16-4.65,3.8-114,4.26-116.12s16.83-18.06,20.1-21.22a.38.38,0,0,1,.13-.09c4.36-2.17,16.16-4.07,20.59-2.84s22.41,15.44,24.23,19.82-2.51,115.75-2.7,120.49a.5.5,0,0,1-.24.41A62.6,62.6,0,0,1,264.12,218.46Zm-35.93-8.18c2.65,1,20.43,7.18,35.93,7.18a62,62,0,0,0,28.67-7.13c1.58-40.11,4.17-116.39,2.76-119.78-1.7-4.1-19.4-18.09-23.57-19.24-3.93-1.1-15.16.46-19.8,2.73-7.49,7.24-19.42,19.19-19.76,20.66C232.06,96.56,229.5,170.9,228.19,210.28Z"/><path class="cls-3" d="M279.21,167.59h0l-24.55-2.19a.5.5,0,0,1-.45-.55.48.48,0,0,1,.54-.45l24,2.14.18-3.86L254.4,161a.5.5,0,0,1-.47-.54.53.53,0,0,1,.54-.47l25,1.71a.49.49,0,0,1,.46.53l-.22,4.88a.53.53,0,0,1-.17.35A.5.5,0,0,1,279.21,167.59Z"/><path class="cls-4" d="M248.33,113.76s-1.32,12.61-4.74,40.68a489,489,0,0,0-3,56.95"/><path class="cls-3" d="M240.56,211.89a.5.5,0,0,1-.5-.5,494.07,494.07,0,0,1,3-57c3.37-27.74,4.72-40.54,4.73-40.67a.5.5,0,0,1,.56-.45.5.5,0,0,1,.44.55c0,.13-1.36,12.94-4.74,40.69a493,493,0,0,0-3,56.88.49.49,0,0,1-.49.51Z"/><path class="cls-4" d="M248.31,90.61l-1.38,11.22,1.93,9.16,5.91-8.57,6.06-9.3,12-21.26-10.73-2.22L249.68,80.86S248.44,89.43,248.31,90.61Z"/><path class="cls-3" d="M248.86,111.49h-.1a.49.49,0,0,1-.39-.39l-1.93-9.15a1,1,0,0,1,0-.17l1.38-11.22c.14-1.18,1.33-9.41,1.38-9.76a.47.47,0,0,1,.16-.3l12.38-11.22a.5.5,0,0,1,.44-.12l10.73,2.21a.53.53,0,0,1,.36.29.51.51,0,0,1,0,.45l-12,21.27-6.07,9.33-5.93,8.57A.5.5,0,0,1,248.86,111.49Zm-1.42-9.68,1.67,7.93,5.25-7.6,6.05-9.29L272,72.21l-9.82-2L250.15,81.11c-.17,1.24-1.22,8.49-1.34,9.56h0Zm.87-11.2h0Z"/><polygon class="cls-4" points="250.92 87.21 252.3 92.97 246.93 101.83 248.86 110.99 254.77 102.42 254.77 93.71 258.35 88.25 255.19 81.45 250.92 87.21"/><path class="cls-3" d="M248.86,111.49h-.1a.49.49,0,0,1-.39-.39l-1.93-9.15a.53.53,0,0,1,.06-.37l5.26-8.68-1.33-5.56a.53.53,0,0,1,.09-.42l4.26-5.75a.52.52,0,0,1,.46-.21.51.51,0,0,1,.4.29L258.81,88a.5.5,0,0,1,0,.49l-3.49,5.34v8.56a.52.52,0,0,1-.09.29l-5.92,8.56A.5.5,0,0,1,248.86,111.49Zm-1.4-9.57,1.65,7.82,5.16-7.47V93.71a.5.5,0,0,1,.08-.27l3.43-5.23-2.69-5.78-3.63,4.89,1.33,5.54a.49.49,0,0,1-.06.37Z"/><path class="cls-4" d="M254.77,85.74l-6.46,4.87a35.54,35.54,0,0,1,1.37-9.75c1.52-5.31,2.2-7.23,2.2-7.23l18.72-3.69,1.51.88.69,1-12,21.26Z"/><path class="cls-3" d="M260.83,93.62a.5.5,0,0,1-.39-.18l-5.75-7L248.61,91a.51.51,0,0,1-.81-.39,35.91,35.91,0,0,1,1.4-9.89c1.5-5.28,2.18-7.19,2.21-7.27a.48.48,0,0,1,.38-.32l18.71-3.7a.53.53,0,0,1,.35.06l1.52.89a.57.57,0,0,1,.16.15l.69,1a.51.51,0,0,1,0,.52l-12,21.27a.51.51,0,0,1-.4.25Zm-6.06-8.39a.51.51,0,0,1,.39.19l5.59,6.81,11.46-20.35-.45-.68-1.25-.73-18.25,3.6c-.23.69-.91,2.77-2.09,6.93a36.48,36.48,0,0,0-1.35,8.59l5.65-4.25A.5.5,0,0,1,254.77,85.23Z"/><path class="cls-4" d="M241.15,36.12s-.82,8.86-.27,9.3,1.37,3.84,1.37,3.84-2.61,9.31-1.51,9.6a13.17,13.17,0,0,1,3,1.77s2.75,11.23,4.12,12.11a9.15,9.15,0,0,0,4,.89l.14,3.69s2.07,8.27,2.75,8.42,17.34-14.92,17.34-14.92l-1.37-15.06s3.57-.89,4.4-4.28-.83-7.83-.83-7.83.07-10.94-2.06-15.5c-2.61-5.61-15.69-5.17-22.71-3.84s-10.45,6.05-10.18,8A9.7,9.7,0,0,0,241.15,36.12Z"/><path class="cls-3" d="M254.74,86.24h-.07c-.32-.07-1-.22-3.14-8.79,0,0,0-.07,0-.1l-.12-3.23a8.42,8.42,0,0,1-3.78-1c-1.4-.9-3.59-9.37-4.3-12.23a11,11,0,0,0-2.71-1.58.76.76,0,0,1-.46-.37c-.7-1.23,1-7.59,1.58-9.72a14.34,14.34,0,0,0-1.17-3.45c-.22-.18-.75-.6.07-9.54a9.86,9.86,0,0,1-1.77-3.92c-.3-2.16,3.15-7.13,10.59-8.53,5.45-1,20.26-2.31,23.25,4.12,2.07,4.44,2.12,14.49,2.12,15.63.23.66,1.6,4.75.81,8a6.62,6.62,0,0,1-4.36,4.52l1.34,14.66a.46.46,0,0,1-.16.41C256.79,85.36,255.14,86.24,254.74,86.24Zm-2.22-9a60.09,60.09,0,0,0,2.38,7.87c1.81-1.21,10.92-9.28,16.69-14.5l-1.35-14.81a.49.49,0,0,1,.37-.54,5.83,5.83,0,0,0,4-3.91c.78-3.21-.79-7.49-.81-7.53a.57.57,0,0,1,0-.18c0-.11,0-10.88-2-15.29-2.41-5.19-14.87-4.94-22.15-3.56-6.86,1.3-10,5.84-9.78,7.41a9,9,0,0,0,1.69,3.6.56.56,0,0,1,.1.36c-.36,3.88-.6,8.23-.38,8.94.59.63,1.22,3,1.47,4a.57.57,0,0,1,0,.26c-1.06,3.74-2,8.15-1.74,9a13.94,13.94,0,0,1,3.07,1.81.47.47,0,0,1,.18.28c1.3,5.31,3.17,11.33,3.92,11.81a8.44,8.44,0,0,0,3.71.81.51.51,0,0,1,.51.48ZM241.28,45.14h0Zm-.09-.11Z"/><path class="cls-3" d="M272.25,28.15c-2.61-5.61-15.69-5.17-22.71-3.84s-10.45,6.05-10.18,8a9.7,9.7,0,0,0,1.79,3.84,6.24,6.24,0,0,0,4.13.59c1.93-.59,10.46-2.51,12.66-1.62s0,3.25-.14,5.31,1.65,4.43,3.44,4.58,3.3,4.28,3.3,5.61a1.45,1.45,0,0,0,2.48,1c1-.89.28-5,1.65-6.5a5,5,0,0,1,5.64-1.48S274.38,32.71,272.25,28.15Z"/><path class="cls-3" d="M266,52.55a2,2,0,0,1-.79-.16,1.93,1.93,0,0,1-1.14-1.8c0-1.22-1.48-5-2.84-5.11-2.05-.17-4.05-2.79-3.9-5.11a7.78,7.78,0,0,1,.63-2.27c.65-1.69.7-2.19-.18-2.55-1.92-.77-10.08,1-12.32,1.64a6.62,6.62,0,0,1-4.52-.63.37.37,0,0,1-.15-.13,10.06,10.06,0,0,1-1.9-4.08c-.3-2.16,3.15-7.13,10.59-8.53,5.45-1,20.26-2.31,23.25,4.12h0c2.15,4.61,2.12,15.26,2.12,15.72a.51.51,0,0,1-.64.48A4.56,4.56,0,0,0,269,45.47c-.63.68-.76,2.18-.88,3.51s-.22,2.48-.8,3A2.07,2.07,0,0,1,266,52.55Zm-9.79-18.19a5.66,5.66,0,0,1,1.95.26c1.91.77,1.26,2.47.74,3.84a7.19,7.19,0,0,0-.57,2c-.12,1.76,1.47,3.92,3,4,2.2.18,3.77,4.71,3.77,6.11a.91.91,0,0,0,.54.88,1,1,0,0,0,1.09-.21,5.53,5.53,0,0,0,.48-2.37c.13-1.49.28-3.18,1.14-4.1A5.41,5.41,0,0,1,273.81,43c0-2.39-.25-10.87-2-14.65h0c-2.41-5.19-14.87-4.94-22.15-3.56-6.86,1.3-10,5.84-9.78,7.41a9,9,0,0,0,1.62,3.52,5.6,5.6,0,0,0,3.65.5A53,53,0,0,1,256.18,34.36Z"/><path class="cls-3" d="M251.88,73.63s3.17-1.63,6.2-3.25,5.78-5.76,6.05-6.2-1.51,5.46-4,8S252,77.32,252,77.32Z"/><path class="cls-3" d="M252,77.82a.48.48,0,0,1-.26-.07.52.52,0,0,1-.24-.41l-.14-3.69a.5.5,0,0,1,.27-.47s3.17-1.62,6.19-3.24,5.84-6,5.86-6a.59.59,0,0,1,.51-.26.53.53,0,0,1,.42.34c.2.55-1.83,6.18-4.13,8.51-2.51,2.55-8,5.16-8.26,5.27A.44.44,0,0,1,252,77.82Zm.38-3.89.09,2.6c1.57-.79,5.41-2.82,7.29-4.73A16.23,16.23,0,0,0,262.65,67a16.08,16.08,0,0,1-4.34,3.81C255.82,72.16,253.24,73.49,252.4,73.93Z"/><path class="cls-3" d="M249.13,62.76a.5.5,0,0,1-.5-.5.5.5,0,0,1,.5-.5A9,9,0,0,0,255.22,59a.5.5,0,0,1,.71,0,.5.5,0,0,1,0,.71A9.8,9.8,0,0,1,249.13,62.76Z"/><path class="cls-3" d="M251.4,57.63a8.13,8.13,0,0,1-3.18-.53c-1.74-.85-3.47-6.32-2.6-9.73A.51.51,0,0,1,246,47c.25,0,6-.74,7.77-.74s2.8.09,3.22,1.21c.33.87,1,5.72-.3,8.1C255.87,57.09,253.5,57.63,251.4,57.63ZM246.52,48c-.59,3,.94,7.66,2.14,8.25,1.41.68,6.14.74,7.19-1.13,1.13-2,.48-6.61.24-7.25-.14-.4-.49-.56-2.28-.56C252.32,47.26,247.81,47.79,246.52,48Z"/><path class="cls-3" d="M256.56,48.14a.5.5,0,0,1,0-1l10.87-.74a.5.5,0,0,1,.07,1l-10.87.74Z"/><path class="cls-3" d="M240.6,55.38l-.15,0c-4.24-1.37-3.69-4.78-3.46-6.23a4.66,4.66,0,0,0,.08-.59.89.89,0,0,1,.3-.66c.76-.68,3.15-.56,4.23-.46,1.07-1.21,4-.56,4.63-.41a.51.51,0,0,1,.36.61A.49.49,0,0,1,246,48c-1.28-.32-3.35-.48-3.69.19a.5.5,0,0,1-.5.26c-1.73-.18-3.48-.09-3.75.19a1.88,1.88,0,0,1,0,.66c-.25,1.5-.65,4,2.77,5.12a.5.5,0,0,1,.32.63A.51.51,0,0,1,240.6,55.38Z"/><path class="cls-3" d="M251.63,52.47a2.93,2.93,0,0,1-2.21-1,.5.5,0,0,1,.09-.7.5.5,0,0,1,.7.08c.12.15,1.19,1.34,3.32-.1a.5.5,0,0,1,.7.13.51.51,0,0,1-.14.7A4.39,4.39,0,0,1,251.63,52.47Z"/><path class="cls-3" d="M248.72,47.11a.49.49,0,0,1-.41-.22.5.5,0,0,1,.12-.7,8.28,8.28,0,0,1,6.17-1,.5.5,0,0,1,.39.6.5.5,0,0,1-.6.38A7.3,7.3,0,0,0,249,47,.52.52,0,0,1,248.72,47.11Z"/><path class="cls-3" d="M270.25,94.63H270a1.52,1.52,0,0,1-1.28-1.7,154.27,154.27,0,0,1,4.71-22.43,1.51,1.51,0,1,1,2.87.91,154.14,154.14,0,0,0-4.59,21.94A1.51,1.51,0,0,1,270.25,94.63Z"/><path class="cls-3" d="M268,125.2A5.62,5.62,0,0,1,264.8,124a1.51,1.51,0,1,1,1.76-2.45,2.43,2.43,0,0,0,1.6.61,1.5,1.5,0,1,1,.42,3A3.52,3.52,0,0,1,268,125.2Z"/><path class="cls-3" d="M268.37,124.17a.51.51,0,0,1-.5-.43.5.5,0,0,1,.43-.57,2,2,0,0,0,1.28-.76,89.05,89.05,0,0,0,2.06-21.76.52.52,0,0,1,.48-.53.5.5,0,0,1,.52.48,90.31,90.31,0,0,1-2.1,22.12.47.47,0,0,1-.06.15,3,3,0,0,1-2,1.3Zm1.68-1.56h0Z"/><path class="cls-3" d="M270.4,125.2a3.52,3.52,0,0,1-.56,0,1.5,1.5,0,1,1,.42-3,2.45,2.45,0,0,0,1.6-.61,1.51,1.51,0,1,1,1.76,2.45A5.62,5.62,0,0,1,270.4,125.2Z"/><path class="cls-3" d="M270.05,124.17H270a3,3,0,0,1-2-1.3.47.47,0,0,1-.06-.15,90.31,90.31,0,0,1-2.1-22.12.49.49,0,0,1,.52-.48.52.52,0,0,1,.48.53,89.64,89.64,0,0,0,2.06,21.76,2,2,0,0,0,1.28.76.5.5,0,0,1-.07,1Z"/><path class="cls-3" d="M272.06,105.17l-.28,0a1.52,1.52,0,0,1-1.21-1.76,33.6,33.6,0,0,0,.5-7.24,1.63,1.63,0,0,0-1.21-1.66,1.21,1.21,0,0,0-1.29.38c-.58,1-.86,4.77-.79,7.73a1.5,1.5,0,0,1-1.47,1.54h0a1.51,1.51,0,0,1-1.51-1.47c0-1.17-.11-7.14,1.21-9.35a4.14,4.14,0,0,1,4.57-1.76,4.62,4.62,0,0,1,3.52,4.37,35.82,35.82,0,0,1-.54,8A1.5,1.5,0,0,1,272.06,105.17Z"/><path class="cls-3" d="M241.18,122.51a1.51,1.51,0,0,1-1.51-1.48c-.39-27.59,6.54-44.29,6.84-45a1.51,1.51,0,1,1,2.77,1.18c-.07.16-7,16.86-6.59,43.76a1.51,1.51,0,0,1-1.49,1.53Z"/><path class="cls-4" d="M246.51,118.39s-10.18-2-11.09-2-4.56,0-5.17.16-9.41,4.24-10,5.22,1.52,8.8,1.82,9.29,7.29.16,8,.16.76-2.44.76-2.44a9.57,9.57,0,0,0,3-1.14,25.71,25.71,0,0,0,2.73-2.29l8.2,1.63Z"/><path class="cls-3" d="M225.07,131.87c-2.93,0-3.26-.21-3.44-.51s-2.63-8.51-1.83-9.82,9.83-5.3,10.32-5.43a31.42,31.42,0,0,1,5.3-.18c.93,0,10.13,1.76,11.18,2a.52.52,0,0,1,.4.59l-1.67,8.64a.51.51,0,0,1-.21.32.57.57,0,0,1-.38.08l-8-1.58a23.76,23.76,0,0,1-2.61,2.15,9,9,0,0,1-2.82,1.13c-.05,1.1-.29,2.54-1.26,2.54l-.91,0C227.43,131.84,226.1,131.87,225.07,131.87Zm-2.63-1.14a42.81,42.81,0,0,0,6.72.05l.94,0a6.45,6.45,0,0,0,.26-1.94.5.5,0,0,1,.41-.5,8.92,8.92,0,0,0,2.85-1.06,23.46,23.46,0,0,0,2.66-2.23.53.53,0,0,1,.45-.13l7.71,1.53,1.48-7.64c-4.07-.78-9.89-1.86-10.5-1.86a36,36,0,0,0-5,.15c-.77.22-9.13,4.15-9.73,5C220.31,122.89,221.94,129.54,222.44,130.73Z"/><path class="cls-3" d="M230.86,129.32h0l-3.59-.19a.52.52,0,0,1-.47-.42l-.49-2.78a.5.5,0,0,1,.4-.58.49.49,0,0,1,.58.4l.43,2.39,3.19.18a.49.49,0,0,1,.47.52A.5.5,0,0,1,230.86,129.32Z"/><polygon class="cls-3" points="239.44 117.07 238.35 125.84 240.54 126.16 241.84 117.6 239.44 117.07"/><path class="cls-3" d="M240.54,126.66h-.07l-2.19-.32a.5.5,0,0,1-.43-.56L239,117a.45.45,0,0,1,.21-.34.43.43,0,0,1,.39-.08l2.4.53a.51.51,0,0,1,.38.57L241,126.24A.5.5,0,0,1,240.54,126.66Zm-1.63-1.24,1.21.17,1.15-7.6-1.4-.31Z"/><path class="cls-4" d="M242.33,117.11c-.06.49-.83.81-1.73.7s-1.6-.61-1.54-1.1.82-.82,1.73-.71S242.38,116.61,242.33,117.11Z"/><path class="cls-3" d="M241,118.33a3,3,0,0,1-.42,0c-1.21-.15-2.06-.86-2-1.66a1.1,1.1,0,0,1,.43-.75,2.57,2.57,0,0,1,1.86-.4c1.21.15,2.06.86,2,1.66h0a1.15,1.15,0,0,1-.44.75A2.35,2.35,0,0,1,241,118.33Zm-.52-1.85a1.39,1.39,0,0,0-.81.21c-.08.17.3.53,1,.62a1.65,1.65,0,0,0,1.11-.19h.56l-.5-.06c0-.1-.37-.46-1.1-.55Z"/><path class="cls-4" d="M278.4,100.62l.3,18.91-34.62-1.63-.92,15.32s43,9.45,45.56,9.29,9-1.31,11.24-3.59,1.83-14.34,1.83-14.34S298,91,296,86.28,278.7,76,278.09,75.85"/><path class="cls-3" d="M288.68,143c-3.28,0-43.88-8.92-45.62-9.3a.51.51,0,0,1-.4-.52l.91-15.32a.5.5,0,0,1,.53-.47l34.09,1.6-.29-18.37a.5.5,0,0,1,.49-.51.55.55,0,0,1,.51.49l.3,18.91a.48.48,0,0,1-.15.37.49.49,0,0,1-.37.14l-34.13-1.61-.86,14.4c12.23,2.69,43,9.34,45,9.19,2.79-.18,8.85-1.37,10.92-3.44,1.74-1.75,1.8-10.68,1.67-14,0-.3-3.8-33.52-5.73-38.13C293.74,82.13,279,76.62,278,76.34a.52.52,0,0,1-.35-.62.5.5,0,0,1,.61-.35c.16,0,16.11,5.58,18.26,10.72,2,4.74,5.65,37.06,5.8,38.43s.4,12.39-2,14.76-8.94,3.56-11.56,3.73Z"/><path class="cls-3" d="M291.46,120.68h0L278.68,120a.51.51,0,0,1-.48-.53.49.49,0,0,1,.53-.47l12.75.65a.5.5,0,0,1,0,1Z"/><rect class="cls-3" x="80.87" y="122.94" width="102.13" height="118.91" rx="11.76"/><path class="cls-3" d="M171.19,242.35H92.67A12.33,12.33,0,0,1,80.36,230v-95.3a12.33,12.33,0,0,1,12.31-12.31h78.52a12.33,12.33,0,0,1,12.31,12.31V230A12.33,12.33,0,0,1,171.19,242.35ZM92.67,123.44a11.31,11.31,0,0,0-11.3,11.3V230a11.32,11.32,0,0,0,11.3,11.31h78.52A11.32,11.32,0,0,0,182.49,230v-95.3a11.31,11.31,0,0,0-11.3-11.3Z"/><polygon class="cls-3" points="93.86 343.08 87.98 343.08 86.03 292.24 95.82 292.24 93.86 343.08"/><path class="cls-3" d="M93.86,343.59H88a.51.51,0,0,1-.5-.49l-2-50.84a.55.55,0,0,1,.14-.37.52.52,0,0,1,.37-.16h9.79a.52.52,0,0,1,.36.16.55.55,0,0,1,.14.37l-2,50.84A.51.51,0,0,1,93.86,343.59Zm-5.39-1h4.9l1.92-49.84H86.55Z"/><polygon class="cls-3" points="177.52 343.08 171.65 343.08 169.69 292.24 179.48 292.24 177.52 343.08"/><path class="cls-3" d="M177.52,343.59h-5.88a.51.51,0,0,1-.5-.49l-2-50.84a.51.51,0,0,1,.15-.37.48.48,0,0,1,.36-.16h9.79a.52.52,0,0,1,.36.16.55.55,0,0,1,.14.37l-2,50.84A.51.51,0,0,1,177.52,343.59Zm-5.39-1H177L179,292.74h-8.75Z"/><polygon class="cls-3" points="264.3 343.08 258.42 343.08 256.46 292.24 266.25 292.24 264.3 343.08"/><path class="cls-3" d="M264.3,343.59h-5.88a.51.51,0,0,1-.5-.49l-2-50.84a.55.55,0,0,1,.14-.37.52.52,0,0,1,.36-.16h9.79a.52.52,0,0,1,.37.16.55.55,0,0,1,.14.37l-2,50.84A.51.51,0,0,1,264.3,343.59Zm-5.39-1h4.9l1.92-49.84H257Z"/><polygon class="cls-3" points="380.44 343.08 374.57 343.08 372.61 292.24 382.4 292.24 380.44 343.08"/><path class="cls-3" d="M380.44,343.59h-5.87a.51.51,0,0,1-.5-.49l-2-50.84a.47.47,0,0,1,.14-.37.48.48,0,0,1,.36-.16h9.79a.48.48,0,0,1,.36.16.47.47,0,0,1,.14.37L381,343.1A.52.52,0,0,1,380.44,343.59Zm-5.39-1H380l1.92-49.84h-8.75Z"/><rect class="cls-4" x="80.24" y="277.91" width="315.07" height="16.71"/><path class="cls-3" d="M395.31,295.13H80.24a.5.5,0,0,1-.5-.5V277.91a.5.5,0,0,1,.5-.5H395.31a.5.5,0,0,1,.5.5v16.72A.51.51,0,0,1,395.31,295.13Zm-314.57-1H394.8V278.41H80.74Z"/><rect class="cls-4" x="258.65" y="277.91" width="136.66" height="16.71"/><path class="cls-3" d="M395.31,295.13H258.65a.51.51,0,0,1-.51-.5V277.91a.5.5,0,0,1,.51-.5H395.31a.5.5,0,0,1,.5.5v16.72A.51.51,0,0,1,395.31,295.13Zm-136.16-1H394.8V278.41H259.15Z"/><rect class="cls-4" x="76.82" y="222.95" width="322.14" height="29.15" rx="5.07"/><path class="cls-3" d="M393.87,252.6H81.92a5.6,5.6,0,0,1-5.6-5.6V228.05a5.6,5.6,0,0,1,5.6-5.6h312a5.6,5.6,0,0,1,5.59,5.6V247A5.6,5.6,0,0,1,393.87,252.6ZM81.92,223.46a4.6,4.6,0,0,0-4.59,4.59V247a4.6,4.6,0,0,0,4.59,4.6h312a4.6,4.6,0,0,0,4.59-4.6V228.05a4.6,4.6,0,0,0-4.59-4.59Z"/><rect class="cls-4" x="76.82" y="252.32" width="322.14" height="29.15" rx="5.07"/><path class="cls-3" d="M393.87,282H81.92a5.61,5.61,0,0,1-5.6-5.6v-19a5.6,5.6,0,0,1,5.6-5.59h312a5.6,5.6,0,0,1,5.59,5.59v19A5.61,5.61,0,0,1,393.87,282ZM81.92,252.82a4.6,4.6,0,0,0-4.59,4.59v19A4.6,4.6,0,0,0,81.92,281h312a4.6,4.6,0,0,0,4.59-4.59v-19a4.6,4.6,0,0,0-4.59-4.59Z"/><rect class="cls-4" x="265.04" y="222.95" width="133.92" height="29.15" rx="5.07"/><path class="cls-3" d="M393.87,252.6H270.14a5.6,5.6,0,0,1-5.6-5.6V228.05a5.6,5.6,0,0,1,5.6-5.6H393.87a5.6,5.6,0,0,1,5.59,5.6V247A5.6,5.6,0,0,1,393.87,252.6ZM270.14,223.46a4.6,4.6,0,0,0-4.6,4.59V247a4.61,4.61,0,0,0,4.6,4.6H393.87a4.6,4.6,0,0,0,4.59-4.6V228.05a4.6,4.6,0,0,0-4.59-4.59Z"/><rect class="cls-4" x="265.04" y="252.32" width="133.92" height="29.15" rx="5.07"/><path class="cls-3" d="M393.87,282H270.14a5.61,5.61,0,0,1-5.6-5.6v-19a5.6,5.6,0,0,1,5.6-5.59H393.87a5.6,5.6,0,0,1,5.59,5.59v19A5.61,5.61,0,0,1,393.87,282ZM270.14,252.82a4.6,4.6,0,0,0-4.6,4.59v19a4.6,4.6,0,0,0,4.6,4.59H393.87a4.6,4.6,0,0,0,4.59-4.59v-19a4.6,4.6,0,0,0-4.59-4.59Z"/><path class="cls-4" d="M138.1,118.8S116.41,115,107,116.09s-19.81.55-18.86,4.88,2.35,13,2.35,13,1.89,42.78,8.49,58.49,11.32,26.54,16.51,27.62,39.13-5.41,39.13-5.41,9.44,0,10.38-8.67-3.91-45.75-10.85-63.91-2.84-21-7.55-24.86S138.1,118.8,138.1,118.8Z"/><path class="cls-3" d="M117.12,220.7a9,9,0,0,1-1.76-.13c-5.35-1.11-9.89-11.33-16.86-27.91C91.94,177.05,90,134.42,90,134c0,0-1.41-8.64-2.34-12.92A2.42,2.42,0,0,1,88,119c1.52-2,6.34-2.39,12.43-2.84,2.12-.16,4.31-.32,6.46-.57,8.9-1,28.21,2.19,31,2.66a7.66,7.66,0,0,1,4.55-2.85,5.68,5.68,0,0,1,4.47,1.44c2.45,2,2.68,3.83,3.09,7.14a68.65,68.65,0,0,0,4.61,17.93c6.92,18.12,11.83,55.42,10.88,64.15-1,9-10.78,9.11-10.88,9.11C153.41,215.41,125.64,220.7,117.12,220.7ZM111,116.4a36.31,36.31,0,0,0-4,.19c-2.16.25-4.36.41-6.49.57-5.38.4-10.46.77-11.7,2.44a1.44,1.44,0,0,0-.23,1.26c.93,4.3,2.35,12.94,2.36,13,0,.48,2,42.93,8.45,58.38,5.93,14.09,11,26.25,16.15,27.32s38.6-5.35,38.94-5.42,9.09-.12,10-8.22c.94-8.65-3.94-45.67-10.82-63.68A69.87,69.87,0,0,1,149,124.1c-.4-3.25-.59-4.73-2.73-6.48a4.76,4.76,0,0,0-3.7-1.23,6.94,6.94,0,0,0-4.05,2.7.51.51,0,0,1-.5.21C137.82,119.26,121.32,116.4,111,116.4Z"/><path class="cls-3" d="M142.56,161.43a.5.5,0,0,1-.48-.37c-5.48-19.25-16.76-24.39-16.88-24.44a.5.5,0,0,1,.41-.92c.48.21,11.82,5.34,17.43,25.09a.49.49,0,0,1-.34.62Z"/><path class="cls-3" d="M142.56,152.39a.49.49,0,0,1-.48-.37c-6.69-23.82-13.13-28.12-13.2-28.16a.51.51,0,0,1-.16-.69.5.5,0,0,1,.69-.16c.28.17,6.8,4.4,13.63,28.74a.5.5,0,0,1-.34.62Z"/><path class="cls-4" d="M139.68,146.3s-12.82,6.1-14.28,10.47,2.33,34.56,2.33,34.56,41.83-16.42,48.38-16.89,7.43-.78,7.43-.78-9.61-16.89-13.26-19.54-6-4.54-9.76-6S144.93,145.67,139.68,146.3Z"/><path class="cls-3" d="M127.73,191.83a.45.45,0,0,1-.25-.07.48.48,0,0,1-.24-.37c-.16-1.23-3.79-30.34-2.31-34.77s14-10.52,14.54-10.78l.15,0c5.31-.63,17.12.44,21.08,1.9,3.45,1.29,5.68,2.93,8.77,5.2l1.11.81c3.69,2.69,13,19,13.4,19.7a.52.52,0,0,1-.27.73c-.09,0-1.12.34-7.56.81s-47.81,16.69-48.23,16.85A.58.58,0,0,1,127.73,191.83Zm12.1-45c-1.05.5-12.63,6.18-14,10.14-1.1,3.31,1,23.12,2.27,33.7,5.36-2.1,41.72-16.24,47.93-16.69,4-.28,5.84-.51,6.68-.64-1.76-3-9.64-16.49-12.77-18.78l-1.12-.81c-3-2.23-5.2-3.83-8.52-5.06C156.59,147.25,145,146.2,139.83,146.79Z"/><path class="cls-4" d="M159.27,134.11,158,143.34l-17.05-3.6.44-7.82s.44-8.29.73-9.07,1.75-1.09,4.08-.62,10.35,6.56,10.35,6.56Z"/><path class="cls-3" d="M158,143.84h-.1l-17.05-3.6a.51.51,0,0,1-.4-.52l.44-7.82c.07-1.39.46-8.4.76-9.21.41-1.11,2.11-1.46,4.65-1,2.38.48,9.72,6,10.55,6.66a.55.55,0,0,1,.14.17l2.77,5.32a.45.45,0,0,1,.05.3l-1.31,9.23a.5.5,0,0,1-.5.43Zm-16.52-4.5,16.1,3.39,1.21-8.53-2.64-5.07c-2.27-1.73-8.25-6-10.05-6.41-2.32-.47-3.37-.07-3.51.31s-.49,5-.7,8.92Z"/><path class="cls-4" d="M165.3,106.26a34.43,34.43,0,0,1,1.53,5.78c.08,1.64-.36,3.67.08,4.44s4.5,5.88,4.5,6.46-2.52,2.6-2.52,2.6-1.64,10.4-2.18,11.07-3.84.6-6.44,0-9.08-2.51-10.16-3.57a16.12,16.12,0,0,1-2.24-4.15,2.6,2.6,0,0,1-2.7-.38c-1.44-1.06-1.79-4.53-1.79-4.53s5.12-5.59,5.3-8.2.54-9,5-11.57S164.36,103.91,165.3,106.26Z"/><path class="cls-3" d="M164.39,137.59a21.76,21.76,0,0,1-4.23-.47c-2.07-.46-9.12-2.45-10.4-3.7a14.24,14.24,0,0,1-2.18-3.87,3.22,3.22,0,0,1-2.71-.62c-1.57-1.16-2-4.5-2-4.88a.5.5,0,0,1,.12-.39c1.4-1.52,5-5.9,5.18-7.89v-.14c.19-2.73.63-9.14,5.28-11.83a10.42,10.42,0,0,1,8.51-.6c1.92.66,3.34,1.73,3.79,2.87v0a34.9,34.9,0,0,1,1.56,5.93,17.27,17.27,0,0,1-.06,2,5.72,5.72,0,0,0,.08,2.17c.14.25.77,1.09,1.44,2,2.54,3.4,3.12,4.29,3.12,4.73s-.86,1.49-2.55,2.87c-.52,3.26-1.71,10.43-2.26,11.12C166.7,137.42,165.62,137.59,164.39,137.59Zm-16.52-9.18a.47.47,0,0,1,.17,0,.52.52,0,0,1,.3.3,14.61,14.61,0,0,0,2.13,4c.92.91,7.14,2.82,9.91,3.44s5.57.53,5.94.16c.34-.59,1.42-6.7,2.08-10.84a.46.46,0,0,1,.18-.31,13.75,13.75,0,0,0,2.3-2.21,45.56,45.56,0,0,0-2.9-4.13c-.82-1.11-1.34-1.8-1.5-2.08a5.36,5.36,0,0,1-.21-2.74,15.64,15.64,0,0,0,0-1.92,34.44,34.44,0,0,0-1.49-5.64,5.37,5.37,0,0,0-3.19-2.28,9.42,9.42,0,0,0-7.68.52c-4.18,2.42-4.6,8.45-4.77,11v.14c-.18,2.52-4.3,7.24-5.28,8.33.14,1,.61,3.25,1.57,4a2.07,2.07,0,0,0,2.16.35A.48.48,0,0,1,147.87,128.41Z"/><path class="cls-3" d="M165.57,128.84h0a6.09,6.09,0,0,1-4.32-1.92.5.5,0,0,1,.07-.71.5.5,0,0,1,.7.07h0a5,5,0,0,0,3.59,1.55.51.51,0,0,1,.48.52A.5.5,0,0,1,165.57,128.84Z"/><path class="cls-3" d="M161.16,114.76a.49.49,0,0,1-.32-.12.5.5,0,0,1-.05-.71,4.3,4.3,0,0,1,3.77-1.23.51.51,0,0,1,.43.57.52.52,0,0,1-.57.43,3.3,3.3,0,0,0-2.88.89A.49.49,0,0,1,161.16,114.76Z"/><path class="cls-3" d="M164.31,117.68c0,.88-.38,1.59-.85,1.59s-.86-.71-.86-1.59.38-1.59.86-1.59S164.31,116.8,164.31,117.68Z"/><path class="cls-3" d="M155,107a50,50,0,0,0-1.47,7.12c-.15,2.37-.15,4.9-1.47,5.53s-8.55,6.17-8.55,6.17-.88,3.32.44,4.42a5.73,5.73,0,0,0,2.07,1.27s0,1.58-1,1.74-2.35.31-2.35.31l1.32.63a5.65,5.65,0,0,1-6.77,1.74c-1.77-.79-5.45-1.89-5.75-4.11s-.74-9.48-.74-11.85-1.62-6.33-.88-11.07,12.38-14.7,15.76-15.65,13.7,1.58,13.7,1.58,8.11,2.37,9.29,4.27,1.17,5.37,1.17,5.37l-3.83-1.1a2.55,2.55,0,0,1,.74,1.89,20.66,20.66,0,0,1-.44,3.32l-4.42-3.47s-2.36,1.89-2.8,2.21-2.65,1.74-2.65,1.74l.15-3.32Z"/><path class="cls-3" d="M139.32,136.89a5.57,5.57,0,0,1-2.31-.48l-.93-.39c-2-.82-4.82-2-5.11-4.11s-.74-9.43-.74-11.92a17.88,17.88,0,0,0-.4-2.89,23.25,23.25,0,0,1-.48-8.26c.77-5,12.51-15,16.13-16.06s13.53,1.48,14,1.58c.87.26,8.35,2.49,9.59,4.49s1.26,5.49,1.26,5.64a.51.51,0,0,1-.64.49l-2.62-.76a3.33,3.33,0,0,1,.16,1.06,20.85,20.85,0,0,1-.45,3.43.52.52,0,0,1-.32.37.49.49,0,0,1-.48-.08l-4.11-3.23c-.66.53-2.15,1.72-2.51,2s-2.58,1.69-2.67,1.75a.49.49,0,0,1-.52,0,.5.5,0,0,1-.25-.45l.09-2.17-.47.41a46.32,46.32,0,0,0-1.42,6.87l0,.7c-.13,2.34-.25,4.56-1.72,5.25-1,.49-6.22,4.4-8.31,6-.21.91-.51,3.06.31,3.75a5.71,5.71,0,0,0,1.86,1.16.51.51,0,0,1,.39.49c0,.74-.31,2.06-1.46,2.23l-.74.11a.55.55,0,0,1,.12.24.45.45,0,0,1-.1.42,6.6,6.6,0,0,1-2.45,1.9A8.46,8.46,0,0,1,139.32,136.89Zm8.36-43.34a7.47,7.47,0,0,0-1.93.2c-3.18.89-14.71,10.76-15.4,15.25a22.62,22.62,0,0,0,.46,7.91,17.47,17.47,0,0,1,.43,3.08c0,2.41.45,9.68.73,11.79.21,1.57,2.78,2.62,4.48,3.31.36.15.69.28,1,.41a5.83,5.83,0,0,0,4.22,0,4.43,4.43,0,0,0,1.52-1.09l-.71-.34a.51.51,0,0,1,.16-1s1.32-.15,2.34-.31c.37-.06.51-.56.57-.91a7.88,7.88,0,0,1-1.85-1.21c-1.53-1.28-.7-4.57-.6-4.94a.42.42,0,0,1,.18-.27c.29-.23,7.27-5.58,8.63-6.22.93-.45,1-2.46,1.15-4.41l0-.7a48.11,48.11,0,0,1,1.49-7.22.51.51,0,0,1,.16-.25l1.47-1.26a.5.5,0,0,1,.55-.07.49.49,0,0,1,.28.47l-.11,2.35,1.82-1.2c.42-.3,2.75-2.18,2.77-2.2a.52.52,0,0,1,.63,0l3.77,3a15.08,15.08,0,0,0,.28-2.42,2,2,0,0,0-.57-1.52.5.5,0,0,1,.47-.86l3.17.92a10.75,10.75,0,0,0-1.08-4.44c-.78-1.26-5.93-3.15-9-4C159.11,95.32,151.86,93.55,147.68,93.55Z"/><path class="cls-6" d="M146.23,147l3.22,36.14,7.32-2.83A76.13,76.13,0,0,0,153,161.43c-3.22-8.8-2.63-13.52-2.63-13.52Z"/><path class="cls-6" d="M148.45,146.05s6.74,11.63,8.79,17.6,6.44,28.59,6.44,28.59l15.81-3.77s-10.25-22.31-14.64-29.22-8.2-12.57-8.2-12.57Z"/><path class="cls-6" d="M146.45,138.34s-7-2.25-7.43-1-1.75,10.13-.58,11.11,4.66,2.39,13,2.53,10.49.43,10.92-.42-.14-4.78,0-6.89-.43-3-1.45-3.38S146.45,138.34,146.45,138.34Z"/><path class="cls-6" d="M216.07,184.73s-18.69-4.3-25.36-6.09-35,7.88-42.71,9.67-20.69,6.09-30.37,19-9.35,85.78-9.68,87.57,16,10.74,27.7,10S156,301,166,302.38s30.7,12.17,43.38,9.31,22-4.66,29.36-4.66,8.34,2.87,18.36,0V225.19h94.77s-11-20.05-17.69-22.91-29.36,1.79-37.37-.36-30.37-6.45-35-8.95-14.69-7.88-23.36-10S216.07,184.73,216.07,184.73Z"/><path class="cls-3" d="M283.15,205.58c-.29,0-.77-.19-3.16-1.38a.5.5,0,0,1,.45-.9,29.38,29.38,0,0,0,2.75,1.28.48.48,0,0,1,.48.5A.52.52,0,0,1,283.15,205.58Z"/><path class="cls-3" d="M232,208.48a.48.48,0,0,1-.38-.17.51.51,0,0,1,.05-.71c7.74-6.7,18.17-14.59,23.81-14.12s14.55,4.66,20.89,7.79a.5.5,0,0,1,.23.67.51.51,0,0,1-.68.23c-6.26-3.09-15.2-7.25-20.52-7.69-4.12-.33-12.34,4.59-23.07,13.88A.5.5,0,0,1,232,208.48Z"/><path class="cls-3" d="M225.75,214.18a.51.51,0,0,1-.36-.15.5.5,0,0,1,0-.71s1.78-1.73,4.45-4.11a.5.5,0,1,1,.67.75c-2.65,2.36-4.41,4.06-4.42,4.08A.54.54,0,0,1,225.75,214.18Z"/><path class="cls-6" d="M189.13,178.43c-8.72-.35-34,8.21-41.13,9.88-7.68,1.79-20.69,6.09-30.37,19s-9.35,85.78-9.68,87.57a.63.63,0,0,0,.15.44c5.13-7,19.21-8.75,19.21-10.47,0-2.15,1-66.8,1.66-72.17s34.71-28.29,34.71-28.29Z"/><path class="cls-4" d="M138.66,162.09l4.23,17.83s34.83-9.85,37.59-10.32a17.09,17.09,0,0,1,7.14.78c.88.31,8.89,5.63,9.48,6.41l.58.78h-5.39c-2.33,0-4.67.47-7,0s-6-1.25-6-1.25-35.56,17.51-38.76,18.77-7.87,3.75-9.62,2.81-2.33-2.5-2.77-4.53-3.64-33.78-3.2-35.19.43-3.28,3.78-5.31a9.92,9.92,0,0,1,7-1.1"/><path class="cls-3" d="M131.92,198.6a2.58,2.58,0,0,1-1.22-.26c-1.86-1-2.53-2.6-3-4.87-.38-1.75-3.68-33.89-3.19-35.44.06-.19.11-.4.16-.61.34-1.32.8-3.14,3.84-5a10.38,10.38,0,0,1,7.38-1.16.52.52,0,0,1,.37.62.52.52,0,0,1-.62.36,9.44,9.44,0,0,0-6.6,1c-2.7,1.63-3.07,3.09-3.39,4.37q-.09.35-.18.66c-.35,1.55,2.67,32.41,3.21,34.93.44,2,1,3.38,2.52,4.2,1.14.61,4.33-.76,6.88-1.87.81-.35,1.6-.69,2.31-1,3.15-1.23,38.37-18.57,38.73-18.75a.51.51,0,0,1,.32,0s3.64.78,6,1.25a17.12,17.12,0,0,0,4.53.1c.77-.06,1.57-.11,2.37-.11h4.39a83.43,83.43,0,0,0-9.23-6.22,16.6,16.6,0,0,0-6.88-.76c-2.71.46-37.2,10.21-37.55,10.31a.49.49,0,0,1-.39-.05.51.51,0,0,1-.23-.32l-4.23-17.82a.52.52,0,0,1,.38-.61.5.5,0,0,1,.6.38l4.11,17.31c4.46-1.26,34.53-9.74,37.14-10.19a17.29,17.29,0,0,1,7.39.81c1,.34,9.06,5.71,9.71,6.58l.58.78a.53.53,0,0,1,0,.53.5.5,0,0,1-.45.27h-5.39c-.76,0-1.55.06-2.3.11a18,18,0,0,1-4.8-.12c-2-.41-5.06-1.05-5.81-1.21-2.88,1.42-35.53,17.49-38.64,18.7-.7.28-1.48.61-2.28,1C136.07,197.54,133.63,198.6,131.92,198.6Z"/><path class="cls-4" d="M197.1,176.79c-.59-.78-8.6-6.1-9.48-6.41a17.09,17.09,0,0,0-7.14-.78c-.8.13-4.27,1.05-8.8,2.29l2.1,7.15,5.54-2.72s3.64.78,6,1.25,4.67,0,7,0h5.39Z"/><path class="cls-3" d="M173.78,179.55a.46.46,0,0,1-.2-.05.47.47,0,0,1-.28-.32L171.2,172a.5.5,0,0,1,.35-.63c5.21-1.42,8.11-2.17,8.85-2.3a17.29,17.29,0,0,1,7.39.81c1,.34,9.06,5.71,9.71,6.58l.58.78a.53.53,0,0,1,0,.53.5.5,0,0,1-.45.27h-5.39c-.76,0-1.55.06-2.3.11a18,18,0,0,1-4.8-.12c-2-.41-5.06-1.05-5.81-1.21L174,179.49A.43.43,0,0,1,173.78,179.55Zm-1.47-7.31,1.79,6.09,5-2.46a.51.51,0,0,1,.32,0s3.64.78,6,1.25a17.12,17.12,0,0,0,4.53.1c.77-.06,1.57-.11,2.37-.11h4.39a83.43,83.43,0,0,0-9.23-6.22,16.6,16.6,0,0,0-6.88-.76C179.89,170.21,177.11,170.93,172.31,172.24Z"/><path class="cls-4" d="M205.8,163.14s-5.88.46-6.63,1.13-2,5.94-2.45,6.84-.89,2.14.67,1.76,3.75-4.91,3.75-4.91Z"/><path class="cls-3" d="M196.9,173.44a1.06,1.06,0,0,1-.86-.35c-.46-.55-.12-1.42.23-2.19.12-.27.36-1.09.62-2,.78-2.64,1.38-4.54,2-5,.82-.72,5.51-1.14,6.92-1.25a.52.52,0,0,1,.5.29.49.49,0,0,1-.1.56l-4.6,4.76c-.46.94-2.39,4.71-4.05,5.11A2.57,2.57,0,0,1,196.9,173.44Zm-.08-1h0Zm7.68-8.71a20.28,20.28,0,0,0-5,.88c-.4.36-1.24,3.21-1.65,4.57-.29,1-.52,1.77-.67,2.11-.35.76-.38,1-.36,1.13a3.09,3.09,0,0,0,.45-.07c.92-.22,2.55-2.85,3.42-4.64a.38.38,0,0,1,.09-.13Z"/><path class="cls-3" d="M214.37,263.53a.5.5,0,0,1-.5-.5v-5.51a.51.51,0,0,1,1,0V263A.5.5,0,0,1,214.37,263.53Z"/><path class="cls-3" d="M214.37,252.79a.51.51,0,0,1-.5-.51V221.92c0-2.13,3.86-3.37,4.3-3.51a.51.51,0,0,1,.63.34.5.5,0,0,1-.33.62c-1.39.43-3.59,1.5-3.59,2.55v30.36A.51.51,0,0,1,214.37,252.79Z"/><path class="cls-3" d="M212.12,248.12h0a.5.5,0,0,1-.49-.52c0-.15.28-15.44,0-19.6-.3-4.46,2.35-6.41,2.46-6.49a.5.5,0,0,1,.59.81c-.1.08-2.31,1.74-2,5.61.28,4.21,0,19.06,0,19.69A.5.5,0,0,1,212.12,248.12Z"/><path class="cls-3" d="M167.89,263.53a.5.5,0,0,1-.5-.5v-2.41a.5.5,0,0,1,1,0V263A.5.5,0,0,1,167.89,263.53Z"/><path class="cls-3" d="M167.89,257.07a.5.5,0,0,1-.5-.5V221.92c0-2.13,3.86-3.37,4.3-3.51a.5.5,0,0,1,.62.34.48.48,0,0,1-.33.62c-1.39.43-3.59,1.5-3.59,2.55v34.65A.5.5,0,0,1,167.89,257.07Z"/><path class="cls-3" d="M165.64,248.12h0a.52.52,0,0,1-.5-.52c0-.15.28-15.44,0-19.6-.3-4.46,2.35-6.41,2.46-6.49a.51.51,0,0,1,.7.11.5.5,0,0,1-.12.7c-.1.08-2.3,1.74-2,5.61.28,4.21,0,19.06,0,19.69A.51.51,0,0,1,165.64,248.12Z"/><rect class="cls-4" x="18.84" y="226.04" width="74.8" height="117.05"/><path class="cls-3" d="M93.64,343.59H18.84a.5.5,0,0,1-.5-.51V226a.5.5,0,0,1,.5-.51h74.8a.51.51,0,0,1,.51.51v117A.51.51,0,0,1,93.64,343.59Zm-74.3-1h73.8v-116H19.34Z"/><rect class="cls-4" x="45.69" y="226.04" width="47.96" height="117.05"/><path class="cls-3" d="M93.64,343.59H45.69a.51.51,0,0,1-.51-.51V226a.51.51,0,0,1,.51-.51h48a.51.51,0,0,1,.51.51v117A.51.51,0,0,1,93.64,343.59Zm-47.45-1h47v-116H46.19Z"/><rect class="cls-4" x="49.44" y="234.57" width="40.45" height="23.86"/><path class="cls-3" d="M89.89,258.93H49.44a.5.5,0,0,1-.5-.5V234.57a.5.5,0,0,1,.5-.5H89.89a.5.5,0,0,1,.5.5v23.86A.5.5,0,0,1,89.89,258.93Zm-39.95-1H89.38V235.07H49.94Z"/><rect class="cls-3" x="61.85" y="244.23" width="15.63" height="4.55"/><path class="cls-3" d="M77.48,249.28H61.85a.5.5,0,0,1-.5-.51v-4.54a.5.5,0,0,1,.5-.5H77.48a.5.5,0,0,1,.5.5v4.54A.5.5,0,0,1,77.48,249.28Zm-15.13-1H77v-3.54H62.35Z"/><rect class="cls-4" x="49.44" y="267.25" width="40.45" height="23.86"/><path class="cls-3" d="M89.89,291.62H49.44a.5.5,0,0,1-.5-.5V267.25a.5.5,0,0,1,.5-.5H89.89a.5.5,0,0,1,.5.5v23.87A.51.51,0,0,1,89.89,291.62Zm-39.95-1H89.38V267.75H49.94Z"/><rect class="cls-3" x="61.85" y="276.91" width="15.63" height="4.55"/><path class="cls-3" d="M77.48,282H61.85a.5.5,0,0,1-.5-.5v-4.55a.5.5,0,0,1,.5-.5H77.48a.5.5,0,0,1,.5.5v4.55A.5.5,0,0,1,77.48,282Zm-15.13-1H77v-3.54H62.35Z"/><rect class="cls-4" x="49.44" y="299.93" width="40.45" height="23.86"/><path class="cls-3" d="M89.89,324.3H49.44a.5.5,0,0,1-.5-.5V299.93a.5.5,0,0,1,.5-.5H89.89a.51.51,0,0,1,.5.5V323.8A.5.5,0,0,1,89.89,324.3Zm-39.95-1H89.38V300.44H49.94Z"/><rect class="cls-3" x="61.85" y="309.59" width="15.63" height="4.55"/><path class="cls-3" d="M77.48,314.64H61.85a.5.5,0,0,1-.5-.5v-4.55a.5.5,0,0,1,.5-.5H77.48a.5.5,0,0,1,.5.5v4.55A.5.5,0,0,1,77.48,314.64Zm-15.13-1H77V310.1H62.35Z"/><rect class="cls-4" x="15.82" y="222.24" width="80.23" height="7.17"/><path class="cls-3" d="M96.05,229.91H15.82a.5.5,0,0,1-.5-.5v-7.17a.5.5,0,0,1,.5-.5H96.05a.5.5,0,0,1,.5.5v7.17A.5.5,0,0,1,96.05,229.91Zm-79.73-1H95.54v-6.17H16.32Z"/><rect class="cls-4" x="40.48" y="222.24" width="55.57" height="7.17"/><path class="cls-3" d="M96.05,229.91H40.48a.5.5,0,0,1-.5-.5v-7.17a.5.5,0,0,1,.5-.5H96.05a.5.5,0,0,1,.5.5v7.17A.5.5,0,0,1,96.05,229.91Zm-55.07-1H95.54v-6.17H41Z"/><path class="cls-4" d="M61.56,222.24a8.4,8.4,0,0,0,7.63-5,25.26,25.26,0,0,0,2.14-10.36,24.61,24.61,0,0,0-3-12.09A38.24,38.24,0,0,1,63.62,176v-.38h.68a1.59,1.59,0,0,0,1.57-1.43,1.56,1.56,0,0,0-1.48-1.76H49.94a1.57,1.57,0,0,0-1.56,1.43,1.55,1.55,0,0,0,1.47,1.76h.77V176a38.24,38.24,0,0,1-4.69,18.83,24.61,24.61,0,0,0-3,12.09,25.46,25.46,0,0,0,2,10,8.58,8.58,0,0,0,7.79,5.36Z"/><path class="cls-3" d="M61.56,222.74H52.69a9.1,9.1,0,0,1-8.25-5.66,26,26,0,0,1-2-10.21,25,25,0,0,1,3.08-12.34,37.62,37.62,0,0,0,4.63-18.46h-.27a1.91,1.91,0,0,1-1.43-.64,2.16,2.16,0,0,1-.54-1.66,2.08,2.08,0,0,1,2.06-1.89H64.39a1.92,1.92,0,0,1,1.43.65,2.16,2.16,0,0,1,.55,1.66,2.09,2.09,0,0,1-2.07,1.88h-.18a37.62,37.62,0,0,0,4.63,18.46,25,25,0,0,1,3.08,12.34,25.89,25.89,0,0,1-2.18,10.57A8.94,8.94,0,0,1,61.56,222.74ZM49.94,172.89a1.07,1.07,0,0,0-1.06,1,1.17,1.17,0,0,0,.28.89.92.92,0,0,0,.69.32h.77a.5.5,0,0,1,.5.5V176A38.64,38.64,0,0,1,46.37,195a24,24,0,0,0-3,11.85,25.07,25.07,0,0,0,2,9.81,8.1,8.1,0,0,0,7.33,5.06h8.87A7.93,7.93,0,0,0,68.73,217a24.92,24.92,0,0,0,2.1-10.16,24,24,0,0,0-3-11.85A38.54,38.54,0,0,1,63.12,176v-.38a.5.5,0,0,1,.5-.5h.68a1.08,1.08,0,0,0,1.07-1,1.2,1.2,0,0,0-.29-.9.94.94,0,0,0-.69-.31Z"/><rect class="cls-4" x="37.99" y="132.43" width="38.26" height="47.66"/><path class="cls-3" d="M76.25,180.58H38a.5.5,0,0,1-.5-.5V132.43a.5.5,0,0,1,.5-.51H76.25a.5.5,0,0,1,.5.51v47.65A.5.5,0,0,1,76.25,180.58Zm-37.76-1H75.75V132.93H38.49Z"/><path class="cls-3" d="M485.09,343.59H7.38a.51.51,0,1,1,0-1H485.09a.51.51,0,0,1,0,1Z"/></g></g></svg>