<svg xmlns="http://www.w3.org/2000/svg" xmlns:xlink="http://www.w3.org/1999/xlink" viewBox="0 0 291.3 93.22"><defs><style>.cls-1{fill:url(#linear-gradient);}.cls-2{fill:url(#linear-gradient-2);}.cls-3{fill:url(#linear-gradient-3);}.cls-4{fill:url(#linear-gradient-4);}.cls-5{fill:url(#linear-gradient-5);}.cls-6{fill:url(#linear-gradient-6);}.cls-7{fill:url(#linear-gradient-7);}.cls-8{fill:url(#linear-gradient-8);}.cls-9{fill:url(#linear-gradient-9);}.cls-10{fill:#fff;}.cls-11{fill:url(#linear-gradient-10);}</style><linearGradient id="linear-gradient" x1="22.83" y1="29.2" x2="22.83" y2="82.55" gradientUnits="userSpaceOnUse"><stop offset="0" stop-color="#ed0204"/><stop offset="1"/></linearGradient><linearGradient id="linear-gradient-2" x1="201.04" y1="29.2" x2="201.04" y2="82.55" xlink:href="#linear-gradient"/><linearGradient id="linear-gradient-3" x1="251.85" y1="29.2" x2="251.85" y2="82.55" xlink:href="#linear-gradient"/><linearGradient id="linear-gradient-4" x1="149" y1="29.2" x2="149" y2="82.55" xlink:href="#linear-gradient"/><linearGradient id="linear-gradient-5" x1="104.56" y1="29.2" x2="104.56" y2="82.55" xlink:href="#linear-gradient"/><linearGradient id="linear-gradient-6" x1="268.29" y1="29.2" x2="268.29" y2="82.55" xlink:href="#linear-gradient"/><linearGradient id="linear-gradient-7" x1="53.06" y1="29.2" x2="53.06" y2="82.55" xlink:href="#linear-gradient"/><linearGradient id="linear-gradient-8" x1="93.9" y1="29.2" x2="93.9" y2="82.55" xlink:href="#linear-gradient"/><linearGradient id="linear-gradient-9" x1="103.7" y1="29.2" x2="103.7" y2="82.55" xlink:href="#linear-gradient"/><linearGradient id="linear-gradient-10" x1="31.88" y1="56.49" x2="31.88" y2="62.3" xlink:href="#linear-gradient"/></defs><title>Khelpati</title><g id="Layer_2" data-name="Layer 2"><g id="Layer_1-2" data-name="Layer 1"><path class="cls-1" d="M19.53,54c3-2.1,6.32-4,9.09-6.46,5.13-4.54,4.7-8.6-1.21-12.13a40.15,40.15,0,0,0-9.85-3.87c5.89,5.13,9.09,10.83,3.69,17.38-1.89,2.29-5.54,3.25-8.33,4.79,1.69,4.43,4,10.39,6.24,16.4,2.79,7.67,8,12.74,17.64,14.18A29.83,29.83,0,0,1,4.53,71.45C-2.36,60.7-1.41,46.27,7.54,37c10-10.42,16.06-10.8,24.64-6,6.94,3.87,9,10,8.07,17.34C39.36,55,38,61.62,37.35,68.34c-.71,7.78.86,9.77,8.3,12.55-4.39,2.2-8.8,1.83-12.34-2.35-3.23-3.82-5.48-8.44-7.93-12.83C23.32,62,21.59,58.15,19.53,54Zm12,12.6c2.86-3.65,5.81-5.78,5.7-7.75s-3.14-4-4.9-6c-2.12,1.86-5.43,3.44-6,5.66C25.89,60.2,28.89,62.72,31.51,66.57Z"/><path class="cls-2" d="M178.63,36.34h46.54l.2,2-6.55,1.46c4.41,16.54.34,32.7-3.46,48.91-3.7-16.11-4.52-32.26,0-49h-8.94c4.3,16.79.07,32.81-3.75,49.05q-1.27-7.22-2.53-14.44c-.32-.22-.63-.62-.95-.62C181.29,73.6,173.34,62.92,178,45.5,178.73,42.92,178.42,40.1,178.63,36.34ZM202,39.64H184.41c-.66,19.58,3.7,27.86,14.73,29.2C200.07,59.3,201,49.75,202,39.64Z"/><path class="cls-3" d="M263.28,88.57V39.4c-1.28-.07-2.44-.19-3.59-.17-.95,0-1.91.2-3.16.34,0,7.63-1.77,14.1-11,16.23.12-1.56.24-3,.39-4.73-5.55-.35-7.85,3.17-9.67,7.08-3.56,7.67-2.42,15.28,2.87,20.51s10.39,6,17.81,3.22c-4.86,6-11.63,7.33-19.73,3.84-9.15-4-13.19-12-11-22,2.3-10.49,8.41-15.3,20.11-15.54.69-2.62,1.41-5.35,2.25-8.58l-10.41-.77-.43-1.17A12.13,12.13,0,0,1,240.51,36c2.68-.74,6.44,1.64,7.94-2.64a2.74,2.74,0,0,1,2.22-.05c6.77,5.11,14.68,1.1,21.88,2.6a52,52,0,0,0,5.46.56l.09,2-10,1.24c2.68,16.37,5.16,33-2.79,48.82Z"/><path class="cls-4" d="M157.38,75.92c-14.88-1.6-17.59-10.93-7.9-25.8-7.54-.46-14,5-14.34,12.14-.24,6.13,2.25,11.24,6.74,15.57a32.47,32.47,0,0,1,6.43,8.26c-3.78-2-7.64-3.86-11.31-6-11.8-7-14.45-21.95-4.68-29.39a22.81,22.81,0,0,1,13.19-4c5.77.07,11.52,2.19,17.75,3.52.68-3.91,1.22-7.07,1.91-11h-14.5c2.18-3.47,15.5-4.63,20-2.82,0,3.89-.4,7.45.06,10.91,2,15,.9,28.84-5,40.58-.94-9.14-1.82-18.28-2.86-27.41a34.9,34.9,0,0,0-1.6-5.61c-2.21,1-5,1.51-6.53,3.11-4.14,4.25-3.64,9.15-.67,13.89A45.51,45.51,0,0,0,157.38,75.92Z"/><path class="cls-5" d="M137.16,38.93H120.7c4.56,17,1.56,32.86-4.26,48.7l-1.65-20.81c-4,5.31-8.3,8.36-14.3,5.56-4.52-2.11-6-6.15-5.6-10.7.38-4.23,12.91-8.35,17.31-8.67.18,2.73-10.75,6.62-9.73,8.78.82,1.74,3.57,3.88,5.23,3.71,2-.2,5-2.4,5.41-4.18,1.59-7.06,2.33-14.29,3.44-21.82H93.83c2.29,13.4,0,20.46-7.27,22.7-6.45,2-11.1-.26-14.85-7.16,8.8,2.36,13.09.81,14.92-5.39,2.11-7.14,1-8.74-9.65-12.13,4.64-1.32,7.82-3,11-3,9.86-.11,19.74.31,29.6.71,6.61.26,13.21.83,19.82,1.27Z"/><path class="cls-6" d="M245.72,27c-1.87-11.12,2.12-18.71,11.58-23.59,9.73-5,21.48-4.42,28.32,1.49,4.91,4.25,6.87,9.52,5,15.68-2,6.45-6.4,11.26-13.57,11.4-6.58.13-13.2-1.43-19.81-2.24l.26-2.2a31.8,31.8,0,0,0,5.36.57c4-.26,8.1-.25,11.83-1.36,5-1.48,8.37-5.24,7.89-10.42s-4.87-7.17-9.75-8C260.52,6.27,250.63,12.8,245.72,27Z"/><path class="cls-7" d="M47.5,80.39c-1.1-3.77-2.85-6.8-2.63-9.7.48-6.49,1.85-12.92,3-19.35,1-5.43,2.24-10.81,3.37-16.17C65.68,45.43,64.6,68.26,47.5,80.39Z"/><path class="cls-8" d="M81.79,64.8c5.06-1.08,9,1.31,11.56,5.24,2.88,4.37,4.87,9.27,7.41,13.86,1.56,2.83,3.41,5.51,5.25,8.45-4.81,2.23-9.11-.06-12.21-4.24C91.39,84.86,90,80.93,88.12,77.3Z"/><path class="cls-9" d="M117.55,24.09C102.63,26.25,90.13,17.3,89.85,4.4Z"/><ellipse class="cls-10" cx="15.58" cy="41.4" rx="2.42" ry="2.32"/><ellipse class="cls-11" cx="31.88" cy="59.39" rx="3.02" ry="2.9"/></g></g></svg>