<svg xmlns="http://www.w3.org/2000/svg" viewBox="0 0 166.93 101.43"><defs><style>.cls-1{fill:#00559c;}.cls-2{fill:#f65058;}.cls-3{fill:#fff;}</style></defs><title>machhu-pasale</title><g id="Layer_2" data-name="Layer 2"><g id="Layer_1-2" data-name="Layer 1"><path class="cls-1" d="M4.34,80A6.35,6.35,0,0,1,9.1,78H28.5V88.21a6.66,6.66,0,0,1-2,4.84,6.45,6.45,0,0,1-4.76,2h-14v6.37H2.36V84.8A6.58,6.58,0,0,1,4.34,80ZM9.1,83.33a1.34,1.34,0,0,0-1,.45,1.38,1.38,0,0,0-.4,1v4.9h14a1.37,1.37,0,0,0,1-.45,1.42,1.42,0,0,0,.38-1V83.33Z"/><path class="cls-1" d="M51.35,95.48H37.07v6H31.71V84.94a6.64,6.64,0,0,1,2-4.89A6.58,6.58,0,0,1,38.5,78H56.7v23.45H51.35Zm0-5.36v-6.8H38.5a1.41,1.41,0,0,0-1,.35,1.29,1.29,0,0,0-.42.92v5.53Z"/><path class="cls-1" d="M84.72,94.53a6.6,6.6,0,0,1-2,4.87,6.53,6.53,0,0,1-4.76,2H59.94V96.07H77.37a1.56,1.56,0,0,0,1.14-.48A1.75,1.75,0,0,0,79,94.7V92.21H59.92V84.88A6.59,6.59,0,0,1,61.87,80a6.47,6.47,0,0,1,4.76-2H84.7v5.35H66.63a1.61,1.61,0,0,0-1.15.49A1.58,1.58,0,0,0,65,84.88v2.3H84.7Z"/><path class="cls-1" d="M107.57,95.48H93.29v6H87.93V84.94a6.64,6.64,0,0,1,2-4.89A6.58,6.58,0,0,1,94.72,78h18.21v23.45h-5.36Zm0-5.36v-6.8H94.72a1.41,1.41,0,0,0-1,.35,1.29,1.29,0,0,0-.42.92v5.53Z"/><path class="cls-1" d="M121.5,94.82a1.25,1.25,0,0,0,.42.91,1.34,1.34,0,0,0,1,.36h17v5.34h-17a6.93,6.93,0,0,1-6.79-7V78h5.36Z"/><path class="cls-1" d="M166.93,83.33H148.5V87h18.43v5.37H148.5v2.43a1.25,1.25,0,0,0,.42.91,1.34,1.34,0,0,0,1,.36h17v5.34h-17a6.93,6.93,0,0,1-6.79-7V78h23.79Z"/><path class="cls-1" d="M83.12,43.11c10.94-.08,18.94-5.52,24.29-14.9,2.46-4.32.52-10.11-5.79-9.4a21,21,0,0,1-2.1,0c-5.92.06-5.15-.19-5.26-4.91a8.51,8.51,0,0,0-.78-2.83q-.11-.43-.24-.87a19.42,19.42,0,0,0-1.41-3.36A18.38,18.38,0,0,0,89.72,3.8,12.74,12.74,0,0,0,86.9,1.28,9.08,9.08,0,0,0,85.28.47,6.72,6.72,0,0,0,83.88.1,7.29,7.29,0,0,0,82.2,0a8,8,0,0,0-1.55.31A8.34,8.34,0,0,0,79.18,1a11.29,11.29,0,0,0-1.41,1,13,13,0,0,0-2.29,2.33,23.07,23.07,0,0,0-2.24,3.47,20,20,0,0,0-1.54,3.74c-.09.33-.17.67-.24,1a1.14,1.14,0,0,0,.08.79c-.11,5.59,1,5.63-6,5.57a9.59,9.59,0,0,1-1.2,0c-6.71-.79-8.35,5.3-5.91,9.51C63.94,37.79,72,43.19,83.12,43.11Zm5-11.25a5.23,5.23,0,1,1-10.45-.56,5.23,5.23,0,0,1,10.45.56ZM76.43,6.61c.2-.3.41-.59.63-.88a13.57,13.57,0,0,1,2.15-2.2,9.16,9.16,0,0,1,1.59-.95,4.88,4.88,0,0,1,2.57-.37,6.67,6.67,0,0,1,1.39.39,8,8,0,0,1,1.61,1A12.86,12.86,0,0,1,88.5,5.73a17.62,17.62,0,0,1,1.75,2.84c.13.25.25.51.36.76a18.11,18.11,0,0,1,1,3.39c.07.33.12.66.17,1l0,.22c0,.66,0,1.33,0,2,.08,2-.71,3-2.79,2.92q-6.15-.09-12.29,0C74.7,18.89,73.88,18,74,16c.06-1.49,0-3,0-4.49.12-.38.26-.75.41-1.12A22.86,22.86,0,0,1,76.43,6.61Z"/><path class="cls-1" d="M61.6,39.71a16.49,16.49,0,0,0-2.24,0,35.38,35.38,0,0,1,3.1,19.21c-.5,5.56-.92,11.36-7.32,15.14,1.86.9,3.23,2,4.73,2.19,2.65.4,5.38.24,8.07.43,2.27.16,4.11-.7,4.9-2.71,1.61-4.15,3.49-8.34,4.21-12.68C78.55,52.37,70.43,41.44,61.6,39.71Z"/><path class="cls-1" d="M106.83,58.91a35.38,35.38,0,0,1,3.1-19.21,16.49,16.49,0,0,0-2.24,0c-8.83,1.73-17,12.66-15.45,21.57.72,4.34,2.6,8.53,4.21,12.68.79,2,2.62,2.87,4.9,2.71,2.69-.19,5.42,0,8.07-.43,1.5-.23,2.87-1.29,4.73-2.19C107.75,70.27,107.33,64.47,106.83,58.91Z"/><path class="cls-2" d="M82.39,57.81c-1.81,5.72-3.25,12.2-5,18.86H91.88c-1.66-6.48-3-12-4.47-17.45C86.12,54.32,83.81,53.33,82.39,57.81Z"/><path class="cls-2" d="M50.37,24.55H47.93v52h0a6.34,6.34,0,0,1-6.34-6.34V54.84H20.31v4.6a19.28,19.28,0,0,1-.1,2.13,4.18,4.18,0,0,1-.42,1.55,2.22,2.22,0,0,1-.93.94,3.36,3.36,0,0,1-1.61.33,5.19,5.19,0,0,1-2.24-.6,13.27,13.27,0,0,1-2.51-1.62A22.32,22.32,0,0,1,10,59.85a22.61,22.61,0,0,1-2.15-2.71,16.9,16.9,0,0,1-1.53-2.8,6.84,6.84,0,0,1-.58-2.56,2.76,2.76,0,0,1,.29-1.33,2,2,0,0,1,.82-.8,3.61,3.61,0,0,1,1.25-.36,12,12,0,0,1,1.67-.1H14V24.55H5.69A5.69,5.69,0,0,1,0,18.86H56.05A5.68,5.68,0,0,1,50.37,24.55Zm-30.06,0V49.19H41.59V24.55Z"/><path class="cls-2" d="M139.06,37a10.73,10.73,0,0,1,.42-3.11,8.79,8.79,0,0,1,1.14-2.43,7,7,0,0,1,1.71-1.75,7.87,7.87,0,0,1,2.17-1.08V23.09H114.68V18.86h48.65a4.23,4.23,0,0,1-4.23,4.23h-9.88v5.38a9,9,0,0,1,3.18,1.4A9.55,9.55,0,0,1,155,32.49a13,13,0,0,1,1.7,3.76,17.19,17.19,0,0,1,.62,4.83,21.31,21.31,0,0,1-.72,5.54,22,22,0,0,1-5.22,9.43,20.32,20.32,0,0,1-9.18,5.62,19.9,19.9,0,0,1-5.66.8,15.9,15.9,0,0,1-5.54-.88,12,12,0,0,1-3.9-2.3A9.18,9.18,0,0,1,124.74,56a9.45,9.45,0,0,1-.76-3.69,9.81,9.81,0,0,1,.43-2.85,8.47,8.47,0,0,1,1.33-2.65l-.06-.15a9,9,0,0,1-3.41-2,9.16,9.16,0,0,1-1.83-2.5,7.57,7.57,0,0,1-.73-2.38,14.8,14.8,0,0,1-.13-1.65,8.9,8.9,0,0,1,.69-3.63,7.31,7.31,0,0,1,1.88-2.59,7.94,7.94,0,0,1,2.77-1.55,10.26,10.26,0,0,1,3.29-.52,11.6,11.6,0,0,1,2.74.33,11,11,0,0,1,2.67,1.05v4.2a15.47,15.47,0,0,0-2.43-.85,9.92,9.92,0,0,0-2.49-.33,6.66,6.66,0,0,0-1.75.23,4,4,0,0,0-1.46.74,3.46,3.46,0,0,0-1,1.29,4.62,4.62,0,0,0-.36,1.91,5.27,5.27,0,0,0,.46,2.26,4.95,4.95,0,0,0,2.84,2.59,4.91,4.91,0,0,0,1.77.34,9.59,9.59,0,0,0,2.45-.38c.92-.25,1.84-.53,2.76-.83l1.21,4a13.23,13.23,0,0,0-3.25,1,7.56,7.56,0,0,0-2.19,1.48,5.16,5.16,0,0,0-1.61,3.77,4.52,4.52,0,0,0,.5,2.13,5.09,5.09,0,0,0,1.45,1.7,7.23,7.23,0,0,0,2.35,1.12,11.43,11.43,0,0,0,3.18.4,15,15,0,0,0,4.68-.75A16.9,16.9,0,0,0,145,55.23,17.78,17.78,0,0,0,148.6,52a17.11,17.11,0,0,0,2.64-4.1A16.22,16.22,0,0,1,146,47.1a11,11,0,0,1-3.83-2.25,9.22,9.22,0,0,1-2.35-3.44A12,12,0,0,1,139.06,37Zm13.67,4.12a12.8,12.8,0,0,0-.4-3.34,9,9,0,0,0-1.09-2.56,5.13,5.13,0,0,0-1.64-1.64,3.86,3.86,0,0,0-2-.58,3.65,3.65,0,0,0-2.8,1.27,4.32,4.32,0,0,0-.84,1.45,5.68,5.68,0,0,0-.3,1.89,5.2,5.2,0,0,0,.62,2.57A5.29,5.29,0,0,0,146,42.07a9.11,9.11,0,0,0,2.81,1.17,17.65,17.65,0,0,0,3.71.46c.06-.42.11-.84.15-1.27S152.73,41.58,152.73,41.14Z"/><path class="cls-2" d="M148.56,62.64a16.07,16.07,0,0,1,4.07-1.79,15.69,15.69,0,0,1,4.25-.63,10.47,10.47,0,0,1,3.27.5,8,8,0,0,1,2.63,1.47,6.8,6.8,0,0,1,1.75,2.35,7.27,7.27,0,0,1,.64,3.11,8.22,8.22,0,0,1-.74,3.45,7.74,7.74,0,0,1-2.2,2.82,10.92,10.92,0,0,1-3.62,1.92,16.17,16.17,0,0,1-5,.7,17.9,17.9,0,0,1-5.83-.88,20.16,20.16,0,0,1-4.62-2.21,21.65,21.65,0,0,1-3.6-3c-1-1.08-2-2.1-2.73-3h0a3.74,3.74,0,0,1,5.47-.25l.34.33A20,20,0,0,0,145.74,70a13.59,13.59,0,0,0,3.47,1.57,14.62,14.62,0,0,0,4.19.55,12.71,12.71,0,0,0,3.38-.39,7.73,7.73,0,0,0,2.29-1,3.89,3.89,0,0,0,1.29-1.41,3.48,3.48,0,0,0,.4-1.6,2.8,2.8,0,0,0-1.1-2.33,4.81,4.81,0,0,0-3-.86,11.29,11.29,0,0,0-2.87.43h0a4.5,4.5,0,0,1-5.17-2.27Z"/><circle class="cls-2" cx="82.91" cy="31.61" r="5.26"/><path class="cls-3" d="M82.91,37.19a5.58,5.58,0,1,1,5.58-5.58A5.59,5.59,0,0,1,82.91,37.19Zm0-10.52a4.94,4.94,0,1,0,4.94,4.94A4.94,4.94,0,0,0,82.91,26.67Z"/></g></g></svg>