<svg xmlns="http://www.w3.org/2000/svg" viewBox="0 0 151.04 117.51"><defs><style>.cls-1{fill:#00559c;}.cls-2{fill:none;stroke:#000;stroke-miterlimit:10;stroke-width:2px;}.cls-3{font-size:21.37px;fill:#fff;font-family:Calibri-Bold, Calibri;font-weight:700;}</style></defs><title>Asset 2</title><g id="Layer_2" data-name="Layer 2"><g id="Layer_1-2" data-name="Layer 1"><path class="cls-1" d="M94.43,5.1c-30.72,0-55.62,25.16-55.62,56.2a55.89,55.89,0,0,0,.46,7.25l-36.71,24,44-2.63a55.5,55.5,0,0,0,47.88,27.59c30.72,0,55.62-25.17,55.62-56.21S125.15,5.1,94.43,5.1Z"/><path class="cls-2" d="M94.84,1C64.36,1,39.65,26.16,39.65,57.2a58,58,0,0,0,.45,7.26l-36.43,24,43.66-2.63a55,55,0,0,0,47.51,27.59c30.49,0,55.2-25.17,55.2-56.21S125.33,1,94.84,1Z"/><text class="cls-3" transform="translate(56.52 64.53)">machhu.</text></g></g></svg>