<svg width="358" height="288.1" xmlns="http://www.w3.org/2000/svg" version="1.1" xml:space="preserve">
 <g>
  <title>Layer 1</title>
  <path class="st0" d="m216.4,12.9c-74.9,0 -139.5,60.8 -139.5,135.7c0,3 0.1,6.1 0.3,9.1l-77.2,60.7l95.6,-2.5c23.1,41.9 65.7,72.2 117,72.2c75,0 139.5,-58.8 139.5,-133.8s-60.6,-141.4 -135.7,-141.4z" fill="#05599c" id="svg_1"/>
  <path d="m220.3,2.8c-37.6,0.1 -73.5,15.4 -99.7,42.4c-12.9,13.3 -22.9,29.1 -29.4,46.5c-6.3,17.3 -8.8,35.9 -7.2,54.2l0,0l0,0.2c0,0.9 -0.4,1.7 -1.1,2.3l-77.3,60.8l0,0l-1.9,-5.2l95.6,-4.1l0.2,0c1.6,0 3.1,0.9 3.8,2.3c11,20.7 27.1,38.2 46.7,51.1c19.7,12.8 42.6,19.8 66.1,20.1c35.7,0.2 70.1,-13.1 96.3,-37.3c8.6,-8 16.2,-17.2 22.4,-27.2c12.6,-20.1 19.3,-43.4 19.1,-67.1c-0.1,-11.8 -1.6,-23.6 -4.7,-35.1c-1.5,-5.7 -3.4,-11.3 -5.6,-16.8c-2.2,-5.5 -4.8,-10.8 -7.7,-16c-5.9,-10.4 -12.9,-20.1 -21,-28.8c-8.1,-8.6 -17.3,-16.2 -27.3,-22.5c-20.1,-12.8 -43.5,-19.7 -67.3,-19.8l0,0zm0,-2.8c24.4,0 48.3,6.9 69,19.9c10.3,6.4 19.8,14.1 28.2,22.9c8.4,8.8 15.6,18.6 21.6,29.2c3,5.3 5.7,10.8 8,16.4s4.2,11.4 5.8,17.3c3.2,11.7 4.9,23.9 5.1,36c0.3,24.6 -6.3,48.7 -19.2,69.7c-6.4,10.5 -14.1,20 -22.9,28.5c-27,25.5 -62.7,39.8 -99.8,40c-24.8,0.1 -49.2,-6.8 -70.2,-20c-21,-13.3 -38.3,-31.6 -50.4,-53.2l4,2.3l0,0l-95.7,0.9l0,0c-1.6,0 -2.9,-1.3 -2.9,-2.8c0,-0.9 0.4,-1.7 1.1,-2.3l0,0l77.3,-60.8l-1.1,2.5l0,0c-0.3,-4.8 -0.3,-9.6 0,-14.3c0.2,-4.8 0.7,-9.5 1.5,-14.2c1.5,-9.4 4.1,-18.6 7.6,-27.5c7,-17.7 17.6,-33.8 31,-47.2c13.4,-13.5 29.2,-24.2 46.7,-31.7c17.5,-7.8 36.3,-11.6 55.3,-11.6z" id="svg_2"/>
  <text font-weight="bold" fill="#ffffff" x="96.775" y="162.24999" id="svg_10" stroke-width="0" font-size="75" font-family="'Glory'" text-anchor="start" xml:space="preserve">machhu.</text>
  <g id="svg_6">
   <g id="svg_7">
    <title>Layer 1</title>
    <path class="st0" d="m216.3951,12.9c-74.9,0 -139.5,60.8 -139.5,135.7c0,3 0.1,6.1 0.3,9.1l-77.2,60.7l95.6,-2.5c23.1,41.9 65.7,72.2 117,72.2c75,0 139.5,-58.8 139.5,-133.8s-60.6,-141.4 -135.7,-141.4z" fill="#05599c" id="svg_5"/>
    <path d="m220.2951,2.8c-37.6,0.1 -73.5,15.4 -99.7,42.4c-12.9,13.3 -22.9,29.1 -29.4,46.5c-6.3,17.3 -8.8,35.9 -7.2,54.2l0,0l0,0.2c0,0.9 -0.4,1.7 -1.1,2.3l-77.3,60.8l0,0l-1.9,-5.2l95.6,-4.1l0.2,0c1.6,0 3.1,0.9 3.8,2.3c11,20.7 27.1,38.2 46.7,51.1c19.7,12.8 42.6,19.8 66.1,20.1c35.7,0.2 70.1,-13.1 96.3,-37.3c8.6,-8 16.2,-17.2 22.4,-27.2c12.6,-20.1 19.3,-43.4 19.1,-67.1c-0.1,-11.8 -1.6,-23.6 -4.7,-35.1c-1.5,-5.7 -3.4,-11.3 -5.6,-16.8c-2.2,-5.5 -4.8,-10.8 -7.7,-16c-5.9,-10.4 -12.9,-20.1 -21,-28.8c-8.1,-8.6 -17.3,-16.2 -27.3,-22.5c-20.1,-12.8 -43.5,-19.7 -67.3,-19.8l0,0zm0,-2.8c24.4,0 48.3,6.9 69,19.9c10.3,6.4 19.8,14.1 28.2,22.9c8.4,8.8 15.6,18.6 21.6,29.2c3,5.3 5.7,10.8 8,16.4s4.2,11.4 5.8,17.3c3.2,11.7 4.9,23.9 5.1,36c0.3,24.6 -6.3,48.7 -19.2,69.7c-6.4,10.5 -14.1,20 -22.9,28.5c-27,25.5 -62.7,39.8 -99.8,40c-24.8,0.1 -49.2,-6.8 -70.2,-20c-21,-13.3 -38.3,-31.6 -50.4,-53.2l4,2.3l0,0l-95.7,0.9l0,0c-1.6,0 -2.9,-1.3 -2.9,-2.8c0,-0.9 0.4,-1.7 1.1,-2.3l0,0l77.3,-60.8l-1.1,2.5l0,0c-0.3,-4.8 -0.3,-9.6 0,-14.3c0.2,-4.8 0.7,-9.5 1.5,-14.2c1.5,-9.4 4.1,-18.6 7.6,-27.5c7,-17.7 17.6,-33.8 31,-47.2c13.4,-13.5 29.2,-24.2 46.7,-31.7c17.5,-7.8 36.3,-11.6 55.3,-11.6z" id="svg_4"/>
    <text font-weight="bold" fill="#ffffff" x="96.7701" y="162.24999" id="svg_3" stroke-width="0" font-size="75" font-family="'Glory'" text-anchor="start" xml:space="preserve">machhu.</text>
   </g>
  </g>
 </g>

</svg>